%TF.GenerationSoftware,KiCad,Pcbnew,9.0.4*%
%TF.CreationDate,2025-10-02T06:47:31+08:00*%
%TF.ProjectId,CY8CMBR3116_PCB,43593843-4d42-4523-9331-31365f504342,rev?*%
%TF.SameCoordinates,Original*%
%TF.FileFunction,Legend,Top*%
%TF.FilePolarity,Positive*%
%FSLAX46Y46*%
G04 Gerber Fmt 4.6, Leading zero omitted, Abs format (unit mm)*
G04 Created by KiCad (PCBNEW 9.0.4) date 2025-10-02 06:47:31*
%MOMM*%
%LPD*%
G01*
G04 APERTURE LIST*
%ADD10C,0.100000*%
%ADD11C,0.125000*%
%ADD12C,0.093750*%
%ADD13C,0.150000*%
%ADD14C,0.120000*%
G04 APERTURE END LIST*
D10*
G36*
X23122550Y-28484347D02*
G01*
X22427561Y-28484347D01*
X22427561Y-27953182D01*
X22510894Y-27953182D01*
X22512777Y-27972600D01*
X22514452Y-27974647D01*
X22514452Y-27977292D01*
X22526354Y-27989194D01*
X22537011Y-28002218D01*
X22539642Y-28002481D01*
X22541512Y-28004351D01*
X22558340Y-28004351D01*
X22575089Y-28006026D01*
X22577136Y-28004351D01*
X22579781Y-28004351D01*
X22596002Y-27993512D01*
X22625980Y-27963533D01*
X22679592Y-27936728D01*
X22834558Y-27936728D01*
X22888170Y-27963534D01*
X22912410Y-27987775D01*
X22939217Y-28041388D01*
X22939217Y-28196354D01*
X22912410Y-28249966D01*
X22888170Y-28274207D01*
X22834558Y-28301014D01*
X22679592Y-28301014D01*
X22625980Y-28274208D01*
X22596002Y-28244230D01*
X22579781Y-28233391D01*
X22541512Y-28233391D01*
X22514452Y-28260450D01*
X22514452Y-28298719D01*
X22525290Y-28314940D01*
X22561004Y-28350655D01*
X22567678Y-28355114D01*
X22574000Y-28360021D01*
X22645429Y-28395736D01*
X22647844Y-28396397D01*
X22648655Y-28397208D01*
X22656515Y-28398771D01*
X22664245Y-28400888D01*
X22665332Y-28400525D01*
X22667789Y-28401014D01*
X22846360Y-28401014D01*
X22848816Y-28400525D01*
X22849904Y-28400888D01*
X22857628Y-28398772D01*
X22865494Y-28397208D01*
X22866305Y-28396396D01*
X22868720Y-28395735D01*
X22940150Y-28360021D01*
X22946478Y-28355109D01*
X22953145Y-28350655D01*
X22988859Y-28314940D01*
X22993312Y-28308274D01*
X22998224Y-28301946D01*
X23033938Y-28230518D01*
X23034599Y-28228102D01*
X23035411Y-28227291D01*
X23036974Y-28219429D01*
X23039091Y-28211702D01*
X23038728Y-28210613D01*
X23039217Y-28208157D01*
X23039217Y-28029585D01*
X23038728Y-28027128D01*
X23039091Y-28026040D01*
X23036974Y-28018312D01*
X23035411Y-28010451D01*
X23034599Y-28009639D01*
X23033938Y-28007224D01*
X22998224Y-27935796D01*
X22993312Y-27929467D01*
X22988859Y-27922802D01*
X22953145Y-27887087D01*
X22946478Y-27882632D01*
X22940150Y-27877721D01*
X22868720Y-27842007D01*
X22866305Y-27841345D01*
X22865494Y-27840534D01*
X22857628Y-27838969D01*
X22849904Y-27836854D01*
X22848816Y-27837216D01*
X22846360Y-27836728D01*
X22667789Y-27836728D01*
X22665332Y-27837216D01*
X22664245Y-27836854D01*
X22656515Y-27838970D01*
X22648655Y-27840534D01*
X22647844Y-27841344D01*
X22645429Y-27842006D01*
X22621304Y-27854068D01*
X22641610Y-27651014D01*
X22953503Y-27651014D01*
X22972637Y-27647208D01*
X22999697Y-27620148D01*
X22999697Y-27581880D01*
X22972637Y-27554820D01*
X22953503Y-27551014D01*
X22596360Y-27551014D01*
X22584395Y-27553393D01*
X22581917Y-27553146D01*
X22580720Y-27554124D01*
X22577226Y-27554820D01*
X22565323Y-27566722D01*
X22552299Y-27577379D01*
X22551259Y-27580786D01*
X22550166Y-27581880D01*
X22550166Y-27584372D01*
X22546608Y-27596039D01*
X22510894Y-27953182D01*
X22427561Y-27953182D01*
X22427561Y-27467681D01*
X23122550Y-27467681D01*
X23122550Y-28484347D01*
G37*
G36*
X22138458Y-25940541D02*
G01*
X21411439Y-25940541D01*
X21411439Y-25564558D01*
X21494772Y-25564558D01*
X21498452Y-25571918D01*
X21498452Y-25580148D01*
X21506681Y-25588377D01*
X21511886Y-25598787D01*
X21519693Y-25601389D01*
X21525512Y-25607208D01*
X21544646Y-25611014D01*
X21851789Y-25611014D01*
X21851789Y-25811014D01*
X21855595Y-25830148D01*
X21882655Y-25857208D01*
X21920923Y-25857208D01*
X21947983Y-25830148D01*
X21951789Y-25811014D01*
X21951789Y-25611014D01*
X22008931Y-25611014D01*
X22028065Y-25607208D01*
X22055125Y-25580148D01*
X22055125Y-25541880D01*
X22028065Y-25514820D01*
X22008931Y-25511014D01*
X21951789Y-25511014D01*
X21951789Y-25311014D01*
X21947983Y-25291880D01*
X21920923Y-25264820D01*
X21882655Y-25264820D01*
X21855595Y-25291880D01*
X21851789Y-25311014D01*
X21851789Y-25511014D01*
X21614017Y-25511014D01*
X21770651Y-25041111D01*
X21773091Y-25021756D01*
X21755977Y-24987527D01*
X21719673Y-24975426D01*
X21685444Y-24992540D01*
X21675783Y-25009489D01*
X21497212Y-25545203D01*
X21494772Y-25564558D01*
X21411439Y-25564558D01*
X21411439Y-24892093D01*
X22138458Y-24892093D01*
X22138458Y-25940541D01*
G37*
G36*
X22106550Y-20864347D02*
G01*
X21379404Y-20864347D01*
X21379404Y-20711880D01*
X21462737Y-20711880D01*
X21462737Y-20750148D01*
X21489797Y-20777208D01*
X21508931Y-20781014D01*
X21973217Y-20781014D01*
X21992351Y-20777208D01*
X22019411Y-20750148D01*
X22019411Y-20711880D01*
X21992351Y-20684820D01*
X21973217Y-20681014D01*
X21629641Y-20681014D01*
X21972858Y-20337798D01*
X21974249Y-20335715D01*
X21975276Y-20335202D01*
X21979242Y-20328243D01*
X21983697Y-20321577D01*
X21983697Y-20320428D01*
X21984937Y-20318253D01*
X22020651Y-20211111D01*
X22021652Y-20203163D01*
X22023217Y-20195300D01*
X22023217Y-20123871D01*
X22022728Y-20121414D01*
X22023091Y-20120327D01*
X22020974Y-20112597D01*
X22019411Y-20104737D01*
X22018600Y-20103926D01*
X22017939Y-20101511D01*
X21982224Y-20030082D01*
X21977312Y-20023753D01*
X21972858Y-20017087D01*
X21937144Y-19981373D01*
X21930484Y-19976922D01*
X21924150Y-19972007D01*
X21852720Y-19936293D01*
X21850305Y-19935631D01*
X21849494Y-19934820D01*
X21841628Y-19933255D01*
X21833904Y-19931140D01*
X21832816Y-19931502D01*
X21830360Y-19931014D01*
X21651789Y-19931014D01*
X21649332Y-19931502D01*
X21648245Y-19931140D01*
X21640515Y-19933256D01*
X21632655Y-19934820D01*
X21631844Y-19935630D01*
X21629429Y-19936292D01*
X21558000Y-19972007D01*
X21551671Y-19976918D01*
X21545005Y-19981373D01*
X21509291Y-20017087D01*
X21498452Y-20033308D01*
X21498452Y-20071576D01*
X21525512Y-20098636D01*
X21563780Y-20098636D01*
X21580001Y-20087797D01*
X21609977Y-20057820D01*
X21663592Y-20031014D01*
X21818558Y-20031014D01*
X21872172Y-20057821D01*
X21896410Y-20082059D01*
X21923217Y-20135673D01*
X21923217Y-20187186D01*
X21893801Y-20275432D01*
X21473576Y-20695659D01*
X21462737Y-20711880D01*
X21379404Y-20711880D01*
X21379404Y-19847681D01*
X22106550Y-19847681D01*
X22106550Y-20864347D01*
G37*
D11*
X26270619Y-16991142D02*
X26842047Y-16991142D01*
X26842048Y-16991142D02*
X27413476Y-16991142D01*
X27413477Y-16991142D02*
X27984905Y-16991142D01*
X27984906Y-16991142D02*
X28556334Y-16991142D01*
X28556335Y-16991142D02*
X29127763Y-16991142D01*
X27984906Y-19785142D02*
X28556334Y-19785142D01*
X28556335Y-19785142D02*
X29127763Y-19785142D01*
D10*
G36*
X27864686Y-20864347D02*
G01*
X26423254Y-20864347D01*
X26423254Y-20711880D01*
X26506587Y-20711880D01*
X26506587Y-20750148D01*
X26533647Y-20777208D01*
X26552781Y-20781014D01*
X27017067Y-20781014D01*
X27036201Y-20777208D01*
X27063261Y-20750148D01*
X27063261Y-20711880D01*
X27036201Y-20684820D01*
X27017067Y-20681014D01*
X26673491Y-20681014D01*
X27016708Y-20337798D01*
X27018099Y-20335715D01*
X27019126Y-20335202D01*
X27023092Y-20328243D01*
X27027547Y-20321577D01*
X27027547Y-20320428D01*
X27028787Y-20318253D01*
X27064501Y-20211111D01*
X27065502Y-20203163D01*
X27067067Y-20195300D01*
X27067067Y-20123871D01*
X27066578Y-20121414D01*
X27066941Y-20120327D01*
X27064824Y-20112597D01*
X27063261Y-20104737D01*
X27062450Y-20103926D01*
X27061789Y-20101511D01*
X27026074Y-20030082D01*
X27021162Y-20023753D01*
X27016708Y-20017087D01*
X26980994Y-19981373D01*
X26974334Y-19976922D01*
X26968000Y-19972007D01*
X26947745Y-19961880D01*
X27220873Y-19961880D01*
X27220873Y-20000148D01*
X27247933Y-20027208D01*
X27267067Y-20031014D01*
X27621165Y-20031014D01*
X27443724Y-20233803D01*
X27436629Y-20246123D01*
X27435159Y-20247594D01*
X27435159Y-20248677D01*
X27433989Y-20250709D01*
X27435159Y-20268263D01*
X27435159Y-20285862D01*
X27436415Y-20287118D01*
X27436534Y-20288893D01*
X27449778Y-20300481D01*
X27462219Y-20312922D01*
X27464519Y-20313379D01*
X27465334Y-20314092D01*
X27467406Y-20313953D01*
X27481353Y-20316728D01*
X27576694Y-20316728D01*
X27630306Y-20343534D01*
X27654546Y-20367775D01*
X27681353Y-20421388D01*
X27681353Y-20576354D01*
X27654546Y-20629966D01*
X27630306Y-20654207D01*
X27576694Y-20681014D01*
X27386013Y-20681014D01*
X27332400Y-20654207D01*
X27302422Y-20624230D01*
X27286201Y-20613391D01*
X27247933Y-20613391D01*
X27220873Y-20640451D01*
X27220873Y-20678719D01*
X27231712Y-20694940D01*
X27267427Y-20730656D01*
X27274092Y-20735109D01*
X27280421Y-20740021D01*
X27351849Y-20775735D01*
X27354264Y-20776396D01*
X27355076Y-20777208D01*
X27362937Y-20778771D01*
X27370665Y-20780888D01*
X27371753Y-20780525D01*
X27374210Y-20781014D01*
X27588496Y-20781014D01*
X27590952Y-20780525D01*
X27592040Y-20780888D01*
X27599764Y-20778772D01*
X27607630Y-20777208D01*
X27608441Y-20776396D01*
X27610856Y-20775735D01*
X27682286Y-20740021D01*
X27688614Y-20735109D01*
X27695281Y-20730655D01*
X27730995Y-20694940D01*
X27735448Y-20688274D01*
X27740360Y-20681946D01*
X27776074Y-20610518D01*
X27776735Y-20608102D01*
X27777547Y-20607291D01*
X27779110Y-20599429D01*
X27781227Y-20591702D01*
X27780864Y-20590613D01*
X27781353Y-20588157D01*
X27781353Y-20409585D01*
X27780864Y-20407128D01*
X27781227Y-20406040D01*
X27779110Y-20398312D01*
X27777547Y-20390451D01*
X27776735Y-20389639D01*
X27776074Y-20387224D01*
X27740360Y-20315796D01*
X27735448Y-20309467D01*
X27730995Y-20302802D01*
X27695281Y-20267087D01*
X27688614Y-20262632D01*
X27682286Y-20257721D01*
X27610856Y-20222007D01*
X27608441Y-20221345D01*
X27607630Y-20220534D01*
X27599764Y-20218969D01*
X27592040Y-20216854D01*
X27591180Y-20217140D01*
X27768982Y-20013939D01*
X27776076Y-20001618D01*
X27777547Y-20000148D01*
X27777547Y-19999064D01*
X27778717Y-19997033D01*
X27777547Y-19979478D01*
X27777547Y-19961880D01*
X27776290Y-19960623D01*
X27776172Y-19958849D01*
X27762927Y-19947260D01*
X27750487Y-19934820D01*
X27748186Y-19934362D01*
X27747372Y-19933650D01*
X27745299Y-19933788D01*
X27731353Y-19931014D01*
X27267067Y-19931014D01*
X27247933Y-19934820D01*
X27220873Y-19961880D01*
X26947745Y-19961880D01*
X26896570Y-19936293D01*
X26894155Y-19935631D01*
X26893344Y-19934820D01*
X26885478Y-19933255D01*
X26877754Y-19931140D01*
X26876666Y-19931502D01*
X26874210Y-19931014D01*
X26695639Y-19931014D01*
X26693182Y-19931502D01*
X26692095Y-19931140D01*
X26684365Y-19933256D01*
X26676505Y-19934820D01*
X26675694Y-19935630D01*
X26673279Y-19936292D01*
X26601850Y-19972007D01*
X26595521Y-19976918D01*
X26588855Y-19981373D01*
X26553141Y-20017087D01*
X26542302Y-20033308D01*
X26542302Y-20071576D01*
X26569362Y-20098636D01*
X26607630Y-20098636D01*
X26623851Y-20087797D01*
X26653827Y-20057820D01*
X26707442Y-20031014D01*
X26862408Y-20031014D01*
X26916022Y-20057821D01*
X26940260Y-20082059D01*
X26967067Y-20135673D01*
X26967067Y-20187186D01*
X26937651Y-20275432D01*
X26517426Y-20695659D01*
X26506587Y-20711880D01*
X26423254Y-20711880D01*
X26423254Y-19847681D01*
X27864686Y-19847681D01*
X27864686Y-20864347D01*
G37*
G36*
X27610686Y-23404347D02*
G01*
X26169254Y-23404347D01*
X26169254Y-23251880D01*
X26252587Y-23251880D01*
X26252587Y-23290148D01*
X26279647Y-23317208D01*
X26298781Y-23321014D01*
X26763067Y-23321014D01*
X26782201Y-23317208D01*
X26809261Y-23290148D01*
X26809261Y-23251880D01*
X26966873Y-23251880D01*
X26966873Y-23290148D01*
X26993933Y-23317208D01*
X27013067Y-23321014D01*
X27477353Y-23321014D01*
X27496487Y-23317208D01*
X27523547Y-23290148D01*
X27523547Y-23251880D01*
X27496487Y-23224820D01*
X27477353Y-23221014D01*
X27133777Y-23221014D01*
X27476994Y-22877798D01*
X27478385Y-22875715D01*
X27479412Y-22875202D01*
X27483378Y-22868243D01*
X27487833Y-22861577D01*
X27487833Y-22860428D01*
X27489073Y-22858253D01*
X27524787Y-22751111D01*
X27525788Y-22743163D01*
X27527353Y-22735300D01*
X27527353Y-22663871D01*
X27526864Y-22661414D01*
X27527227Y-22660327D01*
X27525110Y-22652597D01*
X27523547Y-22644737D01*
X27522736Y-22643926D01*
X27522075Y-22641511D01*
X27486360Y-22570082D01*
X27481448Y-22563753D01*
X27476994Y-22557087D01*
X27441280Y-22521373D01*
X27434620Y-22516922D01*
X27428286Y-22512007D01*
X27356856Y-22476293D01*
X27354441Y-22475631D01*
X27353630Y-22474820D01*
X27345764Y-22473255D01*
X27338040Y-22471140D01*
X27336952Y-22471502D01*
X27334496Y-22471014D01*
X27155925Y-22471014D01*
X27153468Y-22471502D01*
X27152381Y-22471140D01*
X27144651Y-22473256D01*
X27136791Y-22474820D01*
X27135980Y-22475630D01*
X27133565Y-22476292D01*
X27062136Y-22512007D01*
X27055807Y-22516918D01*
X27049141Y-22521373D01*
X27013427Y-22557087D01*
X27002588Y-22573308D01*
X27002588Y-22611576D01*
X27029648Y-22638636D01*
X27067916Y-22638636D01*
X27084137Y-22627797D01*
X27114113Y-22597820D01*
X27167728Y-22571014D01*
X27322694Y-22571014D01*
X27376308Y-22597821D01*
X27400546Y-22622059D01*
X27427353Y-22675673D01*
X27427353Y-22727186D01*
X27397937Y-22815432D01*
X26977712Y-23235659D01*
X26966873Y-23251880D01*
X26809261Y-23251880D01*
X26782201Y-23224820D01*
X26763067Y-23221014D01*
X26419491Y-23221014D01*
X26762708Y-22877798D01*
X26764099Y-22875715D01*
X26765126Y-22875202D01*
X26769092Y-22868243D01*
X26773547Y-22861577D01*
X26773547Y-22860428D01*
X26774787Y-22858253D01*
X26810501Y-22751111D01*
X26811502Y-22743163D01*
X26813067Y-22735300D01*
X26813067Y-22663871D01*
X26812578Y-22661414D01*
X26812941Y-22660327D01*
X26810824Y-22652597D01*
X26809261Y-22644737D01*
X26808450Y-22643926D01*
X26807789Y-22641511D01*
X26772074Y-22570082D01*
X26767162Y-22563753D01*
X26762708Y-22557087D01*
X26726994Y-22521373D01*
X26720334Y-22516922D01*
X26714000Y-22512007D01*
X26642570Y-22476293D01*
X26640155Y-22475631D01*
X26639344Y-22474820D01*
X26631478Y-22473255D01*
X26623754Y-22471140D01*
X26622666Y-22471502D01*
X26620210Y-22471014D01*
X26441639Y-22471014D01*
X26439182Y-22471502D01*
X26438095Y-22471140D01*
X26430365Y-22473256D01*
X26422505Y-22474820D01*
X26421694Y-22475630D01*
X26419279Y-22476292D01*
X26347850Y-22512007D01*
X26341521Y-22516918D01*
X26334855Y-22521373D01*
X26299141Y-22557087D01*
X26288302Y-22573308D01*
X26288302Y-22611576D01*
X26315362Y-22638636D01*
X26353630Y-22638636D01*
X26369851Y-22627797D01*
X26399827Y-22597820D01*
X26453442Y-22571014D01*
X26608408Y-22571014D01*
X26662022Y-22597821D01*
X26686260Y-22622059D01*
X26713067Y-22675673D01*
X26713067Y-22727186D01*
X26683651Y-22815432D01*
X26263426Y-23235659D01*
X26252587Y-23251880D01*
X26169254Y-23251880D01*
X26169254Y-22387681D01*
X27610686Y-22387681D01*
X27610686Y-23404347D01*
G37*
G36*
X27606880Y-25944347D02*
G01*
X26169254Y-25944347D01*
X26169254Y-25791880D01*
X26252587Y-25791880D01*
X26252587Y-25830148D01*
X26279647Y-25857208D01*
X26298781Y-25861014D01*
X26763067Y-25861014D01*
X26782201Y-25857208D01*
X26809261Y-25830148D01*
X26809261Y-25791880D01*
X26782201Y-25764820D01*
X26763067Y-25761014D01*
X26419491Y-25761014D01*
X26762708Y-25417798D01*
X26764099Y-25415715D01*
X26765126Y-25415202D01*
X26769092Y-25408243D01*
X26773547Y-25401577D01*
X26773547Y-25400428D01*
X26774787Y-25398253D01*
X26810501Y-25291111D01*
X26811502Y-25283163D01*
X26812361Y-25278845D01*
X26998908Y-25278845D01*
X27016022Y-25313073D01*
X27052327Y-25325174D01*
X27071143Y-25320021D01*
X27142571Y-25284306D01*
X27148899Y-25279394D01*
X27155565Y-25274941D01*
X27213067Y-25217439D01*
X27213067Y-25761014D01*
X27048782Y-25761014D01*
X27029648Y-25764820D01*
X27002588Y-25791880D01*
X27002588Y-25830148D01*
X27029648Y-25857208D01*
X27048782Y-25861014D01*
X27477353Y-25861014D01*
X27496487Y-25857208D01*
X27523547Y-25830148D01*
X27523547Y-25791880D01*
X27496487Y-25764820D01*
X27477353Y-25761014D01*
X27313067Y-25761014D01*
X27313067Y-25061014D01*
X27309261Y-25041880D01*
X27305620Y-25038239D01*
X27304611Y-25033192D01*
X27292497Y-25025116D01*
X27282201Y-25014820D01*
X27277053Y-25014820D01*
X27272770Y-25011965D01*
X27258495Y-25014820D01*
X27243933Y-25014820D01*
X27240292Y-25018460D01*
X27235244Y-25019470D01*
X27221464Y-25033280D01*
X27152780Y-25136305D01*
X27090592Y-25198492D01*
X27026421Y-25230579D01*
X27011009Y-25242540D01*
X26998908Y-25278845D01*
X26812361Y-25278845D01*
X26813067Y-25275300D01*
X26813067Y-25203871D01*
X26812578Y-25201414D01*
X26812941Y-25200327D01*
X26810824Y-25192597D01*
X26809261Y-25184737D01*
X26808450Y-25183926D01*
X26807789Y-25181511D01*
X26772074Y-25110082D01*
X26767162Y-25103753D01*
X26762708Y-25097087D01*
X26726994Y-25061373D01*
X26720334Y-25056922D01*
X26714000Y-25052007D01*
X26642570Y-25016293D01*
X26640155Y-25015631D01*
X26639344Y-25014820D01*
X26631478Y-25013255D01*
X26623754Y-25011140D01*
X26622666Y-25011502D01*
X26620210Y-25011014D01*
X26441639Y-25011014D01*
X26439182Y-25011502D01*
X26438095Y-25011140D01*
X26430365Y-25013256D01*
X26422505Y-25014820D01*
X26421694Y-25015630D01*
X26419279Y-25016292D01*
X26347850Y-25052007D01*
X26341521Y-25056918D01*
X26334855Y-25061373D01*
X26299141Y-25097087D01*
X26288302Y-25113308D01*
X26288302Y-25151576D01*
X26315362Y-25178636D01*
X26353630Y-25178636D01*
X26369851Y-25167797D01*
X26399827Y-25137820D01*
X26453442Y-25111014D01*
X26608408Y-25111014D01*
X26662022Y-25137821D01*
X26686260Y-25162059D01*
X26713067Y-25215673D01*
X26713067Y-25267186D01*
X26683651Y-25355432D01*
X26263426Y-25775659D01*
X26252587Y-25791880D01*
X26169254Y-25791880D01*
X26169254Y-24927681D01*
X27606880Y-24927681D01*
X27606880Y-25944347D01*
G37*
D12*
X28635934Y-24570475D02*
X28135934Y-24570475D01*
X28016886Y-24356189D02*
X27993077Y-24308570D01*
X27993077Y-24308570D02*
X27993077Y-24237142D01*
X27993077Y-24237142D02*
X28016886Y-24189523D01*
X28016886Y-24189523D02*
X28064505Y-24165713D01*
X28064505Y-24165713D02*
X28112125Y-24165713D01*
X28112125Y-24165713D02*
X28159744Y-24189523D01*
X28159744Y-24189523D02*
X28326410Y-24356189D01*
X28326410Y-24356189D02*
X28326410Y-24165713D01*
X28588315Y-23665714D02*
X28612125Y-23689523D01*
X28612125Y-23689523D02*
X28635934Y-23760952D01*
X28635934Y-23760952D02*
X28635934Y-23808571D01*
X28635934Y-23808571D02*
X28612125Y-23879999D01*
X28612125Y-23879999D02*
X28564505Y-23927618D01*
X28564505Y-23927618D02*
X28516886Y-23951428D01*
X28516886Y-23951428D02*
X28421648Y-23975237D01*
X28421648Y-23975237D02*
X28350220Y-23975237D01*
X28350220Y-23975237D02*
X28254982Y-23951428D01*
X28254982Y-23951428D02*
X28207363Y-23927618D01*
X28207363Y-23927618D02*
X28159744Y-23879999D01*
X28159744Y-23879999D02*
X28135934Y-23808571D01*
X28135934Y-23808571D02*
X28135934Y-23760952D01*
X28135934Y-23760952D02*
X28159744Y-23689523D01*
X28159744Y-23689523D02*
X28183553Y-23665714D01*
X27862609Y-23024125D02*
X27934037Y-23047934D01*
X27934037Y-23047934D02*
X28053085Y-23047934D01*
X28053085Y-23047934D02*
X28100704Y-23024125D01*
X28100704Y-23024125D02*
X28124513Y-23000315D01*
X28124513Y-23000315D02*
X28148323Y-22952696D01*
X28148323Y-22952696D02*
X28148323Y-22905077D01*
X28148323Y-22905077D02*
X28124513Y-22857458D01*
X28124513Y-22857458D02*
X28100704Y-22833648D01*
X28100704Y-22833648D02*
X28053085Y-22809839D01*
X28053085Y-22809839D02*
X27957847Y-22786029D01*
X27957847Y-22786029D02*
X27910228Y-22762220D01*
X27910228Y-22762220D02*
X27886418Y-22738410D01*
X27886418Y-22738410D02*
X27862609Y-22690791D01*
X27862609Y-22690791D02*
X27862609Y-22643172D01*
X27862609Y-22643172D02*
X27886418Y-22595553D01*
X27886418Y-22595553D02*
X27910228Y-22571744D01*
X27910228Y-22571744D02*
X27957847Y-22547934D01*
X27957847Y-22547934D02*
X28076894Y-22547934D01*
X28076894Y-22547934D02*
X28148323Y-22571744D01*
X28648322Y-23000315D02*
X28624513Y-23024125D01*
X28624513Y-23024125D02*
X28553084Y-23047934D01*
X28553084Y-23047934D02*
X28505465Y-23047934D01*
X28505465Y-23047934D02*
X28434037Y-23024125D01*
X28434037Y-23024125D02*
X28386418Y-22976505D01*
X28386418Y-22976505D02*
X28362608Y-22928886D01*
X28362608Y-22928886D02*
X28338799Y-22833648D01*
X28338799Y-22833648D02*
X28338799Y-22762220D01*
X28338799Y-22762220D02*
X28362608Y-22666982D01*
X28362608Y-22666982D02*
X28386418Y-22619363D01*
X28386418Y-22619363D02*
X28434037Y-22571744D01*
X28434037Y-22571744D02*
X28505465Y-22547934D01*
X28505465Y-22547934D02*
X28553084Y-22547934D01*
X28553084Y-22547934D02*
X28624513Y-22571744D01*
X28624513Y-22571744D02*
X28648322Y-22595553D01*
X29100703Y-23047934D02*
X28862608Y-23047934D01*
X28862608Y-23047934D02*
X28862608Y-22547934D01*
D10*
G36*
X26614741Y-27677820D02*
G01*
X26638983Y-27702062D01*
X26668612Y-27761321D01*
X26701503Y-27892882D01*
X26701503Y-28059145D01*
X26668612Y-28190706D01*
X26638982Y-28249966D01*
X26614742Y-28274207D01*
X26561129Y-28301014D01*
X26513306Y-28301014D01*
X26459693Y-28274207D01*
X26435452Y-28249967D01*
X26405821Y-28190705D01*
X26372932Y-28059145D01*
X26372932Y-27892882D01*
X26405822Y-27761321D01*
X26435452Y-27702060D01*
X26459693Y-27677820D01*
X26513306Y-27651014D01*
X26561129Y-27651014D01*
X26614741Y-27677820D01*
G37*
G36*
X26884836Y-28484347D02*
G01*
X25443404Y-28484347D01*
X25443404Y-28331880D01*
X25526737Y-28331880D01*
X25526737Y-28370148D01*
X25553797Y-28397208D01*
X25572931Y-28401014D01*
X26037217Y-28401014D01*
X26056351Y-28397208D01*
X26083411Y-28370148D01*
X26083411Y-28331880D01*
X26056351Y-28304820D01*
X26037217Y-28301014D01*
X25693641Y-28301014D01*
X26036858Y-27957798D01*
X26038249Y-27955715D01*
X26039276Y-27955202D01*
X26043242Y-27948243D01*
X26047697Y-27941577D01*
X26047697Y-27940428D01*
X26048937Y-27938253D01*
X26066112Y-27886728D01*
X26272932Y-27886728D01*
X26272932Y-28065300D01*
X26274127Y-28071309D01*
X26274425Y-28077427D01*
X26310139Y-28220284D01*
X26312478Y-28225236D01*
X26313925Y-28230518D01*
X26349639Y-28301946D01*
X26354554Y-28308280D01*
X26359005Y-28314940D01*
X26394720Y-28350656D01*
X26401385Y-28355109D01*
X26407714Y-28360021D01*
X26479142Y-28395735D01*
X26481557Y-28396396D01*
X26482369Y-28397208D01*
X26490230Y-28398771D01*
X26497958Y-28400888D01*
X26499046Y-28400525D01*
X26501503Y-28401014D01*
X26572932Y-28401014D01*
X26575388Y-28400525D01*
X26576477Y-28400888D01*
X26584204Y-28398771D01*
X26592066Y-28397208D01*
X26592877Y-28396396D01*
X26595293Y-28395735D01*
X26666721Y-28360021D01*
X26673055Y-28355105D01*
X26679715Y-28350655D01*
X26715431Y-28314940D01*
X26719884Y-28308274D01*
X26724796Y-28301946D01*
X26760510Y-28230518D01*
X26761956Y-28225236D01*
X26764296Y-28220284D01*
X26800010Y-28077426D01*
X26800307Y-28071307D01*
X26801503Y-28065300D01*
X26801503Y-27886728D01*
X26800307Y-27880720D01*
X26800010Y-27874602D01*
X26764296Y-27731744D01*
X26761957Y-27726794D01*
X26760511Y-27721511D01*
X26724796Y-27650082D01*
X26719889Y-27643760D01*
X26715430Y-27637086D01*
X26679715Y-27601372D01*
X26673049Y-27596918D01*
X26666721Y-27592007D01*
X26595293Y-27556293D01*
X26592877Y-27555631D01*
X26592066Y-27554820D01*
X26584204Y-27553256D01*
X26576477Y-27551140D01*
X26575388Y-27551502D01*
X26572932Y-27551014D01*
X26501503Y-27551014D01*
X26499046Y-27551502D01*
X26497958Y-27551140D01*
X26490230Y-27553256D01*
X26482369Y-27554820D01*
X26481557Y-27555631D01*
X26479142Y-27556293D01*
X26407714Y-27592007D01*
X26401385Y-27596918D01*
X26394720Y-27601372D01*
X26359005Y-27637086D01*
X26354550Y-27643752D01*
X26349639Y-27650081D01*
X26313925Y-27721511D01*
X26312479Y-27726789D01*
X26310139Y-27731744D01*
X26274425Y-27874601D01*
X26274127Y-27880718D01*
X26272932Y-27886728D01*
X26066112Y-27886728D01*
X26084651Y-27831111D01*
X26085652Y-27823163D01*
X26087217Y-27815300D01*
X26087217Y-27743871D01*
X26086728Y-27741414D01*
X26087091Y-27740327D01*
X26084974Y-27732597D01*
X26083411Y-27724737D01*
X26082600Y-27723926D01*
X26081939Y-27721511D01*
X26046224Y-27650082D01*
X26041312Y-27643753D01*
X26036858Y-27637087D01*
X26001144Y-27601373D01*
X25994484Y-27596922D01*
X25988150Y-27592007D01*
X25916720Y-27556293D01*
X25914305Y-27555631D01*
X25913494Y-27554820D01*
X25905628Y-27553255D01*
X25897904Y-27551140D01*
X25896816Y-27551502D01*
X25894360Y-27551014D01*
X25715789Y-27551014D01*
X25713332Y-27551502D01*
X25712245Y-27551140D01*
X25704515Y-27553256D01*
X25696655Y-27554820D01*
X25695844Y-27555630D01*
X25693429Y-27556292D01*
X25622000Y-27592007D01*
X25615671Y-27596918D01*
X25609005Y-27601373D01*
X25573291Y-27637087D01*
X25562452Y-27653308D01*
X25562452Y-27691576D01*
X25589512Y-27718636D01*
X25627780Y-27718636D01*
X25644001Y-27707797D01*
X25673977Y-27677820D01*
X25727592Y-27651014D01*
X25882558Y-27651014D01*
X25936172Y-27677821D01*
X25960410Y-27702059D01*
X25987217Y-27755673D01*
X25987217Y-27807186D01*
X25957801Y-27895432D01*
X25537576Y-28315659D01*
X25526737Y-28331880D01*
X25443404Y-28331880D01*
X25443404Y-27467681D01*
X26884836Y-27467681D01*
X26884836Y-28484347D01*
G37*
G36*
X26884836Y-41184347D02*
G01*
X25475439Y-41184347D01*
X25475439Y-40518845D01*
X25558772Y-40518845D01*
X25575886Y-40553073D01*
X25612191Y-40565174D01*
X25631007Y-40560021D01*
X25702435Y-40524306D01*
X25708763Y-40519394D01*
X25715429Y-40514941D01*
X25772931Y-40457439D01*
X25772931Y-41001014D01*
X25608646Y-41001014D01*
X25589512Y-41004820D01*
X25562452Y-41031880D01*
X25562452Y-41070148D01*
X25589512Y-41097208D01*
X25608646Y-41101014D01*
X26037217Y-41101014D01*
X26056351Y-41097208D01*
X26083411Y-41070148D01*
X26083411Y-41031880D01*
X26056351Y-41004820D01*
X26037217Y-41001014D01*
X25872931Y-41001014D01*
X25872931Y-40653182D01*
X26273180Y-40653182D01*
X26275063Y-40672600D01*
X26276738Y-40674647D01*
X26276738Y-40677292D01*
X26288640Y-40689194D01*
X26299297Y-40702218D01*
X26301928Y-40702481D01*
X26303798Y-40704351D01*
X26320626Y-40704351D01*
X26337375Y-40706026D01*
X26339422Y-40704351D01*
X26342067Y-40704351D01*
X26358288Y-40693512D01*
X26388266Y-40663533D01*
X26441878Y-40636728D01*
X26596844Y-40636728D01*
X26650456Y-40663534D01*
X26674696Y-40687775D01*
X26701503Y-40741388D01*
X26701503Y-40896354D01*
X26674696Y-40949966D01*
X26650456Y-40974207D01*
X26596844Y-41001014D01*
X26441878Y-41001014D01*
X26388266Y-40974208D01*
X26358288Y-40944230D01*
X26342067Y-40933391D01*
X26303798Y-40933391D01*
X26276738Y-40960450D01*
X26276738Y-40998719D01*
X26287576Y-41014940D01*
X26323290Y-41050655D01*
X26329964Y-41055114D01*
X26336286Y-41060021D01*
X26407715Y-41095736D01*
X26410130Y-41096397D01*
X26410941Y-41097208D01*
X26418801Y-41098771D01*
X26426531Y-41100888D01*
X26427618Y-41100525D01*
X26430075Y-41101014D01*
X26608646Y-41101014D01*
X26611102Y-41100525D01*
X26612190Y-41100888D01*
X26619914Y-41098772D01*
X26627780Y-41097208D01*
X26628591Y-41096396D01*
X26631006Y-41095735D01*
X26702436Y-41060021D01*
X26708764Y-41055109D01*
X26715431Y-41050655D01*
X26751145Y-41014940D01*
X26755598Y-41008274D01*
X26760510Y-41001946D01*
X26796224Y-40930518D01*
X26796885Y-40928102D01*
X26797697Y-40927291D01*
X26799260Y-40919429D01*
X26801377Y-40911702D01*
X26801014Y-40910613D01*
X26801503Y-40908157D01*
X26801503Y-40729585D01*
X26801014Y-40727128D01*
X26801377Y-40726040D01*
X26799260Y-40718312D01*
X26797697Y-40710451D01*
X26796885Y-40709639D01*
X26796224Y-40707224D01*
X26760510Y-40635796D01*
X26755598Y-40629467D01*
X26751145Y-40622802D01*
X26715431Y-40587087D01*
X26708764Y-40582632D01*
X26702436Y-40577721D01*
X26631006Y-40542007D01*
X26628591Y-40541345D01*
X26627780Y-40540534D01*
X26619914Y-40538969D01*
X26612190Y-40536854D01*
X26611102Y-40537216D01*
X26608646Y-40536728D01*
X26430075Y-40536728D01*
X26427618Y-40537216D01*
X26426531Y-40536854D01*
X26418801Y-40538970D01*
X26410941Y-40540534D01*
X26410130Y-40541344D01*
X26407715Y-40542006D01*
X26383590Y-40554068D01*
X26403896Y-40351014D01*
X26715789Y-40351014D01*
X26734923Y-40347208D01*
X26761983Y-40320148D01*
X26761983Y-40281880D01*
X26734923Y-40254820D01*
X26715789Y-40251014D01*
X26358646Y-40251014D01*
X26346681Y-40253393D01*
X26344203Y-40253146D01*
X26343006Y-40254124D01*
X26339512Y-40254820D01*
X26327609Y-40266722D01*
X26314585Y-40277379D01*
X26313545Y-40280786D01*
X26312452Y-40281880D01*
X26312452Y-40284372D01*
X26308894Y-40296039D01*
X26273180Y-40653182D01*
X25872931Y-40653182D01*
X25872931Y-40301014D01*
X25869125Y-40281880D01*
X25865484Y-40278239D01*
X25864475Y-40273192D01*
X25852361Y-40265116D01*
X25842065Y-40254820D01*
X25836917Y-40254820D01*
X25832634Y-40251965D01*
X25818359Y-40254820D01*
X25803797Y-40254820D01*
X25800156Y-40258460D01*
X25795108Y-40259470D01*
X25781328Y-40273280D01*
X25712644Y-40376305D01*
X25650456Y-40438492D01*
X25586285Y-40470579D01*
X25570873Y-40482540D01*
X25558772Y-40518845D01*
X25475439Y-40518845D01*
X25475439Y-40167681D01*
X26884836Y-40167681D01*
X26884836Y-41184347D01*
G37*
G36*
X22634172Y-37837821D02*
G01*
X22658410Y-37862059D01*
X22685217Y-37915673D01*
X22685217Y-38070639D01*
X22658410Y-38124253D01*
X22634171Y-38148492D01*
X22580557Y-38175300D01*
X22461306Y-38175300D01*
X22407691Y-38148492D01*
X22383453Y-38124254D01*
X22356646Y-38070639D01*
X22356646Y-37915673D01*
X22383453Y-37862058D01*
X22407691Y-37837820D01*
X22461306Y-37811014D01*
X22580558Y-37811014D01*
X22634172Y-37837821D01*
G37*
G36*
X22868550Y-38644347D02*
G01*
X22173313Y-38644347D01*
X22173313Y-37903871D01*
X22256646Y-37903871D01*
X22256646Y-38082442D01*
X22257134Y-38084898D01*
X22256772Y-38085986D01*
X22258887Y-38093710D01*
X22260452Y-38101576D01*
X22261263Y-38102387D01*
X22261925Y-38104802D01*
X22297639Y-38176232D01*
X22302554Y-38182566D01*
X22307005Y-38189226D01*
X22342719Y-38224940D01*
X22349378Y-38229390D01*
X22355713Y-38234306D01*
X22427142Y-38270021D01*
X22429557Y-38270682D01*
X22430369Y-38271494D01*
X22438230Y-38273057D01*
X22445958Y-38275174D01*
X22447046Y-38274811D01*
X22449503Y-38275300D01*
X22592360Y-38275300D01*
X22594816Y-38274811D01*
X22595905Y-38275174D01*
X22603632Y-38273057D01*
X22611494Y-38271494D01*
X22612305Y-38270682D01*
X22614721Y-38270021D01*
X22670547Y-38242107D01*
X22653096Y-38311914D01*
X22589219Y-38407728D01*
X22562741Y-38434207D01*
X22509129Y-38461014D01*
X22378074Y-38461014D01*
X22358940Y-38464820D01*
X22331880Y-38491880D01*
X22331880Y-38530148D01*
X22358940Y-38557208D01*
X22378074Y-38561014D01*
X22520931Y-38561014D01*
X22523387Y-38560525D01*
X22524475Y-38560888D01*
X22532199Y-38558772D01*
X22540065Y-38557208D01*
X22540876Y-38556396D01*
X22543291Y-38555735D01*
X22614721Y-38520021D01*
X22621049Y-38515109D01*
X22627716Y-38510655D01*
X22663430Y-38474940D01*
X22666181Y-38470821D01*
X22669676Y-38467320D01*
X22741105Y-38360177D01*
X22744362Y-38352290D01*
X22748010Y-38344569D01*
X22783724Y-38201711D01*
X22784021Y-38195592D01*
X22785217Y-38189585D01*
X22785217Y-37903871D01*
X22784728Y-37901414D01*
X22785091Y-37900327D01*
X22782974Y-37892597D01*
X22781411Y-37884737D01*
X22780600Y-37883926D01*
X22779939Y-37881511D01*
X22744224Y-37810082D01*
X22739312Y-37803753D01*
X22734858Y-37797087D01*
X22699144Y-37761373D01*
X22692484Y-37756922D01*
X22686150Y-37752007D01*
X22614720Y-37716293D01*
X22612305Y-37715631D01*
X22611494Y-37714820D01*
X22603628Y-37713255D01*
X22595904Y-37711140D01*
X22594816Y-37711502D01*
X22592360Y-37711014D01*
X22449503Y-37711014D01*
X22447046Y-37711502D01*
X22445959Y-37711140D01*
X22438229Y-37713256D01*
X22430369Y-37714820D01*
X22429558Y-37715630D01*
X22427143Y-37716292D01*
X22355714Y-37752007D01*
X22349385Y-37756918D01*
X22342719Y-37761373D01*
X22307005Y-37797087D01*
X22302554Y-37803746D01*
X22297639Y-37810081D01*
X22261925Y-37881511D01*
X22261263Y-37883925D01*
X22260452Y-37884737D01*
X22258887Y-37892602D01*
X22256772Y-37900327D01*
X22257134Y-37901414D01*
X22256646Y-37903871D01*
X22173313Y-37903871D01*
X22173313Y-37627681D01*
X22868550Y-37627681D01*
X22868550Y-38644347D01*
G37*
G36*
X26920546Y-36104347D02*
G01*
X25475439Y-36104347D01*
X25475439Y-35438845D01*
X25558772Y-35438845D01*
X25575886Y-35473073D01*
X25612191Y-35485174D01*
X25631007Y-35480021D01*
X25702435Y-35444306D01*
X25708763Y-35439394D01*
X25715429Y-35434941D01*
X25772931Y-35377439D01*
X25772931Y-35921014D01*
X25608646Y-35921014D01*
X25589512Y-35924820D01*
X25562452Y-35951880D01*
X25562452Y-35990148D01*
X25589512Y-36017208D01*
X25608646Y-36021014D01*
X26037217Y-36021014D01*
X26056351Y-36017208D01*
X26083411Y-35990148D01*
X26083411Y-35951880D01*
X26056351Y-35924820D01*
X26037217Y-35921014D01*
X25872931Y-35921014D01*
X25872931Y-35221014D01*
X25869125Y-35201880D01*
X26241023Y-35201880D01*
X26241023Y-35240148D01*
X26268083Y-35267208D01*
X26287217Y-35271014D01*
X26711390Y-35271014D01*
X26419832Y-35951318D01*
X26415793Y-35970404D01*
X26430005Y-36005936D01*
X26465179Y-36021010D01*
X26500711Y-36006798D01*
X26511746Y-35990710D01*
X26833174Y-35240710D01*
X26833261Y-35240297D01*
X26833411Y-35240148D01*
X26833411Y-35239590D01*
X26837213Y-35221624D01*
X26833411Y-35212119D01*
X26833411Y-35201880D01*
X26826584Y-35195053D01*
X26823000Y-35186093D01*
X26813591Y-35182060D01*
X26806351Y-35174820D01*
X26788337Y-35171236D01*
X26787827Y-35171018D01*
X26787631Y-35171096D01*
X26787217Y-35171014D01*
X26287217Y-35171014D01*
X26268083Y-35174820D01*
X26241023Y-35201880D01*
X25869125Y-35201880D01*
X25865484Y-35198239D01*
X25864475Y-35193192D01*
X25852361Y-35185116D01*
X25842065Y-35174820D01*
X25836917Y-35174820D01*
X25832634Y-35171965D01*
X25818359Y-35174820D01*
X25803797Y-35174820D01*
X25800156Y-35178460D01*
X25795108Y-35179470D01*
X25781328Y-35193280D01*
X25712644Y-35296305D01*
X25650456Y-35358492D01*
X25586285Y-35390579D01*
X25570873Y-35402540D01*
X25558772Y-35438845D01*
X25475439Y-35438845D01*
X25475439Y-35087681D01*
X26920546Y-35087681D01*
X26920546Y-36104347D01*
G37*
G36*
X26650456Y-38123534D02*
G01*
X26674696Y-38147775D01*
X26701503Y-38201388D01*
X26701503Y-38356354D01*
X26674696Y-38409966D01*
X26650456Y-38434207D01*
X26596844Y-38461014D01*
X26477592Y-38461014D01*
X26423980Y-38434208D01*
X26399738Y-38409966D01*
X26372932Y-38356354D01*
X26372932Y-38201388D01*
X26399738Y-38147775D01*
X26423980Y-38123533D01*
X26477592Y-38096728D01*
X26596844Y-38096728D01*
X26650456Y-38123534D01*
G37*
G36*
X26884836Y-38644347D02*
G01*
X25475439Y-38644347D01*
X25475439Y-37978845D01*
X25558772Y-37978845D01*
X25575886Y-38013073D01*
X25612191Y-38025174D01*
X25631007Y-38020021D01*
X25702435Y-37984306D01*
X25708763Y-37979394D01*
X25715429Y-37974941D01*
X25772931Y-37917439D01*
X25772931Y-38461014D01*
X25608646Y-38461014D01*
X25589512Y-38464820D01*
X25562452Y-38491880D01*
X25562452Y-38530148D01*
X25589512Y-38557208D01*
X25608646Y-38561014D01*
X26037217Y-38561014D01*
X26056351Y-38557208D01*
X26083411Y-38530148D01*
X26083411Y-38491880D01*
X26056351Y-38464820D01*
X26037217Y-38461014D01*
X25872931Y-38461014D01*
X25872931Y-38082442D01*
X26272932Y-38082442D01*
X26272932Y-38368157D01*
X26273420Y-38370613D01*
X26273058Y-38371702D01*
X26275174Y-38379429D01*
X26276738Y-38387291D01*
X26277549Y-38388102D01*
X26278211Y-38390518D01*
X26313925Y-38461946D01*
X26318836Y-38468274D01*
X26323290Y-38474940D01*
X26359004Y-38510655D01*
X26365678Y-38515114D01*
X26372000Y-38520021D01*
X26443429Y-38555736D01*
X26445844Y-38556397D01*
X26446655Y-38557208D01*
X26454515Y-38558771D01*
X26462245Y-38560888D01*
X26463332Y-38560525D01*
X26465789Y-38561014D01*
X26608646Y-38561014D01*
X26611102Y-38560525D01*
X26612190Y-38560888D01*
X26619914Y-38558772D01*
X26627780Y-38557208D01*
X26628591Y-38556396D01*
X26631006Y-38555735D01*
X26702436Y-38520021D01*
X26708764Y-38515109D01*
X26715431Y-38510655D01*
X26751145Y-38474940D01*
X26755598Y-38468274D01*
X26760510Y-38461946D01*
X26796224Y-38390518D01*
X26796885Y-38388102D01*
X26797697Y-38387291D01*
X26799260Y-38379429D01*
X26801377Y-38371702D01*
X26801014Y-38370613D01*
X26801503Y-38368157D01*
X26801503Y-38189585D01*
X26801014Y-38187128D01*
X26801377Y-38186040D01*
X26799260Y-38178312D01*
X26797697Y-38170451D01*
X26796885Y-38169639D01*
X26796224Y-38167224D01*
X26760510Y-38095796D01*
X26755598Y-38089467D01*
X26751145Y-38082802D01*
X26715431Y-38047087D01*
X26708764Y-38042632D01*
X26702436Y-38037721D01*
X26631006Y-38002007D01*
X26628591Y-38001345D01*
X26627780Y-38000534D01*
X26619914Y-37998969D01*
X26612190Y-37996854D01*
X26611102Y-37997216D01*
X26608646Y-37996728D01*
X26465789Y-37996728D01*
X26463332Y-37997216D01*
X26462245Y-37996854D01*
X26454515Y-37998970D01*
X26446655Y-38000534D01*
X26445844Y-38001344D01*
X26443429Y-38002006D01*
X26387600Y-38029920D01*
X26405052Y-37960113D01*
X26468930Y-37864296D01*
X26495406Y-37837821D01*
X26549020Y-37811014D01*
X26680075Y-37811014D01*
X26699209Y-37807208D01*
X26726269Y-37780148D01*
X26726269Y-37741880D01*
X26699209Y-37714820D01*
X26680075Y-37711014D01*
X26537217Y-37711014D01*
X26534760Y-37711502D01*
X26533672Y-37711140D01*
X26525944Y-37713256D01*
X26518083Y-37714820D01*
X26517271Y-37715631D01*
X26514856Y-37716293D01*
X26443428Y-37752007D01*
X26437093Y-37756922D01*
X26430434Y-37761373D01*
X26394720Y-37797087D01*
X26391969Y-37801202D01*
X26388473Y-37804707D01*
X26317044Y-37911850D01*
X26313789Y-37919729D01*
X26310139Y-37927458D01*
X26274425Y-38070315D01*
X26274127Y-38076432D01*
X26272932Y-38082442D01*
X25872931Y-38082442D01*
X25872931Y-37761014D01*
X25869125Y-37741880D01*
X25865484Y-37738239D01*
X25864475Y-37733192D01*
X25852361Y-37725116D01*
X25842065Y-37714820D01*
X25836917Y-37714820D01*
X25832634Y-37711965D01*
X25818359Y-37714820D01*
X25803797Y-37714820D01*
X25800156Y-37718460D01*
X25795108Y-37719470D01*
X25781328Y-37733280D01*
X25712644Y-37836305D01*
X25650456Y-37898492D01*
X25586285Y-37930579D01*
X25570873Y-37942540D01*
X25558772Y-37978845D01*
X25475439Y-37978845D01*
X25475439Y-37627681D01*
X26884836Y-37627681D01*
X26884836Y-38644347D01*
G37*
D12*
X27838800Y-25818125D02*
X27910228Y-25841934D01*
X27910228Y-25841934D02*
X28029276Y-25841934D01*
X28029276Y-25841934D02*
X28076895Y-25818125D01*
X28076895Y-25818125D02*
X28100704Y-25794315D01*
X28100704Y-25794315D02*
X28124514Y-25746696D01*
X28124514Y-25746696D02*
X28124514Y-25699077D01*
X28124514Y-25699077D02*
X28100704Y-25651458D01*
X28100704Y-25651458D02*
X28076895Y-25627648D01*
X28076895Y-25627648D02*
X28029276Y-25603839D01*
X28029276Y-25603839D02*
X27934038Y-25580029D01*
X27934038Y-25580029D02*
X27886419Y-25556220D01*
X27886419Y-25556220D02*
X27862609Y-25532410D01*
X27862609Y-25532410D02*
X27838800Y-25484791D01*
X27838800Y-25484791D02*
X27838800Y-25437172D01*
X27838800Y-25437172D02*
X27862609Y-25389553D01*
X27862609Y-25389553D02*
X27886419Y-25365744D01*
X27886419Y-25365744D02*
X27934038Y-25341934D01*
X27934038Y-25341934D02*
X28053085Y-25341934D01*
X28053085Y-25341934D02*
X28124514Y-25365744D01*
X28338799Y-25841934D02*
X28338799Y-25341934D01*
X28338799Y-25341934D02*
X28457847Y-25341934D01*
X28457847Y-25341934D02*
X28529275Y-25365744D01*
X28529275Y-25365744D02*
X28576894Y-25413363D01*
X28576894Y-25413363D02*
X28600704Y-25460982D01*
X28600704Y-25460982D02*
X28624513Y-25556220D01*
X28624513Y-25556220D02*
X28624513Y-25627648D01*
X28624513Y-25627648D02*
X28600704Y-25722886D01*
X28600704Y-25722886D02*
X28576894Y-25770505D01*
X28576894Y-25770505D02*
X28529275Y-25818125D01*
X28529275Y-25818125D02*
X28457847Y-25841934D01*
X28457847Y-25841934D02*
X28338799Y-25841934D01*
X28814990Y-25699077D02*
X29053085Y-25699077D01*
X28767371Y-25841934D02*
X28934037Y-25341934D01*
X28934037Y-25341934D02*
X29100704Y-25841934D01*
D11*
X26377763Y-17439714D02*
X26877763Y-18189714D01*
X26877763Y-17439714D02*
X26377763Y-18189714D01*
X27592049Y-18189714D02*
X27342049Y-17832571D01*
X27163478Y-18189714D02*
X27163478Y-17439714D01*
X27163478Y-17439714D02*
X27449192Y-17439714D01*
X27449192Y-17439714D02*
X27520621Y-17475428D01*
X27520621Y-17475428D02*
X27556335Y-17511142D01*
X27556335Y-17511142D02*
X27592049Y-17582571D01*
X27592049Y-17582571D02*
X27592049Y-17689714D01*
X27592049Y-17689714D02*
X27556335Y-17761142D01*
X27556335Y-17761142D02*
X27520621Y-17796857D01*
X27520621Y-17796857D02*
X27449192Y-17832571D01*
X27449192Y-17832571D02*
X27163478Y-17832571D01*
X27913478Y-17796857D02*
X28163478Y-17796857D01*
X28270621Y-18189714D02*
X27913478Y-18189714D01*
X27913478Y-18189714D02*
X27913478Y-17439714D01*
X27913478Y-17439714D02*
X28270621Y-17439714D01*
X28556335Y-18154000D02*
X28663478Y-18189714D01*
X28663478Y-18189714D02*
X28842049Y-18189714D01*
X28842049Y-18189714D02*
X28913478Y-18154000D01*
X28913478Y-18154000D02*
X28949192Y-18118285D01*
X28949192Y-18118285D02*
X28984906Y-18046857D01*
X28984906Y-18046857D02*
X28984906Y-17975428D01*
X28984906Y-17975428D02*
X28949192Y-17904000D01*
X28949192Y-17904000D02*
X28913478Y-17868285D01*
X28913478Y-17868285D02*
X28842049Y-17832571D01*
X28842049Y-17832571D02*
X28699192Y-17796857D01*
X28699192Y-17796857D02*
X28627763Y-17761142D01*
X28627763Y-17761142D02*
X28592049Y-17725428D01*
X28592049Y-17725428D02*
X28556335Y-17654000D01*
X28556335Y-17654000D02*
X28556335Y-17582571D01*
X28556335Y-17582571D02*
X28592049Y-17511142D01*
X28592049Y-17511142D02*
X28627763Y-17475428D01*
X28627763Y-17475428D02*
X28699192Y-17439714D01*
X28699192Y-17439714D02*
X28877763Y-17439714D01*
X28877763Y-17439714D02*
X28984906Y-17475428D01*
X28163478Y-20729714D02*
X28163478Y-19979714D01*
X28163478Y-20336857D02*
X28592049Y-20336857D01*
X28592049Y-20729714D02*
X28592049Y-19979714D01*
X28949192Y-20729714D02*
X28949192Y-19979714D01*
X27556334Y-35898285D02*
X27520620Y-35934000D01*
X27520620Y-35934000D02*
X27413477Y-35969714D01*
X27413477Y-35969714D02*
X27342049Y-35969714D01*
X27342049Y-35969714D02*
X27234906Y-35934000D01*
X27234906Y-35934000D02*
X27163477Y-35862571D01*
X27163477Y-35862571D02*
X27127763Y-35791142D01*
X27127763Y-35791142D02*
X27092049Y-35648285D01*
X27092049Y-35648285D02*
X27092049Y-35541142D01*
X27092049Y-35541142D02*
X27127763Y-35398285D01*
X27127763Y-35398285D02*
X27163477Y-35326857D01*
X27163477Y-35326857D02*
X27234906Y-35255428D01*
X27234906Y-35255428D02*
X27342049Y-35219714D01*
X27342049Y-35219714D02*
X27413477Y-35219714D01*
X27413477Y-35219714D02*
X27520620Y-35255428D01*
X27520620Y-35255428D02*
X27556334Y-35291142D01*
X27842049Y-35934000D02*
X27949192Y-35969714D01*
X27949192Y-35969714D02*
X28127763Y-35969714D01*
X28127763Y-35969714D02*
X28199192Y-35934000D01*
X28199192Y-35934000D02*
X28234906Y-35898285D01*
X28234906Y-35898285D02*
X28270620Y-35826857D01*
X28270620Y-35826857D02*
X28270620Y-35755428D01*
X28270620Y-35755428D02*
X28234906Y-35684000D01*
X28234906Y-35684000D02*
X28199192Y-35648285D01*
X28199192Y-35648285D02*
X28127763Y-35612571D01*
X28127763Y-35612571D02*
X27984906Y-35576857D01*
X27984906Y-35576857D02*
X27913477Y-35541142D01*
X27913477Y-35541142D02*
X27877763Y-35505428D01*
X27877763Y-35505428D02*
X27842049Y-35434000D01*
X27842049Y-35434000D02*
X27842049Y-35362571D01*
X27842049Y-35362571D02*
X27877763Y-35291142D01*
X27877763Y-35291142D02*
X27913477Y-35255428D01*
X27913477Y-35255428D02*
X27984906Y-35219714D01*
X27984906Y-35219714D02*
X28163477Y-35219714D01*
X28163477Y-35219714D02*
X28270620Y-35255428D01*
X28520620Y-35219714D02*
X29020620Y-35219714D01*
X29020620Y-35219714D02*
X28699192Y-35969714D01*
X27556334Y-28278285D02*
X27520620Y-28314000D01*
X27520620Y-28314000D02*
X27413477Y-28349714D01*
X27413477Y-28349714D02*
X27342049Y-28349714D01*
X27342049Y-28349714D02*
X27234906Y-28314000D01*
X27234906Y-28314000D02*
X27163477Y-28242571D01*
X27163477Y-28242571D02*
X27127763Y-28171142D01*
X27127763Y-28171142D02*
X27092049Y-28028285D01*
X27092049Y-28028285D02*
X27092049Y-27921142D01*
X27092049Y-27921142D02*
X27127763Y-27778285D01*
X27127763Y-27778285D02*
X27163477Y-27706857D01*
X27163477Y-27706857D02*
X27234906Y-27635428D01*
X27234906Y-27635428D02*
X27342049Y-27599714D01*
X27342049Y-27599714D02*
X27413477Y-27599714D01*
X27413477Y-27599714D02*
X27520620Y-27635428D01*
X27520620Y-27635428D02*
X27556334Y-27671142D01*
X27842049Y-28314000D02*
X27949192Y-28349714D01*
X27949192Y-28349714D02*
X28127763Y-28349714D01*
X28127763Y-28349714D02*
X28199192Y-28314000D01*
X28199192Y-28314000D02*
X28234906Y-28278285D01*
X28234906Y-28278285D02*
X28270620Y-28206857D01*
X28270620Y-28206857D02*
X28270620Y-28135428D01*
X28270620Y-28135428D02*
X28234906Y-28064000D01*
X28234906Y-28064000D02*
X28199192Y-28028285D01*
X28199192Y-28028285D02*
X28127763Y-27992571D01*
X28127763Y-27992571D02*
X27984906Y-27956857D01*
X27984906Y-27956857D02*
X27913477Y-27921142D01*
X27913477Y-27921142D02*
X27877763Y-27885428D01*
X27877763Y-27885428D02*
X27842049Y-27814000D01*
X27842049Y-27814000D02*
X27842049Y-27742571D01*
X27842049Y-27742571D02*
X27877763Y-27671142D01*
X27877763Y-27671142D02*
X27913477Y-27635428D01*
X27913477Y-27635428D02*
X27984906Y-27599714D01*
X27984906Y-27599714D02*
X28163477Y-27599714D01*
X28163477Y-27599714D02*
X28270620Y-27635428D01*
X28913478Y-27849714D02*
X28913478Y-28349714D01*
X28734906Y-27564000D02*
X28556335Y-28099714D01*
X28556335Y-28099714D02*
X29020620Y-28099714D01*
X27556334Y-34120285D02*
X27520620Y-34156000D01*
X27520620Y-34156000D02*
X27413477Y-34191714D01*
X27413477Y-34191714D02*
X27342049Y-34191714D01*
X27342049Y-34191714D02*
X27234906Y-34156000D01*
X27234906Y-34156000D02*
X27163477Y-34084571D01*
X27163477Y-34084571D02*
X27127763Y-34013142D01*
X27127763Y-34013142D02*
X27092049Y-33870285D01*
X27092049Y-33870285D02*
X27092049Y-33763142D01*
X27092049Y-33763142D02*
X27127763Y-33620285D01*
X27127763Y-33620285D02*
X27163477Y-33548857D01*
X27163477Y-33548857D02*
X27234906Y-33477428D01*
X27234906Y-33477428D02*
X27342049Y-33441714D01*
X27342049Y-33441714D02*
X27413477Y-33441714D01*
X27413477Y-33441714D02*
X27520620Y-33477428D01*
X27520620Y-33477428D02*
X27556334Y-33513142D01*
X27842049Y-34156000D02*
X27949192Y-34191714D01*
X27949192Y-34191714D02*
X28127763Y-34191714D01*
X28127763Y-34191714D02*
X28199192Y-34156000D01*
X28199192Y-34156000D02*
X28234906Y-34120285D01*
X28234906Y-34120285D02*
X28270620Y-34048857D01*
X28270620Y-34048857D02*
X28270620Y-33977428D01*
X28270620Y-33977428D02*
X28234906Y-33906000D01*
X28234906Y-33906000D02*
X28199192Y-33870285D01*
X28199192Y-33870285D02*
X28127763Y-33834571D01*
X28127763Y-33834571D02*
X27984906Y-33798857D01*
X27984906Y-33798857D02*
X27913477Y-33763142D01*
X27913477Y-33763142D02*
X27877763Y-33727428D01*
X27877763Y-33727428D02*
X27842049Y-33656000D01*
X27842049Y-33656000D02*
X27842049Y-33584571D01*
X27842049Y-33584571D02*
X27877763Y-33513142D01*
X27877763Y-33513142D02*
X27913477Y-33477428D01*
X27913477Y-33477428D02*
X27984906Y-33441714D01*
X27984906Y-33441714D02*
X28163477Y-33441714D01*
X28163477Y-33441714D02*
X28270620Y-33477428D01*
X28913478Y-33441714D02*
X28770620Y-33441714D01*
X28770620Y-33441714D02*
X28699192Y-33477428D01*
X28699192Y-33477428D02*
X28663478Y-33513142D01*
X28663478Y-33513142D02*
X28592049Y-33620285D01*
X28592049Y-33620285D02*
X28556335Y-33763142D01*
X28556335Y-33763142D02*
X28556335Y-34048857D01*
X28556335Y-34048857D02*
X28592049Y-34120285D01*
X28592049Y-34120285D02*
X28627763Y-34156000D01*
X28627763Y-34156000D02*
X28699192Y-34191714D01*
X28699192Y-34191714D02*
X28842049Y-34191714D01*
X28842049Y-34191714D02*
X28913478Y-34156000D01*
X28913478Y-34156000D02*
X28949192Y-34120285D01*
X28949192Y-34120285D02*
X28984906Y-34048857D01*
X28984906Y-34048857D02*
X28984906Y-33870285D01*
X28984906Y-33870285D02*
X28949192Y-33798857D01*
X28949192Y-33798857D02*
X28913478Y-33763142D01*
X28913478Y-33763142D02*
X28842049Y-33727428D01*
X28842049Y-33727428D02*
X28699192Y-33727428D01*
X28699192Y-33727428D02*
X28627763Y-33763142D01*
X28627763Y-33763142D02*
X28592049Y-33798857D01*
X28592049Y-33798857D02*
X28556335Y-33870285D01*
X27556334Y-29802285D02*
X27520620Y-29838000D01*
X27520620Y-29838000D02*
X27413477Y-29873714D01*
X27413477Y-29873714D02*
X27342049Y-29873714D01*
X27342049Y-29873714D02*
X27234906Y-29838000D01*
X27234906Y-29838000D02*
X27163477Y-29766571D01*
X27163477Y-29766571D02*
X27127763Y-29695142D01*
X27127763Y-29695142D02*
X27092049Y-29552285D01*
X27092049Y-29552285D02*
X27092049Y-29445142D01*
X27092049Y-29445142D02*
X27127763Y-29302285D01*
X27127763Y-29302285D02*
X27163477Y-29230857D01*
X27163477Y-29230857D02*
X27234906Y-29159428D01*
X27234906Y-29159428D02*
X27342049Y-29123714D01*
X27342049Y-29123714D02*
X27413477Y-29123714D01*
X27413477Y-29123714D02*
X27520620Y-29159428D01*
X27520620Y-29159428D02*
X27556334Y-29195142D01*
X27842049Y-29838000D02*
X27949192Y-29873714D01*
X27949192Y-29873714D02*
X28127763Y-29873714D01*
X28127763Y-29873714D02*
X28199192Y-29838000D01*
X28199192Y-29838000D02*
X28234906Y-29802285D01*
X28234906Y-29802285D02*
X28270620Y-29730857D01*
X28270620Y-29730857D02*
X28270620Y-29659428D01*
X28270620Y-29659428D02*
X28234906Y-29588000D01*
X28234906Y-29588000D02*
X28199192Y-29552285D01*
X28199192Y-29552285D02*
X28127763Y-29516571D01*
X28127763Y-29516571D02*
X27984906Y-29480857D01*
X27984906Y-29480857D02*
X27913477Y-29445142D01*
X27913477Y-29445142D02*
X27877763Y-29409428D01*
X27877763Y-29409428D02*
X27842049Y-29338000D01*
X27842049Y-29338000D02*
X27842049Y-29266571D01*
X27842049Y-29266571D02*
X27877763Y-29195142D01*
X27877763Y-29195142D02*
X27913477Y-29159428D01*
X27913477Y-29159428D02*
X27984906Y-29123714D01*
X27984906Y-29123714D02*
X28163477Y-29123714D01*
X28163477Y-29123714D02*
X28270620Y-29159428D01*
X28949192Y-29123714D02*
X28592049Y-29123714D01*
X28592049Y-29123714D02*
X28556335Y-29480857D01*
X28556335Y-29480857D02*
X28592049Y-29445142D01*
X28592049Y-29445142D02*
X28663478Y-29409428D01*
X28663478Y-29409428D02*
X28842049Y-29409428D01*
X28842049Y-29409428D02*
X28913478Y-29445142D01*
X28913478Y-29445142D02*
X28949192Y-29480857D01*
X28949192Y-29480857D02*
X28984906Y-29552285D01*
X28984906Y-29552285D02*
X28984906Y-29730857D01*
X28984906Y-29730857D02*
X28949192Y-29802285D01*
X28949192Y-29802285D02*
X28913478Y-29838000D01*
X28913478Y-29838000D02*
X28842049Y-29873714D01*
X28842049Y-29873714D02*
X28663478Y-29873714D01*
X28663478Y-29873714D02*
X28592049Y-29838000D01*
X28592049Y-29838000D02*
X28556335Y-29802285D01*
X27556334Y-38438285D02*
X27520620Y-38474000D01*
X27520620Y-38474000D02*
X27413477Y-38509714D01*
X27413477Y-38509714D02*
X27342049Y-38509714D01*
X27342049Y-38509714D02*
X27234906Y-38474000D01*
X27234906Y-38474000D02*
X27163477Y-38402571D01*
X27163477Y-38402571D02*
X27127763Y-38331142D01*
X27127763Y-38331142D02*
X27092049Y-38188285D01*
X27092049Y-38188285D02*
X27092049Y-38081142D01*
X27092049Y-38081142D02*
X27127763Y-37938285D01*
X27127763Y-37938285D02*
X27163477Y-37866857D01*
X27163477Y-37866857D02*
X27234906Y-37795428D01*
X27234906Y-37795428D02*
X27342049Y-37759714D01*
X27342049Y-37759714D02*
X27413477Y-37759714D01*
X27413477Y-37759714D02*
X27520620Y-37795428D01*
X27520620Y-37795428D02*
X27556334Y-37831142D01*
X27842049Y-38474000D02*
X27949192Y-38509714D01*
X27949192Y-38509714D02*
X28127763Y-38509714D01*
X28127763Y-38509714D02*
X28199192Y-38474000D01*
X28199192Y-38474000D02*
X28234906Y-38438285D01*
X28234906Y-38438285D02*
X28270620Y-38366857D01*
X28270620Y-38366857D02*
X28270620Y-38295428D01*
X28270620Y-38295428D02*
X28234906Y-38224000D01*
X28234906Y-38224000D02*
X28199192Y-38188285D01*
X28199192Y-38188285D02*
X28127763Y-38152571D01*
X28127763Y-38152571D02*
X27984906Y-38116857D01*
X27984906Y-38116857D02*
X27913477Y-38081142D01*
X27913477Y-38081142D02*
X27877763Y-38045428D01*
X27877763Y-38045428D02*
X27842049Y-37974000D01*
X27842049Y-37974000D02*
X27842049Y-37902571D01*
X27842049Y-37902571D02*
X27877763Y-37831142D01*
X27877763Y-37831142D02*
X27913477Y-37795428D01*
X27913477Y-37795428D02*
X27984906Y-37759714D01*
X27984906Y-37759714D02*
X28163477Y-37759714D01*
X28163477Y-37759714D02*
X28270620Y-37795428D01*
X28699192Y-38081142D02*
X28627763Y-38045428D01*
X28627763Y-38045428D02*
X28592049Y-38009714D01*
X28592049Y-38009714D02*
X28556335Y-37938285D01*
X28556335Y-37938285D02*
X28556335Y-37902571D01*
X28556335Y-37902571D02*
X28592049Y-37831142D01*
X28592049Y-37831142D02*
X28627763Y-37795428D01*
X28627763Y-37795428D02*
X28699192Y-37759714D01*
X28699192Y-37759714D02*
X28842049Y-37759714D01*
X28842049Y-37759714D02*
X28913478Y-37795428D01*
X28913478Y-37795428D02*
X28949192Y-37831142D01*
X28949192Y-37831142D02*
X28984906Y-37902571D01*
X28984906Y-37902571D02*
X28984906Y-37938285D01*
X28984906Y-37938285D02*
X28949192Y-38009714D01*
X28949192Y-38009714D02*
X28913478Y-38045428D01*
X28913478Y-38045428D02*
X28842049Y-38081142D01*
X28842049Y-38081142D02*
X28699192Y-38081142D01*
X28699192Y-38081142D02*
X28627763Y-38116857D01*
X28627763Y-38116857D02*
X28592049Y-38152571D01*
X28592049Y-38152571D02*
X28556335Y-38224000D01*
X28556335Y-38224000D02*
X28556335Y-38366857D01*
X28556335Y-38366857D02*
X28592049Y-38438285D01*
X28592049Y-38438285D02*
X28627763Y-38474000D01*
X28627763Y-38474000D02*
X28699192Y-38509714D01*
X28699192Y-38509714D02*
X28842049Y-38509714D01*
X28842049Y-38509714D02*
X28913478Y-38474000D01*
X28913478Y-38474000D02*
X28949192Y-38438285D01*
X28949192Y-38438285D02*
X28984906Y-38366857D01*
X28984906Y-38366857D02*
X28984906Y-38224000D01*
X28984906Y-38224000D02*
X28949192Y-38152571D01*
X28949192Y-38152571D02*
X28913478Y-38116857D01*
X28913478Y-38116857D02*
X28842049Y-38081142D01*
X27556334Y-40978285D02*
X27520620Y-41014000D01*
X27520620Y-41014000D02*
X27413477Y-41049714D01*
X27413477Y-41049714D02*
X27342049Y-41049714D01*
X27342049Y-41049714D02*
X27234906Y-41014000D01*
X27234906Y-41014000D02*
X27163477Y-40942571D01*
X27163477Y-40942571D02*
X27127763Y-40871142D01*
X27127763Y-40871142D02*
X27092049Y-40728285D01*
X27092049Y-40728285D02*
X27092049Y-40621142D01*
X27092049Y-40621142D02*
X27127763Y-40478285D01*
X27127763Y-40478285D02*
X27163477Y-40406857D01*
X27163477Y-40406857D02*
X27234906Y-40335428D01*
X27234906Y-40335428D02*
X27342049Y-40299714D01*
X27342049Y-40299714D02*
X27413477Y-40299714D01*
X27413477Y-40299714D02*
X27520620Y-40335428D01*
X27520620Y-40335428D02*
X27556334Y-40371142D01*
X27842049Y-41014000D02*
X27949192Y-41049714D01*
X27949192Y-41049714D02*
X28127763Y-41049714D01*
X28127763Y-41049714D02*
X28199192Y-41014000D01*
X28199192Y-41014000D02*
X28234906Y-40978285D01*
X28234906Y-40978285D02*
X28270620Y-40906857D01*
X28270620Y-40906857D02*
X28270620Y-40835428D01*
X28270620Y-40835428D02*
X28234906Y-40764000D01*
X28234906Y-40764000D02*
X28199192Y-40728285D01*
X28199192Y-40728285D02*
X28127763Y-40692571D01*
X28127763Y-40692571D02*
X27984906Y-40656857D01*
X27984906Y-40656857D02*
X27913477Y-40621142D01*
X27913477Y-40621142D02*
X27877763Y-40585428D01*
X27877763Y-40585428D02*
X27842049Y-40514000D01*
X27842049Y-40514000D02*
X27842049Y-40442571D01*
X27842049Y-40442571D02*
X27877763Y-40371142D01*
X27877763Y-40371142D02*
X27913477Y-40335428D01*
X27913477Y-40335428D02*
X27984906Y-40299714D01*
X27984906Y-40299714D02*
X28163477Y-40299714D01*
X28163477Y-40299714D02*
X28270620Y-40335428D01*
X28627763Y-41049714D02*
X28770620Y-41049714D01*
X28770620Y-41049714D02*
X28842049Y-41014000D01*
X28842049Y-41014000D02*
X28877763Y-40978285D01*
X28877763Y-40978285D02*
X28949192Y-40871142D01*
X28949192Y-40871142D02*
X28984906Y-40728285D01*
X28984906Y-40728285D02*
X28984906Y-40442571D01*
X28984906Y-40442571D02*
X28949192Y-40371142D01*
X28949192Y-40371142D02*
X28913478Y-40335428D01*
X28913478Y-40335428D02*
X28842049Y-40299714D01*
X28842049Y-40299714D02*
X28699192Y-40299714D01*
X28699192Y-40299714D02*
X28627763Y-40335428D01*
X28627763Y-40335428D02*
X28592049Y-40371142D01*
X28592049Y-40371142D02*
X28556335Y-40442571D01*
X28556335Y-40442571D02*
X28556335Y-40621142D01*
X28556335Y-40621142D02*
X28592049Y-40692571D01*
X28592049Y-40692571D02*
X28627763Y-40728285D01*
X28627763Y-40728285D02*
X28699192Y-40764000D01*
X28699192Y-40764000D02*
X28842049Y-40764000D01*
X28842049Y-40764000D02*
X28913478Y-40728285D01*
X28913478Y-40728285D02*
X28949192Y-40692571D01*
X28949192Y-40692571D02*
X28984906Y-40621142D01*
D10*
G36*
X26154744Y-43724347D02*
G01*
X24713439Y-43724347D01*
X24713439Y-43058845D01*
X24796772Y-43058845D01*
X24813886Y-43093073D01*
X24850191Y-43105174D01*
X24869007Y-43100021D01*
X24940435Y-43064306D01*
X24946763Y-43059394D01*
X24953429Y-43054941D01*
X25010931Y-42997439D01*
X25010931Y-43541014D01*
X24846646Y-43541014D01*
X24827512Y-43544820D01*
X24800452Y-43571880D01*
X24800452Y-43610148D01*
X24827512Y-43637208D01*
X24846646Y-43641014D01*
X25275217Y-43641014D01*
X25294351Y-43637208D01*
X25321411Y-43610148D01*
X25321411Y-43571880D01*
X25294351Y-43544820D01*
X25275217Y-43541014D01*
X25110931Y-43541014D01*
X25110931Y-43344558D01*
X25511058Y-43344558D01*
X25514738Y-43351918D01*
X25514738Y-43360148D01*
X25522967Y-43368377D01*
X25528172Y-43378787D01*
X25535979Y-43381389D01*
X25541798Y-43387208D01*
X25560932Y-43391014D01*
X25868075Y-43391014D01*
X25868075Y-43591014D01*
X25871881Y-43610148D01*
X25898941Y-43637208D01*
X25937209Y-43637208D01*
X25964269Y-43610148D01*
X25968075Y-43591014D01*
X25968075Y-43391014D01*
X26025217Y-43391014D01*
X26044351Y-43387208D01*
X26071411Y-43360148D01*
X26071411Y-43321880D01*
X26044351Y-43294820D01*
X26025217Y-43291014D01*
X25968075Y-43291014D01*
X25968075Y-43091014D01*
X25964269Y-43071880D01*
X25937209Y-43044820D01*
X25898941Y-43044820D01*
X25871881Y-43071880D01*
X25868075Y-43091014D01*
X25868075Y-43291014D01*
X25630303Y-43291014D01*
X25786937Y-42821111D01*
X25789377Y-42801756D01*
X25772263Y-42767527D01*
X25735959Y-42755426D01*
X25701730Y-42772540D01*
X25692069Y-42789489D01*
X25513498Y-43325203D01*
X25511058Y-43344558D01*
X25110931Y-43344558D01*
X25110931Y-42841014D01*
X25107125Y-42821880D01*
X25103484Y-42818239D01*
X25102475Y-42813192D01*
X25090361Y-42805116D01*
X25080065Y-42794820D01*
X25074917Y-42794820D01*
X25070634Y-42791965D01*
X25056359Y-42794820D01*
X25041797Y-42794820D01*
X25038156Y-42798460D01*
X25033108Y-42799470D01*
X25019328Y-42813280D01*
X24950644Y-42916305D01*
X24888456Y-42978492D01*
X24824285Y-43010579D01*
X24808873Y-43022540D01*
X24796772Y-43058845D01*
X24713439Y-43058845D01*
X24713439Y-42672093D01*
X26154744Y-42672093D01*
X26154744Y-43724347D01*
G37*
D11*
X26842048Y-43518285D02*
X26806334Y-43554000D01*
X26806334Y-43554000D02*
X26699191Y-43589714D01*
X26699191Y-43589714D02*
X26627763Y-43589714D01*
X26627763Y-43589714D02*
X26520620Y-43554000D01*
X26520620Y-43554000D02*
X26449191Y-43482571D01*
X26449191Y-43482571D02*
X26413477Y-43411142D01*
X26413477Y-43411142D02*
X26377763Y-43268285D01*
X26377763Y-43268285D02*
X26377763Y-43161142D01*
X26377763Y-43161142D02*
X26413477Y-43018285D01*
X26413477Y-43018285D02*
X26449191Y-42946857D01*
X26449191Y-42946857D02*
X26520620Y-42875428D01*
X26520620Y-42875428D02*
X26627763Y-42839714D01*
X26627763Y-42839714D02*
X26699191Y-42839714D01*
X26699191Y-42839714D02*
X26806334Y-42875428D01*
X26806334Y-42875428D02*
X26842048Y-42911142D01*
X27127763Y-43554000D02*
X27234906Y-43589714D01*
X27234906Y-43589714D02*
X27413477Y-43589714D01*
X27413477Y-43589714D02*
X27484906Y-43554000D01*
X27484906Y-43554000D02*
X27520620Y-43518285D01*
X27520620Y-43518285D02*
X27556334Y-43446857D01*
X27556334Y-43446857D02*
X27556334Y-43375428D01*
X27556334Y-43375428D02*
X27520620Y-43304000D01*
X27520620Y-43304000D02*
X27484906Y-43268285D01*
X27484906Y-43268285D02*
X27413477Y-43232571D01*
X27413477Y-43232571D02*
X27270620Y-43196857D01*
X27270620Y-43196857D02*
X27199191Y-43161142D01*
X27199191Y-43161142D02*
X27163477Y-43125428D01*
X27163477Y-43125428D02*
X27127763Y-43054000D01*
X27127763Y-43054000D02*
X27127763Y-42982571D01*
X27127763Y-42982571D02*
X27163477Y-42911142D01*
X27163477Y-42911142D02*
X27199191Y-42875428D01*
X27199191Y-42875428D02*
X27270620Y-42839714D01*
X27270620Y-42839714D02*
X27449191Y-42839714D01*
X27449191Y-42839714D02*
X27556334Y-42875428D01*
X28270620Y-43589714D02*
X27842049Y-43589714D01*
X28056334Y-43589714D02*
X28056334Y-42839714D01*
X28056334Y-42839714D02*
X27984906Y-42946857D01*
X27984906Y-42946857D02*
X27913477Y-43018285D01*
X27913477Y-43018285D02*
X27842049Y-43054000D01*
X28734906Y-42839714D02*
X28806335Y-42839714D01*
X28806335Y-42839714D02*
X28877763Y-42875428D01*
X28877763Y-42875428D02*
X28913478Y-42911142D01*
X28913478Y-42911142D02*
X28949192Y-42982571D01*
X28949192Y-42982571D02*
X28984906Y-43125428D01*
X28984906Y-43125428D02*
X28984906Y-43304000D01*
X28984906Y-43304000D02*
X28949192Y-43446857D01*
X28949192Y-43446857D02*
X28913478Y-43518285D01*
X28913478Y-43518285D02*
X28877763Y-43554000D01*
X28877763Y-43554000D02*
X28806335Y-43589714D01*
X28806335Y-43589714D02*
X28734906Y-43589714D01*
X28734906Y-43589714D02*
X28663478Y-43554000D01*
X28663478Y-43554000D02*
X28627763Y-43518285D01*
X28627763Y-43518285D02*
X28592049Y-43446857D01*
X28592049Y-43446857D02*
X28556335Y-43304000D01*
X28556335Y-43304000D02*
X28556335Y-43125428D01*
X28556335Y-43125428D02*
X28592049Y-42982571D01*
X28592049Y-42982571D02*
X28627763Y-42911142D01*
X28627763Y-42911142D02*
X28663478Y-42875428D01*
X28663478Y-42875428D02*
X28734906Y-42839714D01*
X26842048Y-46058285D02*
X26806334Y-46094000D01*
X26806334Y-46094000D02*
X26699191Y-46129714D01*
X26699191Y-46129714D02*
X26627763Y-46129714D01*
X26627763Y-46129714D02*
X26520620Y-46094000D01*
X26520620Y-46094000D02*
X26449191Y-46022571D01*
X26449191Y-46022571D02*
X26413477Y-45951142D01*
X26413477Y-45951142D02*
X26377763Y-45808285D01*
X26377763Y-45808285D02*
X26377763Y-45701142D01*
X26377763Y-45701142D02*
X26413477Y-45558285D01*
X26413477Y-45558285D02*
X26449191Y-45486857D01*
X26449191Y-45486857D02*
X26520620Y-45415428D01*
X26520620Y-45415428D02*
X26627763Y-45379714D01*
X26627763Y-45379714D02*
X26699191Y-45379714D01*
X26699191Y-45379714D02*
X26806334Y-45415428D01*
X26806334Y-45415428D02*
X26842048Y-45451142D01*
X27127763Y-46094000D02*
X27234906Y-46129714D01*
X27234906Y-46129714D02*
X27413477Y-46129714D01*
X27413477Y-46129714D02*
X27484906Y-46094000D01*
X27484906Y-46094000D02*
X27520620Y-46058285D01*
X27520620Y-46058285D02*
X27556334Y-45986857D01*
X27556334Y-45986857D02*
X27556334Y-45915428D01*
X27556334Y-45915428D02*
X27520620Y-45844000D01*
X27520620Y-45844000D02*
X27484906Y-45808285D01*
X27484906Y-45808285D02*
X27413477Y-45772571D01*
X27413477Y-45772571D02*
X27270620Y-45736857D01*
X27270620Y-45736857D02*
X27199191Y-45701142D01*
X27199191Y-45701142D02*
X27163477Y-45665428D01*
X27163477Y-45665428D02*
X27127763Y-45594000D01*
X27127763Y-45594000D02*
X27127763Y-45522571D01*
X27127763Y-45522571D02*
X27163477Y-45451142D01*
X27163477Y-45451142D02*
X27199191Y-45415428D01*
X27199191Y-45415428D02*
X27270620Y-45379714D01*
X27270620Y-45379714D02*
X27449191Y-45379714D01*
X27449191Y-45379714D02*
X27556334Y-45415428D01*
X28270620Y-46129714D02*
X27842049Y-46129714D01*
X28056334Y-46129714D02*
X28056334Y-45379714D01*
X28056334Y-45379714D02*
X27984906Y-45486857D01*
X27984906Y-45486857D02*
X27913477Y-45558285D01*
X27913477Y-45558285D02*
X27842049Y-45594000D01*
X28984906Y-46129714D02*
X28556335Y-46129714D01*
X28770620Y-46129714D02*
X28770620Y-45379714D01*
X28770620Y-45379714D02*
X28699192Y-45486857D01*
X28699192Y-45486857D02*
X28627763Y-45558285D01*
X28627763Y-45558285D02*
X28556335Y-45594000D01*
D10*
G36*
X23836836Y-46264347D02*
G01*
X22427439Y-46264347D01*
X22427439Y-45598845D01*
X22510772Y-45598845D01*
X22527886Y-45633073D01*
X22564191Y-45645174D01*
X22583007Y-45640021D01*
X22654435Y-45604306D01*
X22660763Y-45599394D01*
X22667429Y-45594941D01*
X22724931Y-45537439D01*
X22724931Y-46081014D01*
X22560646Y-46081014D01*
X22541512Y-46084820D01*
X22514452Y-46111880D01*
X22514452Y-46150148D01*
X22541512Y-46177208D01*
X22560646Y-46181014D01*
X22989217Y-46181014D01*
X23008351Y-46177208D01*
X23035411Y-46150148D01*
X23035411Y-46111880D01*
X23193023Y-46111880D01*
X23193023Y-46150148D01*
X23220083Y-46177208D01*
X23239217Y-46181014D01*
X23703503Y-46181014D01*
X23722637Y-46177208D01*
X23749697Y-46150148D01*
X23749697Y-46111880D01*
X23722637Y-46084820D01*
X23703503Y-46081014D01*
X23359927Y-46081014D01*
X23703144Y-45737798D01*
X23704535Y-45735715D01*
X23705562Y-45735202D01*
X23709528Y-45728243D01*
X23713983Y-45721577D01*
X23713983Y-45720428D01*
X23715223Y-45718253D01*
X23750937Y-45611111D01*
X23751938Y-45603163D01*
X23753503Y-45595300D01*
X23753503Y-45523871D01*
X23753014Y-45521414D01*
X23753377Y-45520327D01*
X23751260Y-45512597D01*
X23749697Y-45504737D01*
X23748886Y-45503926D01*
X23748225Y-45501511D01*
X23712510Y-45430082D01*
X23707598Y-45423753D01*
X23703144Y-45417087D01*
X23667430Y-45381373D01*
X23660770Y-45376922D01*
X23654436Y-45372007D01*
X23583006Y-45336293D01*
X23580591Y-45335631D01*
X23579780Y-45334820D01*
X23571914Y-45333255D01*
X23564190Y-45331140D01*
X23563102Y-45331502D01*
X23560646Y-45331014D01*
X23382075Y-45331014D01*
X23379618Y-45331502D01*
X23378531Y-45331140D01*
X23370801Y-45333256D01*
X23362941Y-45334820D01*
X23362130Y-45335630D01*
X23359715Y-45336292D01*
X23288286Y-45372007D01*
X23281957Y-45376918D01*
X23275291Y-45381373D01*
X23239577Y-45417087D01*
X23228738Y-45433308D01*
X23228738Y-45471576D01*
X23255798Y-45498636D01*
X23294066Y-45498636D01*
X23310287Y-45487797D01*
X23340263Y-45457820D01*
X23393878Y-45431014D01*
X23548844Y-45431014D01*
X23602458Y-45457821D01*
X23626696Y-45482059D01*
X23653503Y-45535673D01*
X23653503Y-45587186D01*
X23624087Y-45675432D01*
X23203862Y-46095659D01*
X23193023Y-46111880D01*
X23035411Y-46111880D01*
X23008351Y-46084820D01*
X22989217Y-46081014D01*
X22824931Y-46081014D01*
X22824931Y-45381014D01*
X22821125Y-45361880D01*
X22817484Y-45358239D01*
X22816475Y-45353192D01*
X22804361Y-45345116D01*
X22794065Y-45334820D01*
X22788917Y-45334820D01*
X22784634Y-45331965D01*
X22770359Y-45334820D01*
X22755797Y-45334820D01*
X22752156Y-45338460D01*
X22747108Y-45339470D01*
X22733328Y-45353280D01*
X22664644Y-45456305D01*
X22602456Y-45518492D01*
X22538285Y-45550579D01*
X22522873Y-45562540D01*
X22510772Y-45598845D01*
X22427439Y-45598845D01*
X22427439Y-45247681D01*
X23836836Y-45247681D01*
X23836836Y-46264347D01*
G37*
G36*
X23312741Y-40377820D02*
G01*
X23336983Y-40402062D01*
X23366612Y-40461321D01*
X23399503Y-40592882D01*
X23399503Y-40759145D01*
X23366612Y-40890706D01*
X23336982Y-40949966D01*
X23312742Y-40974207D01*
X23259129Y-41001014D01*
X23211306Y-41001014D01*
X23157693Y-40974207D01*
X23133452Y-40949967D01*
X23103821Y-40890705D01*
X23070932Y-40759145D01*
X23070932Y-40592882D01*
X23103822Y-40461321D01*
X23133452Y-40402060D01*
X23157693Y-40377820D01*
X23211306Y-40351014D01*
X23259129Y-40351014D01*
X23312741Y-40377820D01*
G37*
G36*
X23582836Y-41184347D02*
G01*
X22173439Y-41184347D01*
X22173439Y-40518845D01*
X22256772Y-40518845D01*
X22273886Y-40553073D01*
X22310191Y-40565174D01*
X22329007Y-40560021D01*
X22400435Y-40524306D01*
X22406763Y-40519394D01*
X22413429Y-40514941D01*
X22470931Y-40457439D01*
X22470931Y-41001014D01*
X22306646Y-41001014D01*
X22287512Y-41004820D01*
X22260452Y-41031880D01*
X22260452Y-41070148D01*
X22287512Y-41097208D01*
X22306646Y-41101014D01*
X22735217Y-41101014D01*
X22754351Y-41097208D01*
X22781411Y-41070148D01*
X22781411Y-41031880D01*
X22754351Y-41004820D01*
X22735217Y-41001014D01*
X22570931Y-41001014D01*
X22570931Y-40586728D01*
X22970932Y-40586728D01*
X22970932Y-40765300D01*
X22972127Y-40771309D01*
X22972425Y-40777427D01*
X23008139Y-40920284D01*
X23010478Y-40925236D01*
X23011925Y-40930518D01*
X23047639Y-41001946D01*
X23052554Y-41008280D01*
X23057005Y-41014940D01*
X23092720Y-41050656D01*
X23099385Y-41055109D01*
X23105714Y-41060021D01*
X23177142Y-41095735D01*
X23179557Y-41096396D01*
X23180369Y-41097208D01*
X23188230Y-41098771D01*
X23195958Y-41100888D01*
X23197046Y-41100525D01*
X23199503Y-41101014D01*
X23270932Y-41101014D01*
X23273388Y-41100525D01*
X23274477Y-41100888D01*
X23282204Y-41098771D01*
X23290066Y-41097208D01*
X23290877Y-41096396D01*
X23293293Y-41095735D01*
X23364721Y-41060021D01*
X23371055Y-41055105D01*
X23377715Y-41050655D01*
X23413431Y-41014940D01*
X23417884Y-41008274D01*
X23422796Y-41001946D01*
X23458510Y-40930518D01*
X23459956Y-40925236D01*
X23462296Y-40920284D01*
X23498010Y-40777426D01*
X23498307Y-40771307D01*
X23499503Y-40765300D01*
X23499503Y-40586728D01*
X23498307Y-40580720D01*
X23498010Y-40574602D01*
X23462296Y-40431744D01*
X23459957Y-40426794D01*
X23458511Y-40421511D01*
X23422796Y-40350082D01*
X23417889Y-40343760D01*
X23413430Y-40337086D01*
X23377715Y-40301372D01*
X23371049Y-40296918D01*
X23364721Y-40292007D01*
X23293293Y-40256293D01*
X23290877Y-40255631D01*
X23290066Y-40254820D01*
X23282204Y-40253256D01*
X23274477Y-40251140D01*
X23273388Y-40251502D01*
X23270932Y-40251014D01*
X23199503Y-40251014D01*
X23197046Y-40251502D01*
X23195958Y-40251140D01*
X23188230Y-40253256D01*
X23180369Y-40254820D01*
X23179557Y-40255631D01*
X23177142Y-40256293D01*
X23105714Y-40292007D01*
X23099385Y-40296918D01*
X23092720Y-40301372D01*
X23057005Y-40337086D01*
X23052550Y-40343752D01*
X23047639Y-40350081D01*
X23011925Y-40421511D01*
X23010479Y-40426789D01*
X23008139Y-40431744D01*
X22972425Y-40574601D01*
X22972127Y-40580718D01*
X22970932Y-40586728D01*
X22570931Y-40586728D01*
X22570931Y-40301014D01*
X22567125Y-40281880D01*
X22563484Y-40278239D01*
X22562475Y-40273192D01*
X22550361Y-40265116D01*
X22540065Y-40254820D01*
X22534917Y-40254820D01*
X22530634Y-40251965D01*
X22516359Y-40254820D01*
X22501797Y-40254820D01*
X22498156Y-40258460D01*
X22493108Y-40259470D01*
X22479328Y-40273280D01*
X22410644Y-40376305D01*
X22348456Y-40438492D01*
X22284285Y-40470579D01*
X22268873Y-40482540D01*
X22256772Y-40518845D01*
X22173439Y-40518845D01*
X22173439Y-40167681D01*
X23582836Y-40167681D01*
X23582836Y-41184347D01*
G37*
D11*
X19739378Y-46058285D02*
X19703664Y-46094000D01*
X19703664Y-46094000D02*
X19596521Y-46129714D01*
X19596521Y-46129714D02*
X19525093Y-46129714D01*
X19525093Y-46129714D02*
X19417950Y-46094000D01*
X19417950Y-46094000D02*
X19346521Y-46022571D01*
X19346521Y-46022571D02*
X19310807Y-45951142D01*
X19310807Y-45951142D02*
X19275093Y-45808285D01*
X19275093Y-45808285D02*
X19275093Y-45701142D01*
X19275093Y-45701142D02*
X19310807Y-45558285D01*
X19310807Y-45558285D02*
X19346521Y-45486857D01*
X19346521Y-45486857D02*
X19417950Y-45415428D01*
X19417950Y-45415428D02*
X19525093Y-45379714D01*
X19525093Y-45379714D02*
X19596521Y-45379714D01*
X19596521Y-45379714D02*
X19703664Y-45415428D01*
X19703664Y-45415428D02*
X19739378Y-45451142D01*
X20025093Y-46094000D02*
X20132236Y-46129714D01*
X20132236Y-46129714D02*
X20310807Y-46129714D01*
X20310807Y-46129714D02*
X20382236Y-46094000D01*
X20382236Y-46094000D02*
X20417950Y-46058285D01*
X20417950Y-46058285D02*
X20453664Y-45986857D01*
X20453664Y-45986857D02*
X20453664Y-45915428D01*
X20453664Y-45915428D02*
X20417950Y-45844000D01*
X20417950Y-45844000D02*
X20382236Y-45808285D01*
X20382236Y-45808285D02*
X20310807Y-45772571D01*
X20310807Y-45772571D02*
X20167950Y-45736857D01*
X20167950Y-45736857D02*
X20096521Y-45701142D01*
X20096521Y-45701142D02*
X20060807Y-45665428D01*
X20060807Y-45665428D02*
X20025093Y-45594000D01*
X20025093Y-45594000D02*
X20025093Y-45522571D01*
X20025093Y-45522571D02*
X20060807Y-45451142D01*
X20060807Y-45451142D02*
X20096521Y-45415428D01*
X20096521Y-45415428D02*
X20167950Y-45379714D01*
X20167950Y-45379714D02*
X20346521Y-45379714D01*
X20346521Y-45379714D02*
X20453664Y-45415428D01*
X21167950Y-46129714D02*
X20739379Y-46129714D01*
X20953664Y-46129714D02*
X20953664Y-45379714D01*
X20953664Y-45379714D02*
X20882236Y-45486857D01*
X20882236Y-45486857D02*
X20810807Y-45558285D01*
X20810807Y-45558285D02*
X20739379Y-45594000D01*
X21453665Y-45451142D02*
X21489379Y-45415428D01*
X21489379Y-45415428D02*
X21560808Y-45379714D01*
X21560808Y-45379714D02*
X21739379Y-45379714D01*
X21739379Y-45379714D02*
X21810808Y-45415428D01*
X21810808Y-45415428D02*
X21846522Y-45451142D01*
X21846522Y-45451142D02*
X21882236Y-45522571D01*
X21882236Y-45522571D02*
X21882236Y-45594000D01*
X21882236Y-45594000D02*
X21846522Y-45701142D01*
X21846522Y-45701142D02*
X21417950Y-46129714D01*
X21417950Y-46129714D02*
X21882236Y-46129714D01*
X19739378Y-43518285D02*
X19703664Y-43554000D01*
X19703664Y-43554000D02*
X19596521Y-43589714D01*
X19596521Y-43589714D02*
X19525093Y-43589714D01*
X19525093Y-43589714D02*
X19417950Y-43554000D01*
X19417950Y-43554000D02*
X19346521Y-43482571D01*
X19346521Y-43482571D02*
X19310807Y-43411142D01*
X19310807Y-43411142D02*
X19275093Y-43268285D01*
X19275093Y-43268285D02*
X19275093Y-43161142D01*
X19275093Y-43161142D02*
X19310807Y-43018285D01*
X19310807Y-43018285D02*
X19346521Y-42946857D01*
X19346521Y-42946857D02*
X19417950Y-42875428D01*
X19417950Y-42875428D02*
X19525093Y-42839714D01*
X19525093Y-42839714D02*
X19596521Y-42839714D01*
X19596521Y-42839714D02*
X19703664Y-42875428D01*
X19703664Y-42875428D02*
X19739378Y-42911142D01*
X20025093Y-43554000D02*
X20132236Y-43589714D01*
X20132236Y-43589714D02*
X20310807Y-43589714D01*
X20310807Y-43589714D02*
X20382236Y-43554000D01*
X20382236Y-43554000D02*
X20417950Y-43518285D01*
X20417950Y-43518285D02*
X20453664Y-43446857D01*
X20453664Y-43446857D02*
X20453664Y-43375428D01*
X20453664Y-43375428D02*
X20417950Y-43304000D01*
X20417950Y-43304000D02*
X20382236Y-43268285D01*
X20382236Y-43268285D02*
X20310807Y-43232571D01*
X20310807Y-43232571D02*
X20167950Y-43196857D01*
X20167950Y-43196857D02*
X20096521Y-43161142D01*
X20096521Y-43161142D02*
X20060807Y-43125428D01*
X20060807Y-43125428D02*
X20025093Y-43054000D01*
X20025093Y-43054000D02*
X20025093Y-42982571D01*
X20025093Y-42982571D02*
X20060807Y-42911142D01*
X20060807Y-42911142D02*
X20096521Y-42875428D01*
X20096521Y-42875428D02*
X20167950Y-42839714D01*
X20167950Y-42839714D02*
X20346521Y-42839714D01*
X20346521Y-42839714D02*
X20453664Y-42875428D01*
X21167950Y-43589714D02*
X20739379Y-43589714D01*
X20953664Y-43589714D02*
X20953664Y-42839714D01*
X20953664Y-42839714D02*
X20882236Y-42946857D01*
X20882236Y-42946857D02*
X20810807Y-43018285D01*
X20810807Y-43018285D02*
X20739379Y-43054000D01*
X21417950Y-42839714D02*
X21882236Y-42839714D01*
X21882236Y-42839714D02*
X21632236Y-43125428D01*
X21632236Y-43125428D02*
X21739379Y-43125428D01*
X21739379Y-43125428D02*
X21810808Y-43161142D01*
X21810808Y-43161142D02*
X21846522Y-43196857D01*
X21846522Y-43196857D02*
X21882236Y-43268285D01*
X21882236Y-43268285D02*
X21882236Y-43446857D01*
X21882236Y-43446857D02*
X21846522Y-43518285D01*
X21846522Y-43518285D02*
X21810808Y-43554000D01*
X21810808Y-43554000D02*
X21739379Y-43589714D01*
X21739379Y-43589714D02*
X21525093Y-43589714D01*
X21525093Y-43589714D02*
X21453665Y-43554000D01*
X21453665Y-43554000D02*
X21417950Y-43518285D01*
X19739378Y-40978285D02*
X19703664Y-41014000D01*
X19703664Y-41014000D02*
X19596521Y-41049714D01*
X19596521Y-41049714D02*
X19525093Y-41049714D01*
X19525093Y-41049714D02*
X19417950Y-41014000D01*
X19417950Y-41014000D02*
X19346521Y-40942571D01*
X19346521Y-40942571D02*
X19310807Y-40871142D01*
X19310807Y-40871142D02*
X19275093Y-40728285D01*
X19275093Y-40728285D02*
X19275093Y-40621142D01*
X19275093Y-40621142D02*
X19310807Y-40478285D01*
X19310807Y-40478285D02*
X19346521Y-40406857D01*
X19346521Y-40406857D02*
X19417950Y-40335428D01*
X19417950Y-40335428D02*
X19525093Y-40299714D01*
X19525093Y-40299714D02*
X19596521Y-40299714D01*
X19596521Y-40299714D02*
X19703664Y-40335428D01*
X19703664Y-40335428D02*
X19739378Y-40371142D01*
X20025093Y-41014000D02*
X20132236Y-41049714D01*
X20132236Y-41049714D02*
X20310807Y-41049714D01*
X20310807Y-41049714D02*
X20382236Y-41014000D01*
X20382236Y-41014000D02*
X20417950Y-40978285D01*
X20417950Y-40978285D02*
X20453664Y-40906857D01*
X20453664Y-40906857D02*
X20453664Y-40835428D01*
X20453664Y-40835428D02*
X20417950Y-40764000D01*
X20417950Y-40764000D02*
X20382236Y-40728285D01*
X20382236Y-40728285D02*
X20310807Y-40692571D01*
X20310807Y-40692571D02*
X20167950Y-40656857D01*
X20167950Y-40656857D02*
X20096521Y-40621142D01*
X20096521Y-40621142D02*
X20060807Y-40585428D01*
X20060807Y-40585428D02*
X20025093Y-40514000D01*
X20025093Y-40514000D02*
X20025093Y-40442571D01*
X20025093Y-40442571D02*
X20060807Y-40371142D01*
X20060807Y-40371142D02*
X20096521Y-40335428D01*
X20096521Y-40335428D02*
X20167950Y-40299714D01*
X20167950Y-40299714D02*
X20346521Y-40299714D01*
X20346521Y-40299714D02*
X20453664Y-40335428D01*
X21167950Y-41049714D02*
X20739379Y-41049714D01*
X20953664Y-41049714D02*
X20953664Y-40299714D01*
X20953664Y-40299714D02*
X20882236Y-40406857D01*
X20882236Y-40406857D02*
X20810807Y-40478285D01*
X20810807Y-40478285D02*
X20739379Y-40514000D01*
X21810808Y-40549714D02*
X21810808Y-41049714D01*
X21632236Y-40264000D02*
X21453665Y-40799714D01*
X21453665Y-40799714D02*
X21917950Y-40799714D01*
D10*
G36*
X21872171Y-35619249D02*
G01*
X21896410Y-35643488D01*
X21923217Y-35697102D01*
X21923217Y-35816354D01*
X21896410Y-35869966D01*
X21872170Y-35894207D01*
X21818558Y-35921014D01*
X21699306Y-35921014D01*
X21645694Y-35894208D01*
X21621452Y-35869966D01*
X21594646Y-35816354D01*
X21594646Y-35697102D01*
X21621453Y-35643487D01*
X21645691Y-35619249D01*
X21699306Y-35592442D01*
X21818557Y-35592442D01*
X21872171Y-35619249D01*
G37*
G36*
X21872172Y-35297821D02*
G01*
X21896410Y-35322059D01*
X21923217Y-35375673D01*
X21923217Y-35387782D01*
X21896410Y-35441396D01*
X21872172Y-35465634D01*
X21818558Y-35492442D01*
X21699306Y-35492442D01*
X21645691Y-35465635D01*
X21621453Y-35441397D01*
X21594646Y-35387782D01*
X21594646Y-35375673D01*
X21621453Y-35322058D01*
X21645691Y-35297820D01*
X21699306Y-35271014D01*
X21818558Y-35271014D01*
X21872172Y-35297821D01*
G37*
G36*
X22106550Y-36104347D02*
G01*
X21411313Y-36104347D01*
X21411313Y-35363871D01*
X21494646Y-35363871D01*
X21494646Y-35399585D01*
X21495134Y-35402041D01*
X21494772Y-35403129D01*
X21496887Y-35410853D01*
X21498452Y-35418719D01*
X21499263Y-35419530D01*
X21499925Y-35421945D01*
X21535639Y-35493375D01*
X21540554Y-35499709D01*
X21545005Y-35506369D01*
X21580719Y-35542083D01*
X21581257Y-35542442D01*
X21580719Y-35542802D01*
X21545005Y-35578516D01*
X21540554Y-35585175D01*
X21535639Y-35591510D01*
X21499925Y-35662940D01*
X21499263Y-35665354D01*
X21498452Y-35666166D01*
X21496887Y-35674031D01*
X21494772Y-35681756D01*
X21495134Y-35682843D01*
X21494646Y-35685300D01*
X21494646Y-35828157D01*
X21495134Y-35830613D01*
X21494772Y-35831702D01*
X21496888Y-35839429D01*
X21498452Y-35847291D01*
X21499263Y-35848102D01*
X21499925Y-35850518D01*
X21535639Y-35921946D01*
X21540550Y-35928274D01*
X21545004Y-35934940D01*
X21580718Y-35970655D01*
X21587392Y-35975114D01*
X21593714Y-35980021D01*
X21665143Y-36015736D01*
X21667558Y-36016397D01*
X21668369Y-36017208D01*
X21676229Y-36018771D01*
X21683959Y-36020888D01*
X21685046Y-36020525D01*
X21687503Y-36021014D01*
X21830360Y-36021014D01*
X21832816Y-36020525D01*
X21833904Y-36020888D01*
X21841628Y-36018772D01*
X21849494Y-36017208D01*
X21850305Y-36016396D01*
X21852720Y-36015735D01*
X21924150Y-35980021D01*
X21930478Y-35975109D01*
X21937145Y-35970655D01*
X21972859Y-35934940D01*
X21977312Y-35928274D01*
X21982224Y-35921946D01*
X22017938Y-35850518D01*
X22018599Y-35848102D01*
X22019411Y-35847291D01*
X22020974Y-35839429D01*
X22023091Y-35831702D01*
X22022728Y-35830613D01*
X22023217Y-35828157D01*
X22023217Y-35685300D01*
X22022728Y-35682843D01*
X22023091Y-35681756D01*
X22020974Y-35674026D01*
X22019411Y-35666166D01*
X22018600Y-35665355D01*
X22017939Y-35662940D01*
X21982224Y-35591511D01*
X21977312Y-35585182D01*
X21972858Y-35578516D01*
X21937144Y-35542802D01*
X21936605Y-35542442D01*
X21937144Y-35542083D01*
X21972858Y-35506369D01*
X21977312Y-35499702D01*
X21982224Y-35493374D01*
X22017939Y-35421945D01*
X22018600Y-35419529D01*
X22019411Y-35418719D01*
X22020974Y-35410858D01*
X22023091Y-35403129D01*
X22022728Y-35402041D01*
X22023217Y-35399585D01*
X22023217Y-35363871D01*
X22022728Y-35361414D01*
X22023091Y-35360327D01*
X22020974Y-35352597D01*
X22019411Y-35344737D01*
X22018600Y-35343926D01*
X22017939Y-35341511D01*
X21982224Y-35270082D01*
X21977312Y-35263753D01*
X21972858Y-35257087D01*
X21937144Y-35221373D01*
X21930484Y-35216922D01*
X21924150Y-35212007D01*
X21852720Y-35176293D01*
X21850305Y-35175631D01*
X21849494Y-35174820D01*
X21841628Y-35173255D01*
X21833904Y-35171140D01*
X21832816Y-35171502D01*
X21830360Y-35171014D01*
X21687503Y-35171014D01*
X21685046Y-35171502D01*
X21683959Y-35171140D01*
X21676229Y-35173256D01*
X21668369Y-35174820D01*
X21667558Y-35175630D01*
X21665143Y-35176292D01*
X21593714Y-35212007D01*
X21587385Y-35216918D01*
X21580719Y-35221373D01*
X21545005Y-35257087D01*
X21540554Y-35263746D01*
X21535639Y-35270081D01*
X21499925Y-35341511D01*
X21499263Y-35343925D01*
X21498452Y-35344737D01*
X21496887Y-35352602D01*
X21494772Y-35360327D01*
X21495134Y-35361414D01*
X21494646Y-35363871D01*
X21411313Y-35363871D01*
X21411313Y-35087681D01*
X22106550Y-35087681D01*
X22106550Y-36104347D01*
G37*
D11*
X19739378Y-38438285D02*
X19703664Y-38474000D01*
X19703664Y-38474000D02*
X19596521Y-38509714D01*
X19596521Y-38509714D02*
X19525093Y-38509714D01*
X19525093Y-38509714D02*
X19417950Y-38474000D01*
X19417950Y-38474000D02*
X19346521Y-38402571D01*
X19346521Y-38402571D02*
X19310807Y-38331142D01*
X19310807Y-38331142D02*
X19275093Y-38188285D01*
X19275093Y-38188285D02*
X19275093Y-38081142D01*
X19275093Y-38081142D02*
X19310807Y-37938285D01*
X19310807Y-37938285D02*
X19346521Y-37866857D01*
X19346521Y-37866857D02*
X19417950Y-37795428D01*
X19417950Y-37795428D02*
X19525093Y-37759714D01*
X19525093Y-37759714D02*
X19596521Y-37759714D01*
X19596521Y-37759714D02*
X19703664Y-37795428D01*
X19703664Y-37795428D02*
X19739378Y-37831142D01*
X20025093Y-38474000D02*
X20132236Y-38509714D01*
X20132236Y-38509714D02*
X20310807Y-38509714D01*
X20310807Y-38509714D02*
X20382236Y-38474000D01*
X20382236Y-38474000D02*
X20417950Y-38438285D01*
X20417950Y-38438285D02*
X20453664Y-38366857D01*
X20453664Y-38366857D02*
X20453664Y-38295428D01*
X20453664Y-38295428D02*
X20417950Y-38224000D01*
X20417950Y-38224000D02*
X20382236Y-38188285D01*
X20382236Y-38188285D02*
X20310807Y-38152571D01*
X20310807Y-38152571D02*
X20167950Y-38116857D01*
X20167950Y-38116857D02*
X20096521Y-38081142D01*
X20096521Y-38081142D02*
X20060807Y-38045428D01*
X20060807Y-38045428D02*
X20025093Y-37974000D01*
X20025093Y-37974000D02*
X20025093Y-37902571D01*
X20025093Y-37902571D02*
X20060807Y-37831142D01*
X20060807Y-37831142D02*
X20096521Y-37795428D01*
X20096521Y-37795428D02*
X20167950Y-37759714D01*
X20167950Y-37759714D02*
X20346521Y-37759714D01*
X20346521Y-37759714D02*
X20453664Y-37795428D01*
X21167950Y-38509714D02*
X20739379Y-38509714D01*
X20953664Y-38509714D02*
X20953664Y-37759714D01*
X20953664Y-37759714D02*
X20882236Y-37866857D01*
X20882236Y-37866857D02*
X20810807Y-37938285D01*
X20810807Y-37938285D02*
X20739379Y-37974000D01*
X21846522Y-37759714D02*
X21489379Y-37759714D01*
X21489379Y-37759714D02*
X21453665Y-38116857D01*
X21453665Y-38116857D02*
X21489379Y-38081142D01*
X21489379Y-38081142D02*
X21560808Y-38045428D01*
X21560808Y-38045428D02*
X21739379Y-38045428D01*
X21739379Y-38045428D02*
X21810808Y-38081142D01*
X21810808Y-38081142D02*
X21846522Y-38116857D01*
X21846522Y-38116857D02*
X21882236Y-38188285D01*
X21882236Y-38188285D02*
X21882236Y-38366857D01*
X21882236Y-38366857D02*
X21846522Y-38438285D01*
X21846522Y-38438285D02*
X21810808Y-38474000D01*
X21810808Y-38474000D02*
X21739379Y-38509714D01*
X21739379Y-38509714D02*
X21560808Y-38509714D01*
X21560808Y-38509714D02*
X21489379Y-38474000D01*
X21489379Y-38474000D02*
X21453665Y-38438285D01*
D10*
G36*
X22106550Y-23404347D02*
G01*
X21379404Y-23404347D01*
X21379404Y-22501880D01*
X21462737Y-22501880D01*
X21462737Y-22540148D01*
X21489797Y-22567208D01*
X21508931Y-22571014D01*
X21863029Y-22571014D01*
X21685588Y-22773803D01*
X21678493Y-22786123D01*
X21677023Y-22787594D01*
X21677023Y-22788677D01*
X21675853Y-22790709D01*
X21677023Y-22808263D01*
X21677023Y-22825862D01*
X21678279Y-22827118D01*
X21678398Y-22828893D01*
X21691642Y-22840481D01*
X21704083Y-22852922D01*
X21706383Y-22853379D01*
X21707198Y-22854092D01*
X21709270Y-22853953D01*
X21723217Y-22856728D01*
X21818558Y-22856728D01*
X21872170Y-22883534D01*
X21896410Y-22907775D01*
X21923217Y-22961388D01*
X21923217Y-23116354D01*
X21896410Y-23169966D01*
X21872170Y-23194207D01*
X21818558Y-23221014D01*
X21627877Y-23221014D01*
X21574264Y-23194207D01*
X21544286Y-23164230D01*
X21528065Y-23153391D01*
X21489797Y-23153391D01*
X21462737Y-23180451D01*
X21462737Y-23218719D01*
X21473576Y-23234940D01*
X21509291Y-23270656D01*
X21515956Y-23275109D01*
X21522285Y-23280021D01*
X21593713Y-23315735D01*
X21596128Y-23316396D01*
X21596940Y-23317208D01*
X21604801Y-23318771D01*
X21612529Y-23320888D01*
X21613617Y-23320525D01*
X21616074Y-23321014D01*
X21830360Y-23321014D01*
X21832816Y-23320525D01*
X21833904Y-23320888D01*
X21841628Y-23318772D01*
X21849494Y-23317208D01*
X21850305Y-23316396D01*
X21852720Y-23315735D01*
X21924150Y-23280021D01*
X21930478Y-23275109D01*
X21937145Y-23270655D01*
X21972859Y-23234940D01*
X21977312Y-23228274D01*
X21982224Y-23221946D01*
X22017938Y-23150518D01*
X22018599Y-23148102D01*
X22019411Y-23147291D01*
X22020974Y-23139429D01*
X22023091Y-23131702D01*
X22022728Y-23130613D01*
X22023217Y-23128157D01*
X22023217Y-22949585D01*
X22022728Y-22947128D01*
X22023091Y-22946040D01*
X22020974Y-22938312D01*
X22019411Y-22930451D01*
X22018599Y-22929639D01*
X22017938Y-22927224D01*
X21982224Y-22855796D01*
X21977312Y-22849467D01*
X21972859Y-22842802D01*
X21937145Y-22807087D01*
X21930478Y-22802632D01*
X21924150Y-22797721D01*
X21852720Y-22762007D01*
X21850305Y-22761345D01*
X21849494Y-22760534D01*
X21841628Y-22758969D01*
X21833904Y-22756854D01*
X21833044Y-22757140D01*
X22010846Y-22553939D01*
X22017940Y-22541618D01*
X22019411Y-22540148D01*
X22019411Y-22539064D01*
X22020581Y-22537033D01*
X22019411Y-22519478D01*
X22019411Y-22501880D01*
X22018154Y-22500623D01*
X22018036Y-22498849D01*
X22004791Y-22487260D01*
X21992351Y-22474820D01*
X21990050Y-22474362D01*
X21989236Y-22473650D01*
X21987163Y-22473788D01*
X21973217Y-22471014D01*
X21508931Y-22471014D01*
X21489797Y-22474820D01*
X21462737Y-22501880D01*
X21379404Y-22501880D01*
X21379404Y-22387681D01*
X22106550Y-22387681D01*
X22106550Y-23404347D01*
G37*
D11*
X19739378Y-28278285D02*
X19703664Y-28314000D01*
X19703664Y-28314000D02*
X19596521Y-28349714D01*
X19596521Y-28349714D02*
X19525093Y-28349714D01*
X19525093Y-28349714D02*
X19417950Y-28314000D01*
X19417950Y-28314000D02*
X19346521Y-28242571D01*
X19346521Y-28242571D02*
X19310807Y-28171142D01*
X19310807Y-28171142D02*
X19275093Y-28028285D01*
X19275093Y-28028285D02*
X19275093Y-27921142D01*
X19275093Y-27921142D02*
X19310807Y-27778285D01*
X19310807Y-27778285D02*
X19346521Y-27706857D01*
X19346521Y-27706857D02*
X19417950Y-27635428D01*
X19417950Y-27635428D02*
X19525093Y-27599714D01*
X19525093Y-27599714D02*
X19596521Y-27599714D01*
X19596521Y-27599714D02*
X19703664Y-27635428D01*
X19703664Y-27635428D02*
X19739378Y-27671142D01*
X20060807Y-28349714D02*
X20060807Y-27599714D01*
X20060807Y-27599714D02*
X20310807Y-28135428D01*
X20310807Y-28135428D02*
X20560807Y-27599714D01*
X20560807Y-27599714D02*
X20560807Y-28349714D01*
X21060807Y-27599714D02*
X21203664Y-27599714D01*
X21203664Y-27599714D02*
X21275093Y-27635428D01*
X21275093Y-27635428D02*
X21346521Y-27706857D01*
X21346521Y-27706857D02*
X21382236Y-27849714D01*
X21382236Y-27849714D02*
X21382236Y-28099714D01*
X21382236Y-28099714D02*
X21346521Y-28242571D01*
X21346521Y-28242571D02*
X21275093Y-28314000D01*
X21275093Y-28314000D02*
X21203664Y-28349714D01*
X21203664Y-28349714D02*
X21060807Y-28349714D01*
X21060807Y-28349714D02*
X20989379Y-28314000D01*
X20989379Y-28314000D02*
X20917950Y-28242571D01*
X20917950Y-28242571D02*
X20882236Y-28099714D01*
X20882236Y-28099714D02*
X20882236Y-27849714D01*
X20882236Y-27849714D02*
X20917950Y-27706857D01*
X20917950Y-27706857D02*
X20989379Y-27635428D01*
X20989379Y-27635428D02*
X21060807Y-27599714D01*
X21703664Y-28349714D02*
X21703664Y-27599714D01*
X21703664Y-27599714D02*
X21882235Y-27599714D01*
X21882235Y-27599714D02*
X21989378Y-27635428D01*
X21989378Y-27635428D02*
X22060807Y-27706857D01*
X22060807Y-27706857D02*
X22096521Y-27778285D01*
X22096521Y-27778285D02*
X22132235Y-27921142D01*
X22132235Y-27921142D02*
X22132235Y-28028285D01*
X22132235Y-28028285D02*
X22096521Y-28171142D01*
X22096521Y-28171142D02*
X22060807Y-28242571D01*
X22060807Y-28242571D02*
X21989378Y-28314000D01*
X21989378Y-28314000D02*
X21882235Y-28349714D01*
X21882235Y-28349714D02*
X21703664Y-28349714D01*
X19203664Y-30139714D02*
X19453664Y-30889714D01*
X19453664Y-30889714D02*
X19703664Y-30139714D01*
X20382235Y-30818285D02*
X20346521Y-30854000D01*
X20346521Y-30854000D02*
X20239378Y-30889714D01*
X20239378Y-30889714D02*
X20167950Y-30889714D01*
X20167950Y-30889714D02*
X20060807Y-30854000D01*
X20060807Y-30854000D02*
X19989378Y-30782571D01*
X19989378Y-30782571D02*
X19953664Y-30711142D01*
X19953664Y-30711142D02*
X19917950Y-30568285D01*
X19917950Y-30568285D02*
X19917950Y-30461142D01*
X19917950Y-30461142D02*
X19953664Y-30318285D01*
X19953664Y-30318285D02*
X19989378Y-30246857D01*
X19989378Y-30246857D02*
X20060807Y-30175428D01*
X20060807Y-30175428D02*
X20167950Y-30139714D01*
X20167950Y-30139714D02*
X20239378Y-30139714D01*
X20239378Y-30139714D02*
X20346521Y-30175428D01*
X20346521Y-30175428D02*
X20382235Y-30211142D01*
X21132235Y-30818285D02*
X21096521Y-30854000D01*
X21096521Y-30854000D02*
X20989378Y-30889714D01*
X20989378Y-30889714D02*
X20917950Y-30889714D01*
X20917950Y-30889714D02*
X20810807Y-30854000D01*
X20810807Y-30854000D02*
X20739378Y-30782571D01*
X20739378Y-30782571D02*
X20703664Y-30711142D01*
X20703664Y-30711142D02*
X20667950Y-30568285D01*
X20667950Y-30568285D02*
X20667950Y-30461142D01*
X20667950Y-30461142D02*
X20703664Y-30318285D01*
X20703664Y-30318285D02*
X20739378Y-30246857D01*
X20739378Y-30246857D02*
X20810807Y-30175428D01*
X20810807Y-30175428D02*
X20917950Y-30139714D01*
X20917950Y-30139714D02*
X20989378Y-30139714D01*
X20989378Y-30139714D02*
X21096521Y-30175428D01*
X21096521Y-30175428D02*
X21132235Y-30211142D01*
X19739378Y-23198285D02*
X19703664Y-23234000D01*
X19703664Y-23234000D02*
X19596521Y-23269714D01*
X19596521Y-23269714D02*
X19525093Y-23269714D01*
X19525093Y-23269714D02*
X19417950Y-23234000D01*
X19417950Y-23234000D02*
X19346521Y-23162571D01*
X19346521Y-23162571D02*
X19310807Y-23091142D01*
X19310807Y-23091142D02*
X19275093Y-22948285D01*
X19275093Y-22948285D02*
X19275093Y-22841142D01*
X19275093Y-22841142D02*
X19310807Y-22698285D01*
X19310807Y-22698285D02*
X19346521Y-22626857D01*
X19346521Y-22626857D02*
X19417950Y-22555428D01*
X19417950Y-22555428D02*
X19525093Y-22519714D01*
X19525093Y-22519714D02*
X19596521Y-22519714D01*
X19596521Y-22519714D02*
X19703664Y-22555428D01*
X19703664Y-22555428D02*
X19739378Y-22591142D01*
X20025093Y-23234000D02*
X20132236Y-23269714D01*
X20132236Y-23269714D02*
X20310807Y-23269714D01*
X20310807Y-23269714D02*
X20382236Y-23234000D01*
X20382236Y-23234000D02*
X20417950Y-23198285D01*
X20417950Y-23198285D02*
X20453664Y-23126857D01*
X20453664Y-23126857D02*
X20453664Y-23055428D01*
X20453664Y-23055428D02*
X20417950Y-22984000D01*
X20417950Y-22984000D02*
X20382236Y-22948285D01*
X20382236Y-22948285D02*
X20310807Y-22912571D01*
X20310807Y-22912571D02*
X20167950Y-22876857D01*
X20167950Y-22876857D02*
X20096521Y-22841142D01*
X20096521Y-22841142D02*
X20060807Y-22805428D01*
X20060807Y-22805428D02*
X20025093Y-22734000D01*
X20025093Y-22734000D02*
X20025093Y-22662571D01*
X20025093Y-22662571D02*
X20060807Y-22591142D01*
X20060807Y-22591142D02*
X20096521Y-22555428D01*
X20096521Y-22555428D02*
X20167950Y-22519714D01*
X20167950Y-22519714D02*
X20346521Y-22519714D01*
X20346521Y-22519714D02*
X20453664Y-22555428D01*
X20739379Y-22591142D02*
X20775093Y-22555428D01*
X20775093Y-22555428D02*
X20846522Y-22519714D01*
X20846522Y-22519714D02*
X21025093Y-22519714D01*
X21025093Y-22519714D02*
X21096522Y-22555428D01*
X21096522Y-22555428D02*
X21132236Y-22591142D01*
X21132236Y-22591142D02*
X21167950Y-22662571D01*
X21167950Y-22662571D02*
X21167950Y-22734000D01*
X21167950Y-22734000D02*
X21132236Y-22841142D01*
X21132236Y-22841142D02*
X20703664Y-23269714D01*
X20703664Y-23269714D02*
X21167950Y-23269714D01*
X19739378Y-18118285D02*
X19703664Y-18154000D01*
X19703664Y-18154000D02*
X19596521Y-18189714D01*
X19596521Y-18189714D02*
X19525093Y-18189714D01*
X19525093Y-18189714D02*
X19417950Y-18154000D01*
X19417950Y-18154000D02*
X19346521Y-18082571D01*
X19346521Y-18082571D02*
X19310807Y-18011142D01*
X19310807Y-18011142D02*
X19275093Y-17868285D01*
X19275093Y-17868285D02*
X19275093Y-17761142D01*
X19275093Y-17761142D02*
X19310807Y-17618285D01*
X19310807Y-17618285D02*
X19346521Y-17546857D01*
X19346521Y-17546857D02*
X19417950Y-17475428D01*
X19417950Y-17475428D02*
X19525093Y-17439714D01*
X19525093Y-17439714D02*
X19596521Y-17439714D01*
X19596521Y-17439714D02*
X19703664Y-17475428D01*
X19703664Y-17475428D02*
X19739378Y-17511142D01*
X20025093Y-18154000D02*
X20132236Y-18189714D01*
X20132236Y-18189714D02*
X20310807Y-18189714D01*
X20310807Y-18189714D02*
X20382236Y-18154000D01*
X20382236Y-18154000D02*
X20417950Y-18118285D01*
X20417950Y-18118285D02*
X20453664Y-18046857D01*
X20453664Y-18046857D02*
X20453664Y-17975428D01*
X20453664Y-17975428D02*
X20417950Y-17904000D01*
X20417950Y-17904000D02*
X20382236Y-17868285D01*
X20382236Y-17868285D02*
X20310807Y-17832571D01*
X20310807Y-17832571D02*
X20167950Y-17796857D01*
X20167950Y-17796857D02*
X20096521Y-17761142D01*
X20096521Y-17761142D02*
X20060807Y-17725428D01*
X20060807Y-17725428D02*
X20025093Y-17654000D01*
X20025093Y-17654000D02*
X20025093Y-17582571D01*
X20025093Y-17582571D02*
X20060807Y-17511142D01*
X20060807Y-17511142D02*
X20096521Y-17475428D01*
X20096521Y-17475428D02*
X20167950Y-17439714D01*
X20167950Y-17439714D02*
X20346521Y-17439714D01*
X20346521Y-17439714D02*
X20453664Y-17475428D01*
X20917950Y-17439714D02*
X20989379Y-17439714D01*
X20989379Y-17439714D02*
X21060807Y-17475428D01*
X21060807Y-17475428D02*
X21096522Y-17511142D01*
X21096522Y-17511142D02*
X21132236Y-17582571D01*
X21132236Y-17582571D02*
X21167950Y-17725428D01*
X21167950Y-17725428D02*
X21167950Y-17904000D01*
X21167950Y-17904000D02*
X21132236Y-18046857D01*
X21132236Y-18046857D02*
X21096522Y-18118285D01*
X21096522Y-18118285D02*
X21060807Y-18154000D01*
X21060807Y-18154000D02*
X20989379Y-18189714D01*
X20989379Y-18189714D02*
X20917950Y-18189714D01*
X20917950Y-18189714D02*
X20846522Y-18154000D01*
X20846522Y-18154000D02*
X20810807Y-18118285D01*
X20810807Y-18118285D02*
X20775093Y-18046857D01*
X20775093Y-18046857D02*
X20739379Y-17904000D01*
X20739379Y-17904000D02*
X20739379Y-17725428D01*
X20739379Y-17725428D02*
X20775093Y-17582571D01*
X20775093Y-17582571D02*
X20810807Y-17511142D01*
X20810807Y-17511142D02*
X20846522Y-17475428D01*
X20846522Y-17475428D02*
X20917950Y-17439714D01*
D10*
G36*
X22102744Y-18324347D02*
G01*
X21411439Y-18324347D01*
X21411439Y-17658845D01*
X21494772Y-17658845D01*
X21511886Y-17693073D01*
X21548191Y-17705174D01*
X21567007Y-17700021D01*
X21638435Y-17664306D01*
X21644763Y-17659394D01*
X21651429Y-17654941D01*
X21708931Y-17597439D01*
X21708931Y-18141014D01*
X21544646Y-18141014D01*
X21525512Y-18144820D01*
X21498452Y-18171880D01*
X21498452Y-18210148D01*
X21525512Y-18237208D01*
X21544646Y-18241014D01*
X21973217Y-18241014D01*
X21992351Y-18237208D01*
X22019411Y-18210148D01*
X22019411Y-18171880D01*
X21992351Y-18144820D01*
X21973217Y-18141014D01*
X21808931Y-18141014D01*
X21808931Y-17441014D01*
X21805125Y-17421880D01*
X21801484Y-17418239D01*
X21800475Y-17413192D01*
X21788361Y-17405116D01*
X21778065Y-17394820D01*
X21772917Y-17394820D01*
X21768634Y-17391965D01*
X21754359Y-17394820D01*
X21739797Y-17394820D01*
X21736156Y-17398460D01*
X21731108Y-17399470D01*
X21717328Y-17413280D01*
X21648644Y-17516305D01*
X21586456Y-17578492D01*
X21522285Y-17610579D01*
X21506873Y-17622540D01*
X21494772Y-17658845D01*
X21411439Y-17658845D01*
X21411439Y-17308632D01*
X22102744Y-17308632D01*
X22102744Y-18324347D01*
G37*
D11*
X19739378Y-20658285D02*
X19703664Y-20694000D01*
X19703664Y-20694000D02*
X19596521Y-20729714D01*
X19596521Y-20729714D02*
X19525093Y-20729714D01*
X19525093Y-20729714D02*
X19417950Y-20694000D01*
X19417950Y-20694000D02*
X19346521Y-20622571D01*
X19346521Y-20622571D02*
X19310807Y-20551142D01*
X19310807Y-20551142D02*
X19275093Y-20408285D01*
X19275093Y-20408285D02*
X19275093Y-20301142D01*
X19275093Y-20301142D02*
X19310807Y-20158285D01*
X19310807Y-20158285D02*
X19346521Y-20086857D01*
X19346521Y-20086857D02*
X19417950Y-20015428D01*
X19417950Y-20015428D02*
X19525093Y-19979714D01*
X19525093Y-19979714D02*
X19596521Y-19979714D01*
X19596521Y-19979714D02*
X19703664Y-20015428D01*
X19703664Y-20015428D02*
X19739378Y-20051142D01*
X20025093Y-20694000D02*
X20132236Y-20729714D01*
X20132236Y-20729714D02*
X20310807Y-20729714D01*
X20310807Y-20729714D02*
X20382236Y-20694000D01*
X20382236Y-20694000D02*
X20417950Y-20658285D01*
X20417950Y-20658285D02*
X20453664Y-20586857D01*
X20453664Y-20586857D02*
X20453664Y-20515428D01*
X20453664Y-20515428D02*
X20417950Y-20444000D01*
X20417950Y-20444000D02*
X20382236Y-20408285D01*
X20382236Y-20408285D02*
X20310807Y-20372571D01*
X20310807Y-20372571D02*
X20167950Y-20336857D01*
X20167950Y-20336857D02*
X20096521Y-20301142D01*
X20096521Y-20301142D02*
X20060807Y-20265428D01*
X20060807Y-20265428D02*
X20025093Y-20194000D01*
X20025093Y-20194000D02*
X20025093Y-20122571D01*
X20025093Y-20122571D02*
X20060807Y-20051142D01*
X20060807Y-20051142D02*
X20096521Y-20015428D01*
X20096521Y-20015428D02*
X20167950Y-19979714D01*
X20167950Y-19979714D02*
X20346521Y-19979714D01*
X20346521Y-19979714D02*
X20453664Y-20015428D01*
X21167950Y-20729714D02*
X20739379Y-20729714D01*
X20953664Y-20729714D02*
X20953664Y-19979714D01*
X20953664Y-19979714D02*
X20882236Y-20086857D01*
X20882236Y-20086857D02*
X20810807Y-20158285D01*
X20810807Y-20158285D02*
X20739379Y-20194000D01*
X19739378Y-25738285D02*
X19703664Y-25774000D01*
X19703664Y-25774000D02*
X19596521Y-25809714D01*
X19596521Y-25809714D02*
X19525093Y-25809714D01*
X19525093Y-25809714D02*
X19417950Y-25774000D01*
X19417950Y-25774000D02*
X19346521Y-25702571D01*
X19346521Y-25702571D02*
X19310807Y-25631142D01*
X19310807Y-25631142D02*
X19275093Y-25488285D01*
X19275093Y-25488285D02*
X19275093Y-25381142D01*
X19275093Y-25381142D02*
X19310807Y-25238285D01*
X19310807Y-25238285D02*
X19346521Y-25166857D01*
X19346521Y-25166857D02*
X19417950Y-25095428D01*
X19417950Y-25095428D02*
X19525093Y-25059714D01*
X19525093Y-25059714D02*
X19596521Y-25059714D01*
X19596521Y-25059714D02*
X19703664Y-25095428D01*
X19703664Y-25095428D02*
X19739378Y-25131142D01*
X20025093Y-25774000D02*
X20132236Y-25809714D01*
X20132236Y-25809714D02*
X20310807Y-25809714D01*
X20310807Y-25809714D02*
X20382236Y-25774000D01*
X20382236Y-25774000D02*
X20417950Y-25738285D01*
X20417950Y-25738285D02*
X20453664Y-25666857D01*
X20453664Y-25666857D02*
X20453664Y-25595428D01*
X20453664Y-25595428D02*
X20417950Y-25524000D01*
X20417950Y-25524000D02*
X20382236Y-25488285D01*
X20382236Y-25488285D02*
X20310807Y-25452571D01*
X20310807Y-25452571D02*
X20167950Y-25416857D01*
X20167950Y-25416857D02*
X20096521Y-25381142D01*
X20096521Y-25381142D02*
X20060807Y-25345428D01*
X20060807Y-25345428D02*
X20025093Y-25274000D01*
X20025093Y-25274000D02*
X20025093Y-25202571D01*
X20025093Y-25202571D02*
X20060807Y-25131142D01*
X20060807Y-25131142D02*
X20096521Y-25095428D01*
X20096521Y-25095428D02*
X20167950Y-25059714D01*
X20167950Y-25059714D02*
X20346521Y-25059714D01*
X20346521Y-25059714D02*
X20453664Y-25095428D01*
X20703664Y-25059714D02*
X21167950Y-25059714D01*
X21167950Y-25059714D02*
X20917950Y-25345428D01*
X20917950Y-25345428D02*
X21025093Y-25345428D01*
X21025093Y-25345428D02*
X21096522Y-25381142D01*
X21096522Y-25381142D02*
X21132236Y-25416857D01*
X21132236Y-25416857D02*
X21167950Y-25488285D01*
X21167950Y-25488285D02*
X21167950Y-25666857D01*
X21167950Y-25666857D02*
X21132236Y-25738285D01*
X21132236Y-25738285D02*
X21096522Y-25774000D01*
X21096522Y-25774000D02*
X21025093Y-25809714D01*
X21025093Y-25809714D02*
X20810807Y-25809714D01*
X20810807Y-25809714D02*
X20739379Y-25774000D01*
X20739379Y-25774000D02*
X20703664Y-25738285D01*
X19203664Y-32679714D02*
X19453664Y-33429714D01*
X19453664Y-33429714D02*
X19703664Y-32679714D01*
X19953664Y-33429714D02*
X19953664Y-32679714D01*
X19953664Y-32679714D02*
X20132235Y-32679714D01*
X20132235Y-32679714D02*
X20239378Y-32715428D01*
X20239378Y-32715428D02*
X20310807Y-32786857D01*
X20310807Y-32786857D02*
X20346521Y-32858285D01*
X20346521Y-32858285D02*
X20382235Y-33001142D01*
X20382235Y-33001142D02*
X20382235Y-33108285D01*
X20382235Y-33108285D02*
X20346521Y-33251142D01*
X20346521Y-33251142D02*
X20310807Y-33322571D01*
X20310807Y-33322571D02*
X20239378Y-33394000D01*
X20239378Y-33394000D02*
X20132235Y-33429714D01*
X20132235Y-33429714D02*
X19953664Y-33429714D01*
X20703664Y-33429714D02*
X20703664Y-32679714D01*
X20703664Y-32679714D02*
X20882235Y-32679714D01*
X20882235Y-32679714D02*
X20989378Y-32715428D01*
X20989378Y-32715428D02*
X21060807Y-32786857D01*
X21060807Y-32786857D02*
X21096521Y-32858285D01*
X21096521Y-32858285D02*
X21132235Y-33001142D01*
X21132235Y-33001142D02*
X21132235Y-33108285D01*
X21132235Y-33108285D02*
X21096521Y-33251142D01*
X21096521Y-33251142D02*
X21060807Y-33322571D01*
X21060807Y-33322571D02*
X20989378Y-33394000D01*
X20989378Y-33394000D02*
X20882235Y-33429714D01*
X20882235Y-33429714D02*
X20703664Y-33429714D01*
X19203664Y-35219714D02*
X19453664Y-35969714D01*
X19453664Y-35969714D02*
X19703664Y-35219714D01*
X19917950Y-35934000D02*
X20025093Y-35969714D01*
X20025093Y-35969714D02*
X20203664Y-35969714D01*
X20203664Y-35969714D02*
X20275093Y-35934000D01*
X20275093Y-35934000D02*
X20310807Y-35898285D01*
X20310807Y-35898285D02*
X20346521Y-35826857D01*
X20346521Y-35826857D02*
X20346521Y-35755428D01*
X20346521Y-35755428D02*
X20310807Y-35684000D01*
X20310807Y-35684000D02*
X20275093Y-35648285D01*
X20275093Y-35648285D02*
X20203664Y-35612571D01*
X20203664Y-35612571D02*
X20060807Y-35576857D01*
X20060807Y-35576857D02*
X19989378Y-35541142D01*
X19989378Y-35541142D02*
X19953664Y-35505428D01*
X19953664Y-35505428D02*
X19917950Y-35434000D01*
X19917950Y-35434000D02*
X19917950Y-35362571D01*
X19917950Y-35362571D02*
X19953664Y-35291142D01*
X19953664Y-35291142D02*
X19989378Y-35255428D01*
X19989378Y-35255428D02*
X20060807Y-35219714D01*
X20060807Y-35219714D02*
X20239378Y-35219714D01*
X20239378Y-35219714D02*
X20346521Y-35255428D01*
X20632236Y-35934000D02*
X20739379Y-35969714D01*
X20739379Y-35969714D02*
X20917950Y-35969714D01*
X20917950Y-35969714D02*
X20989379Y-35934000D01*
X20989379Y-35934000D02*
X21025093Y-35898285D01*
X21025093Y-35898285D02*
X21060807Y-35826857D01*
X21060807Y-35826857D02*
X21060807Y-35755428D01*
X21060807Y-35755428D02*
X21025093Y-35684000D01*
X21025093Y-35684000D02*
X20989379Y-35648285D01*
X20989379Y-35648285D02*
X20917950Y-35612571D01*
X20917950Y-35612571D02*
X20775093Y-35576857D01*
X20775093Y-35576857D02*
X20703664Y-35541142D01*
X20703664Y-35541142D02*
X20667950Y-35505428D01*
X20667950Y-35505428D02*
X20632236Y-35434000D01*
X20632236Y-35434000D02*
X20632236Y-35362571D01*
X20632236Y-35362571D02*
X20667950Y-35291142D01*
X20667950Y-35291142D02*
X20703664Y-35255428D01*
X20703664Y-35255428D02*
X20775093Y-35219714D01*
X20775093Y-35219714D02*
X20953664Y-35219714D01*
X20953664Y-35219714D02*
X21060807Y-35255428D01*
D13*
X24024419Y-17526571D02*
X23976800Y-17478952D01*
X23976800Y-17478952D02*
X23929180Y-17336095D01*
X23929180Y-17336095D02*
X23929180Y-17240857D01*
X23929180Y-17240857D02*
X23976800Y-17098000D01*
X23976800Y-17098000D02*
X24072038Y-17002762D01*
X24072038Y-17002762D02*
X24167276Y-16955143D01*
X24167276Y-16955143D02*
X24357752Y-16907524D01*
X24357752Y-16907524D02*
X24500609Y-16907524D01*
X24500609Y-16907524D02*
X24691085Y-16955143D01*
X24691085Y-16955143D02*
X24786323Y-17002762D01*
X24786323Y-17002762D02*
X24881561Y-17098000D01*
X24881561Y-17098000D02*
X24929180Y-17240857D01*
X24929180Y-17240857D02*
X24929180Y-17336095D01*
X24929180Y-17336095D02*
X24881561Y-17478952D01*
X24881561Y-17478952D02*
X24833942Y-17526571D01*
X24405371Y-18145619D02*
X23929180Y-18145619D01*
X24929180Y-17812286D02*
X24405371Y-18145619D01*
X24405371Y-18145619D02*
X24929180Y-18478952D01*
X24500609Y-18955143D02*
X24548228Y-18859905D01*
X24548228Y-18859905D02*
X24595847Y-18812286D01*
X24595847Y-18812286D02*
X24691085Y-18764667D01*
X24691085Y-18764667D02*
X24738704Y-18764667D01*
X24738704Y-18764667D02*
X24833942Y-18812286D01*
X24833942Y-18812286D02*
X24881561Y-18859905D01*
X24881561Y-18859905D02*
X24929180Y-18955143D01*
X24929180Y-18955143D02*
X24929180Y-19145619D01*
X24929180Y-19145619D02*
X24881561Y-19240857D01*
X24881561Y-19240857D02*
X24833942Y-19288476D01*
X24833942Y-19288476D02*
X24738704Y-19336095D01*
X24738704Y-19336095D02*
X24691085Y-19336095D01*
X24691085Y-19336095D02*
X24595847Y-19288476D01*
X24595847Y-19288476D02*
X24548228Y-19240857D01*
X24548228Y-19240857D02*
X24500609Y-19145619D01*
X24500609Y-19145619D02*
X24500609Y-18955143D01*
X24500609Y-18955143D02*
X24452990Y-18859905D01*
X24452990Y-18859905D02*
X24405371Y-18812286D01*
X24405371Y-18812286D02*
X24310133Y-18764667D01*
X24310133Y-18764667D02*
X24119657Y-18764667D01*
X24119657Y-18764667D02*
X24024419Y-18812286D01*
X24024419Y-18812286D02*
X23976800Y-18859905D01*
X23976800Y-18859905D02*
X23929180Y-18955143D01*
X23929180Y-18955143D02*
X23929180Y-19145619D01*
X23929180Y-19145619D02*
X23976800Y-19240857D01*
X23976800Y-19240857D02*
X24024419Y-19288476D01*
X24024419Y-19288476D02*
X24119657Y-19336095D01*
X24119657Y-19336095D02*
X24310133Y-19336095D01*
X24310133Y-19336095D02*
X24405371Y-19288476D01*
X24405371Y-19288476D02*
X24452990Y-19240857D01*
X24452990Y-19240857D02*
X24500609Y-19145619D01*
X24024419Y-20336095D02*
X23976800Y-20288476D01*
X23976800Y-20288476D02*
X23929180Y-20145619D01*
X23929180Y-20145619D02*
X23929180Y-20050381D01*
X23929180Y-20050381D02*
X23976800Y-19907524D01*
X23976800Y-19907524D02*
X24072038Y-19812286D01*
X24072038Y-19812286D02*
X24167276Y-19764667D01*
X24167276Y-19764667D02*
X24357752Y-19717048D01*
X24357752Y-19717048D02*
X24500609Y-19717048D01*
X24500609Y-19717048D02*
X24691085Y-19764667D01*
X24691085Y-19764667D02*
X24786323Y-19812286D01*
X24786323Y-19812286D02*
X24881561Y-19907524D01*
X24881561Y-19907524D02*
X24929180Y-20050381D01*
X24929180Y-20050381D02*
X24929180Y-20145619D01*
X24929180Y-20145619D02*
X24881561Y-20288476D01*
X24881561Y-20288476D02*
X24833942Y-20336095D01*
X23929180Y-20764667D02*
X24929180Y-20764667D01*
X24929180Y-20764667D02*
X24214895Y-21098000D01*
X24214895Y-21098000D02*
X24929180Y-21431333D01*
X24929180Y-21431333D02*
X23929180Y-21431333D01*
X24452990Y-22240857D02*
X24405371Y-22383714D01*
X24405371Y-22383714D02*
X24357752Y-22431333D01*
X24357752Y-22431333D02*
X24262514Y-22478952D01*
X24262514Y-22478952D02*
X24119657Y-22478952D01*
X24119657Y-22478952D02*
X24024419Y-22431333D01*
X24024419Y-22431333D02*
X23976800Y-22383714D01*
X23976800Y-22383714D02*
X23929180Y-22288476D01*
X23929180Y-22288476D02*
X23929180Y-21907524D01*
X23929180Y-21907524D02*
X24929180Y-21907524D01*
X24929180Y-21907524D02*
X24929180Y-22240857D01*
X24929180Y-22240857D02*
X24881561Y-22336095D01*
X24881561Y-22336095D02*
X24833942Y-22383714D01*
X24833942Y-22383714D02*
X24738704Y-22431333D01*
X24738704Y-22431333D02*
X24643466Y-22431333D01*
X24643466Y-22431333D02*
X24548228Y-22383714D01*
X24548228Y-22383714D02*
X24500609Y-22336095D01*
X24500609Y-22336095D02*
X24452990Y-22240857D01*
X24452990Y-22240857D02*
X24452990Y-21907524D01*
X23929180Y-23478952D02*
X24405371Y-23145619D01*
X23929180Y-22907524D02*
X24929180Y-22907524D01*
X24929180Y-22907524D02*
X24929180Y-23288476D01*
X24929180Y-23288476D02*
X24881561Y-23383714D01*
X24881561Y-23383714D02*
X24833942Y-23431333D01*
X24833942Y-23431333D02*
X24738704Y-23478952D01*
X24738704Y-23478952D02*
X24595847Y-23478952D01*
X24595847Y-23478952D02*
X24500609Y-23431333D01*
X24500609Y-23431333D02*
X24452990Y-23383714D01*
X24452990Y-23383714D02*
X24405371Y-23288476D01*
X24405371Y-23288476D02*
X24405371Y-22907524D01*
X24929180Y-23812286D02*
X24929180Y-24431333D01*
X24929180Y-24431333D02*
X24548228Y-24098000D01*
X24548228Y-24098000D02*
X24548228Y-24240857D01*
X24548228Y-24240857D02*
X24500609Y-24336095D01*
X24500609Y-24336095D02*
X24452990Y-24383714D01*
X24452990Y-24383714D02*
X24357752Y-24431333D01*
X24357752Y-24431333D02*
X24119657Y-24431333D01*
X24119657Y-24431333D02*
X24024419Y-24383714D01*
X24024419Y-24383714D02*
X23976800Y-24336095D01*
X23976800Y-24336095D02*
X23929180Y-24240857D01*
X23929180Y-24240857D02*
X23929180Y-23955143D01*
X23929180Y-23955143D02*
X23976800Y-23859905D01*
X23976800Y-23859905D02*
X24024419Y-23812286D01*
X23929180Y-25383714D02*
X23929180Y-24812286D01*
X23929180Y-25098000D02*
X24929180Y-25098000D01*
X24929180Y-25098000D02*
X24786323Y-25002762D01*
X24786323Y-25002762D02*
X24691085Y-24907524D01*
X24691085Y-24907524D02*
X24643466Y-24812286D01*
X23929180Y-26336095D02*
X23929180Y-25764667D01*
X23929180Y-26050381D02*
X24929180Y-26050381D01*
X24929180Y-26050381D02*
X24786323Y-25955143D01*
X24786323Y-25955143D02*
X24691085Y-25859905D01*
X24691085Y-25859905D02*
X24643466Y-25764667D01*
X24929180Y-27193238D02*
X24929180Y-27002762D01*
X24929180Y-27002762D02*
X24881561Y-26907524D01*
X24881561Y-26907524D02*
X24833942Y-26859905D01*
X24833942Y-26859905D02*
X24691085Y-26764667D01*
X24691085Y-26764667D02*
X24500609Y-26717048D01*
X24500609Y-26717048D02*
X24119657Y-26717048D01*
X24119657Y-26717048D02*
X24024419Y-26764667D01*
X24024419Y-26764667D02*
X23976800Y-26812286D01*
X23976800Y-26812286D02*
X23929180Y-26907524D01*
X23929180Y-26907524D02*
X23929180Y-27098000D01*
X23929180Y-27098000D02*
X23976800Y-27193238D01*
X23976800Y-27193238D02*
X24024419Y-27240857D01*
X24024419Y-27240857D02*
X24119657Y-27288476D01*
X24119657Y-27288476D02*
X24357752Y-27288476D01*
X24357752Y-27288476D02*
X24452990Y-27240857D01*
X24452990Y-27240857D02*
X24500609Y-27193238D01*
X24500609Y-27193238D02*
X24548228Y-27098000D01*
X24548228Y-27098000D02*
X24548228Y-26907524D01*
X24548228Y-26907524D02*
X24500609Y-26812286D01*
X24500609Y-26812286D02*
X24452990Y-26764667D01*
X24452990Y-26764667D02*
X24357752Y-26717048D01*
D14*
%TO.C,CY8CMBR3116*%
X24069988Y-29069788D02*
X24236158Y-28903618D01*
X21421873Y-31717903D02*
X21757749Y-31382027D01*
X24741740Y-29069788D02*
X24617996Y-28946044D01*
X21757749Y-32053779D02*
X21421873Y-31717903D01*
X27053979Y-31382027D02*
X27389855Y-31717903D01*
X24069988Y-34366018D02*
X24405864Y-34701894D01*
X27389855Y-31717903D02*
X27053979Y-32053779D01*
X24405864Y-34701894D02*
X24741740Y-34366018D01*
X24808915Y-28670273D02*
X24405864Y-28733912D01*
X24469504Y-28330862D01*
X24808915Y-28670273D01*
G36*
X24808915Y-28670273D02*
G01*
X24405864Y-28733912D01*
X24469504Y-28330862D01*
X24808915Y-28670273D01*
G37*
%TD*%
M02*
