%TF.GenerationSoftware,KiCad,Pcbnew,9.0.4*%
%TF.CreationDate,2025-10-02T06:47:31+08:00*%
%TF.ProjectId,CY8CMBR3116_PCB,43593843-4d42-4523-9331-31365f504342,rev?*%
%TF.SameCoordinates,Original*%
%TF.FileFunction,Soldermask,Top*%
%TF.FilePolarity,Negative*%
%FSLAX46Y46*%
G04 Gerber Fmt 4.6, Leading zero omitted, Abs format (unit mm)*
G04 Created by KiCad (PCBNEW 9.0.4) date 2025-10-02 06:47:31*
%MOMM*%
%LPD*%
G01*
G04 APERTURE LIST*
G04 Aperture macros list*
%AMRoundRect*
0 Rectangle with rounded corners*
0 $1 Rounding radius*
0 $2 $3 $4 $5 $6 $7 $8 $9 X,Y pos of 4 corners*
0 Add a 4 corners polygon primitive as box body*
4,1,4,$2,$3,$4,$5,$6,$7,$8,$9,$2,$3,0*
0 Add four circle primitives for the rounded corners*
1,1,$1+$1,$2,$3*
1,1,$1+$1,$4,$5*
1,1,$1+$1,$6,$7*
1,1,$1+$1,$8,$9*
0 Add four rect primitives between the rounded corners*
20,1,$1+$1,$2,$3,$4,$5,0*
20,1,$1+$1,$4,$5,$6,$7,0*
20,1,$1+$1,$6,$7,$8,$9,0*
20,1,$1+$1,$8,$9,$2,$3,0*%
%AMRotRect*
0 Rectangle, with rotation*
0 The origin of the aperture is its center*
0 $1 length*
0 $2 width*
0 $3 Rotation angle, in degrees counterclockwise*
0 Add horizontal line*
21,1,$1,$2,0,0,$3*%
G04 Aperture macros list end*
%ADD10R,1.700000X1.700000*%
%ADD11C,1.700000*%
%ADD12RotRect,2.600000X2.600000X315.000000*%
%ADD13RoundRect,0.062500X-0.291682X0.203293X0.203293X-0.291682X0.291682X-0.203293X-0.203293X0.291682X0*%
%ADD14RoundRect,0.062500X-0.291682X-0.203293X-0.203293X-0.291682X0.291682X0.203293X0.203293X0.291682X0*%
G04 APERTURE END LIST*
D10*
%TO.C,REF\u002A\u002A*%
X17780000Y-17780000D03*
D11*
X17780000Y-45720000D03*
X17780000Y-43180000D03*
X17780000Y-40640000D03*
X17780000Y-38100000D03*
X17780000Y-35560000D03*
X17780000Y-33020000D03*
X17780000Y-30480000D03*
X17780000Y-27940000D03*
X17780000Y-25400000D03*
X17780000Y-22860000D03*
X17780000Y-20320000D03*
%TD*%
D10*
%TO.C,REF\u002A\u002A*%
X30480000Y-17780000D03*
D11*
X30480000Y-20320000D03*
X30480000Y-22860000D03*
X30480000Y-25400000D03*
X30480000Y-27940000D03*
X30480000Y-30480000D03*
X30480000Y-33020000D03*
X30480000Y-35560000D03*
X30480000Y-38100000D03*
X30480000Y-40640000D03*
X30480000Y-43180000D03*
X30480000Y-45720000D03*
%TD*%
D12*
%TO.C,CY8CMBR3116*%
X24405864Y-31717903D03*
D13*
X23919728Y-29464000D03*
X23566175Y-29817554D03*
X23212621Y-30171107D03*
X22859068Y-30524660D03*
X22505515Y-30878214D03*
X22151961Y-31231767D03*
D14*
X22151961Y-32204039D03*
X22505515Y-32557592D03*
X22859068Y-32911146D03*
X23212621Y-33264699D03*
X23566175Y-33618252D03*
X23919728Y-33971806D03*
D13*
X24892000Y-33971806D03*
X25245553Y-33618252D03*
X25599107Y-33264699D03*
X25952660Y-32911146D03*
X26306213Y-32557592D03*
X26659767Y-32204039D03*
D14*
X26659767Y-31231767D03*
X26306213Y-30878214D03*
X25952660Y-30524660D03*
X25599107Y-30171107D03*
X25245553Y-29817554D03*
X24892000Y-29464000D03*
%TD*%
M02*
