%TF.GenerationSoftware,KiCad,Pcbnew,9.0.4*%
%TF.CreationDate,2025-10-02T06:47:31+08:00*%
%TF.ProjectId,CY8CMBR3116_PCB,43593843-4d42-4523-9331-31365f504342,rev?*%
%TF.SameCoordinates,Original*%
%TF.FileFunction,Copper,L1,Top*%
%TF.FilePolarity,Positive*%
%FSLAX46Y46*%
G04 Gerber Fmt 4.6, Leading zero omitted, Abs format (unit mm)*
G04 Created by KiCad (PCBNEW 9.0.4) date 2025-10-02 06:47:31*
%MOMM*%
%LPD*%
G01*
G04 APERTURE LIST*
G04 Aperture macros list*
%AMRoundRect*
0 Rectangle with rounded corners*
0 $1 Rounding radius*
0 $2 $3 $4 $5 $6 $7 $8 $9 X,Y pos of 4 corners*
0 Add a 4 corners polygon primitive as box body*
4,1,4,$2,$3,$4,$5,$6,$7,$8,$9,$2,$3,0*
0 Add four circle primitives for the rounded corners*
1,1,$1+$1,$2,$3*
1,1,$1+$1,$4,$5*
1,1,$1+$1,$6,$7*
1,1,$1+$1,$8,$9*
0 Add four rect primitives between the rounded corners*
20,1,$1+$1,$2,$3,$4,$5,0*
20,1,$1+$1,$4,$5,$6,$7,0*
20,1,$1+$1,$6,$7,$8,$9,0*
20,1,$1+$1,$8,$9,$2,$3,0*%
%AMRotRect*
0 Rectangle, with rotation*
0 The origin of the aperture is its center*
0 $1 length*
0 $2 width*
0 $3 Rotation angle, in degrees counterclockwise*
0 Add horizontal line*
21,1,$1,$2,0,0,$3*%
G04 Aperture macros list end*
%TA.AperFunction,ComponentPad*%
%ADD10R,1.700000X1.700000*%
%TD*%
%TA.AperFunction,ComponentPad*%
%ADD11C,1.700000*%
%TD*%
%TA.AperFunction,HeatsinkPad*%
%ADD12RotRect,2.600000X2.600000X315.000000*%
%TD*%
%TA.AperFunction,SMDPad,CuDef*%
%ADD13RoundRect,0.062500X-0.291682X0.203293X0.203293X-0.291682X0.291682X-0.203293X-0.203293X0.291682X0*%
%TD*%
%TA.AperFunction,SMDPad,CuDef*%
%ADD14RoundRect,0.062500X-0.291682X-0.203293X-0.203293X-0.291682X0.291682X0.203293X0.203293X0.291682X0*%
%TD*%
%TA.AperFunction,ViaPad*%
%ADD15C,0.600000*%
%TD*%
%TA.AperFunction,Conductor*%
%ADD16C,0.200000*%
%TD*%
G04 APERTURE END LIST*
D10*
%TO.P,REF\u002A\u002A,1*%
%TO.N,default*%
X17780000Y-17780000D03*
D11*
%TO.P,REF\u002A\u002A,12*%
X17780000Y-45720000D03*
%TO.P,REF\u002A\u002A,11*%
X17780000Y-43180000D03*
%TO.P,REF\u002A\u002A,10*%
X17780000Y-40640000D03*
%TO.P,REF\u002A\u002A,9*%
X17780000Y-38100000D03*
%TO.P,REF\u002A\u002A,8*%
X17780000Y-35560000D03*
%TO.P,REF\u002A\u002A,7*%
X17780000Y-33020000D03*
%TO.P,REF\u002A\u002A,6*%
X17780000Y-30480000D03*
%TO.P,REF\u002A\u002A,5*%
X17780000Y-27940000D03*
%TO.P,REF\u002A\u002A,4*%
X17780000Y-25400000D03*
%TO.P,REF\u002A\u002A,3*%
X17780000Y-22860000D03*
%TO.P,REF\u002A\u002A,2*%
X17780000Y-20320000D03*
%TD*%
D10*
%TO.P,REF\u002A\u002A,1*%
%TO.N,default*%
X30480000Y-17780000D03*
D11*
%TO.P,REF\u002A\u002A,2*%
X30480000Y-20320000D03*
%TO.P,REF\u002A\u002A,3*%
X30480000Y-22860000D03*
%TO.P,REF\u002A\u002A,4*%
X30480000Y-25400000D03*
%TO.P,REF\u002A\u002A,5*%
X30480000Y-27940000D03*
%TO.P,REF\u002A\u002A,6*%
X30480000Y-30480000D03*
%TO.P,REF\u002A\u002A,7*%
X30480000Y-33020000D03*
%TO.P,REF\u002A\u002A,8*%
X30480000Y-35560000D03*
%TO.P,REF\u002A\u002A,9*%
X30480000Y-38100000D03*
%TO.P,REF\u002A\u002A,10*%
X30480000Y-40640000D03*
%TO.P,REF\u002A\u002A,11*%
X30480000Y-43180000D03*
%TO.P,REF\u002A\u002A,12*%
X30480000Y-45720000D03*
%TD*%
D12*
%TO.P,CY8CMBR3116,25*%
%TO.N,default*%
X24405864Y-31717903D03*
D13*
%TO.P,CY8CMBR3116,1*%
X23919728Y-29464000D03*
%TO.P,CY8CMBR3116,2*%
X23566175Y-29817554D03*
%TO.P,CY8CMBR3116,3*%
X23212621Y-30171107D03*
%TO.P,CY8CMBR3116,4*%
X22859068Y-30524660D03*
%TO.P,CY8CMBR3116,5*%
X22505515Y-30878214D03*
%TO.P,CY8CMBR3116,6*%
X22151961Y-31231767D03*
D14*
%TO.P,CY8CMBR3116,7*%
X22151961Y-32204039D03*
%TO.P,CY8CMBR3116,8*%
X22505515Y-32557592D03*
%TO.P,CY8CMBR3116,9*%
X22859068Y-32911146D03*
%TO.P,CY8CMBR3116,10*%
X23212621Y-33264699D03*
%TO.P,CY8CMBR3116,11*%
X23566175Y-33618252D03*
%TO.P,CY8CMBR3116,12*%
X23919728Y-33971806D03*
D13*
%TO.P,CY8CMBR3116,13*%
X24892000Y-33971806D03*
%TO.P,CY8CMBR3116,14*%
X25245553Y-33618252D03*
%TO.P,CY8CMBR3116,15*%
X25599107Y-33264699D03*
%TO.P,CY8CMBR3116,16*%
X25952660Y-32911146D03*
%TO.P,CY8CMBR3116,17*%
X26306213Y-32557592D03*
%TO.P,CY8CMBR3116,18*%
X26659767Y-32204039D03*
D14*
%TO.P,CY8CMBR3116,19*%
X26659767Y-31231767D03*
%TO.P,CY8CMBR3116,20*%
X26306213Y-30878214D03*
%TO.P,CY8CMBR3116,21*%
X25952660Y-30524660D03*
%TO.P,CY8CMBR3116,22*%
X25599107Y-30171107D03*
%TO.P,CY8CMBR3116,23*%
X25245553Y-29817554D03*
%TO.P,CY8CMBR3116,24*%
X24892000Y-29464000D03*
%TD*%
D15*
%TO.N,default*%
X24384000Y-31750000D03*
%TD*%
D16*
%TO.N,default*%
X19503108Y-35560000D02*
X17780000Y-35560000D01*
X22505515Y-32557592D02*
X19503108Y-35560000D01*
X27475728Y-33020000D02*
X30480000Y-33020000D01*
X26659767Y-32204039D02*
X27475728Y-33020000D01*
X27411534Y-30480000D02*
X30480000Y-30480000D01*
X26659767Y-31231767D02*
X27411534Y-30480000D01*
X18034000Y-30734000D02*
X17780000Y-30480000D01*
X21654194Y-30734000D02*
X18034000Y-30734000D01*
X22151961Y-31231767D02*
X21654194Y-30734000D01*
X21590000Y-32766000D02*
X18034000Y-32766000D01*
X18034000Y-32766000D02*
X17780000Y-33020000D01*
X22151961Y-32204039D02*
X21590000Y-32766000D01*
X22352000Y-29310486D02*
X22352000Y-27432000D01*
X22505515Y-30878214D02*
X19567301Y-27940000D01*
X22860000Y-29111379D02*
X22860000Y-25400000D01*
X22859068Y-30524660D02*
X22859068Y-30479068D01*
X22859068Y-32911146D02*
X22859068Y-33020932D01*
X22352000Y-34125320D02*
X22352000Y-36068000D01*
X22860000Y-34324427D02*
X22860000Y-38100000D01*
X25400000Y-40640000D02*
X30480000Y-45720000D01*
X24892000Y-33971806D02*
X25400000Y-34479806D01*
X25400000Y-34479806D02*
X25400000Y-40640000D01*
X25908000Y-38608000D02*
X30480000Y-43180000D01*
X25908000Y-34280699D02*
X25908000Y-38608000D01*
X25245553Y-33618252D02*
X25908000Y-34280699D01*
X26416000Y-36576000D02*
X30480000Y-40640000D01*
X25599107Y-33264699D02*
X26416000Y-34081592D01*
X26416000Y-34081592D02*
X26416000Y-36576000D01*
X30480000Y-37592000D02*
X30480000Y-38100000D01*
X25952660Y-33064660D02*
X30480000Y-37592000D01*
X25952660Y-32911146D02*
X25952660Y-33064660D01*
X30353000Y-38100000D02*
X30480000Y-38100000D01*
X29210000Y-35560000D02*
X30480000Y-35560000D01*
X26306213Y-32656213D02*
X29210000Y-35560000D01*
X26306213Y-32557592D02*
X26306213Y-32656213D01*
X26416000Y-26924000D02*
X30480000Y-22860000D01*
X26416000Y-29354214D02*
X26416000Y-26924000D01*
X25599107Y-30171107D02*
X26416000Y-29354214D01*
X25400000Y-28956000D02*
X25400000Y-22860000D01*
X24892000Y-29464000D02*
X25400000Y-28956000D01*
X25400000Y-22860000D02*
X30480000Y-17780000D01*
X30479999Y-20320000D02*
X30480000Y-20320000D01*
X25908000Y-24891999D02*
X30479999Y-20320000D01*
X25908000Y-29155107D02*
X25908000Y-24891999D01*
X25245553Y-29817554D02*
X25908000Y-29155107D01*
X30480000Y-25908000D02*
X30480000Y-25400000D01*
X25952660Y-30435340D02*
X30480000Y-25908000D01*
X25952660Y-30524660D02*
X25952660Y-30435340D01*
X19567301Y-27940000D02*
X17780000Y-27940000D01*
X26306213Y-30843787D02*
X29210000Y-27940000D01*
X26306213Y-30878214D02*
X26306213Y-30843787D01*
X29210000Y-27940000D02*
X30480000Y-27940000D01*
X23368000Y-23368000D02*
X17780000Y-17780000D01*
X23368000Y-28912272D02*
X23368000Y-23368000D01*
X23919728Y-29464000D02*
X23368000Y-28912272D01*
X22860000Y-25400000D02*
X17780000Y-20320000D01*
X23566175Y-29817554D02*
X22860000Y-29111379D01*
X22352000Y-27432000D02*
X17780000Y-22860000D01*
X23212621Y-30171107D02*
X22352000Y-29310486D01*
X22859068Y-30479068D02*
X17780000Y-25400000D01*
X22859068Y-33020932D02*
X17780000Y-38100000D01*
X23368000Y-40132000D02*
X17780000Y-45720000D01*
X23919728Y-33971806D02*
X23368000Y-34523534D01*
X23368000Y-34523534D02*
X23368000Y-40132000D01*
X22860000Y-38100000D02*
X17780000Y-43180000D01*
X23566175Y-33618252D02*
X22860000Y-34324427D01*
X22352000Y-36068000D02*
X17780000Y-40640000D01*
X23212621Y-33264699D02*
X22352000Y-34125320D01*
%TD*%
%TA.AperFunction,NonConductor*%
G36*
X16707703Y-21147200D02*
G01*
X16726819Y-21168029D01*
X16749892Y-21199788D01*
X16900213Y-21350109D01*
X17072182Y-21475050D01*
X17080946Y-21479516D01*
X17131742Y-21527491D01*
X17148536Y-21595312D01*
X17125998Y-21661447D01*
X17080946Y-21700484D01*
X17072182Y-21704949D01*
X16900213Y-21829890D01*
X16749894Y-21980209D01*
X16749890Y-21980214D01*
X16726818Y-22011971D01*
X16671489Y-22054637D01*
X16601875Y-22060616D01*
X16540080Y-22028011D01*
X16505723Y-21967172D01*
X16502500Y-21939086D01*
X16502500Y-21240913D01*
X16522185Y-21173874D01*
X16574989Y-21128119D01*
X16644147Y-21118175D01*
X16707703Y-21147200D01*
G37*
%TD.AperFunction*%
%TA.AperFunction,NonConductor*%
G36*
X31719919Y-21151987D02*
G01*
X31754277Y-21212825D01*
X31757500Y-21240913D01*
X31757500Y-21939086D01*
X31737815Y-22006125D01*
X31685011Y-22051880D01*
X31615853Y-22061824D01*
X31552297Y-22032799D01*
X31533182Y-22011971D01*
X31510109Y-21980214D01*
X31510105Y-21980209D01*
X31359786Y-21829890D01*
X31187820Y-21704951D01*
X31187115Y-21704591D01*
X31179054Y-21700485D01*
X31128259Y-21652512D01*
X31111463Y-21584692D01*
X31133999Y-21518556D01*
X31179054Y-21479515D01*
X31187816Y-21475051D01*
X31209789Y-21459086D01*
X31359786Y-21350109D01*
X31359788Y-21350106D01*
X31359792Y-21350104D01*
X31510104Y-21199792D01*
X31533181Y-21168028D01*
X31588510Y-21125363D01*
X31658123Y-21119382D01*
X31719919Y-21151987D01*
G37*
%TD.AperFunction*%
%TA.AperFunction,NonConductor*%
G36*
X29035398Y-20161953D02*
G01*
X29048834Y-20162914D01*
X29066560Y-20176184D01*
X29086703Y-20185383D01*
X29093985Y-20196714D01*
X29104767Y-20204786D01*
X29112504Y-20225531D01*
X29124477Y-20244161D01*
X29127628Y-20266079D01*
X29129184Y-20270250D01*
X29129500Y-20279096D01*
X29129500Y-20426286D01*
X29162753Y-20636240D01*
X29162754Y-20636244D01*
X29176491Y-20678523D01*
X29178486Y-20748365D01*
X29146241Y-20804521D01*
X26212181Y-23738582D01*
X26150858Y-23772067D01*
X26081166Y-23767083D01*
X26025233Y-23725211D01*
X26000816Y-23659747D01*
X26000500Y-23650901D01*
X26000500Y-23160096D01*
X26020185Y-23093057D01*
X26036814Y-23072420D01*
X28917819Y-20191414D01*
X28937255Y-20180802D01*
X28953989Y-20166302D01*
X28967320Y-20164385D01*
X28979142Y-20157930D01*
X29001228Y-20159509D01*
X29023147Y-20156358D01*
X29035398Y-20161953D01*
G37*
%TD.AperFunction*%
%TA.AperFunction,NonConductor*%
G36*
X19335703Y-20185384D02*
G01*
X19342181Y-20191416D01*
X22731181Y-23580416D01*
X22764666Y-23641739D01*
X22767500Y-23668097D01*
X22767500Y-24158903D01*
X22747815Y-24225942D01*
X22695011Y-24271697D01*
X22625853Y-24281641D01*
X22562297Y-24252616D01*
X22555819Y-24246584D01*
X19113757Y-20804522D01*
X19080272Y-20743199D01*
X19083507Y-20678523D01*
X19097246Y-20636243D01*
X19130500Y-20426287D01*
X19130500Y-20279096D01*
X19150185Y-20212058D01*
X19202989Y-20166303D01*
X19272147Y-20156359D01*
X19335703Y-20185384D01*
G37*
%TD.AperFunction*%
%TA.AperFunction,NonConductor*%
G36*
X16707703Y-23687200D02*
G01*
X16726819Y-23708029D01*
X16749892Y-23739788D01*
X16900213Y-23890109D01*
X17072182Y-24015050D01*
X17080946Y-24019516D01*
X17131742Y-24067491D01*
X17148536Y-24135312D01*
X17125998Y-24201447D01*
X17080946Y-24240484D01*
X17072182Y-24244949D01*
X16900213Y-24369890D01*
X16749894Y-24520209D01*
X16749890Y-24520214D01*
X16726818Y-24551971D01*
X16671489Y-24594637D01*
X16601875Y-24600616D01*
X16540080Y-24568011D01*
X16505723Y-24507172D01*
X16502500Y-24479086D01*
X16502500Y-23780913D01*
X16522185Y-23713874D01*
X16574989Y-23668119D01*
X16644147Y-23658175D01*
X16707703Y-23687200D01*
G37*
%TD.AperFunction*%
%TA.AperFunction,NonConductor*%
G36*
X31719919Y-23691987D02*
G01*
X31754277Y-23752825D01*
X31757500Y-23780913D01*
X31757500Y-24479086D01*
X31737815Y-24546125D01*
X31685011Y-24591880D01*
X31615853Y-24601824D01*
X31552297Y-24572799D01*
X31533182Y-24551971D01*
X31510109Y-24520214D01*
X31510105Y-24520209D01*
X31359786Y-24369890D01*
X31187820Y-24244951D01*
X31187115Y-24244591D01*
X31179054Y-24240485D01*
X31128259Y-24192512D01*
X31111463Y-24124692D01*
X31133999Y-24058556D01*
X31179054Y-24019515D01*
X31187816Y-24015051D01*
X31209789Y-23999086D01*
X31359786Y-23890109D01*
X31359788Y-23890106D01*
X31359792Y-23890104D01*
X31510104Y-23739792D01*
X31533181Y-23708028D01*
X31588510Y-23665363D01*
X31658123Y-23659382D01*
X31719919Y-23691987D01*
G37*
%TD.AperFunction*%
%TA.AperFunction,NonConductor*%
G36*
X29035398Y-22701952D02*
G01*
X29048834Y-22702913D01*
X29066560Y-22716183D01*
X29086703Y-22725382D01*
X29093985Y-22736713D01*
X29104767Y-22744785D01*
X29112504Y-22765530D01*
X29124477Y-22784160D01*
X29127628Y-22806078D01*
X29129184Y-22810249D01*
X29129500Y-22819095D01*
X29129500Y-22966286D01*
X29162754Y-23176244D01*
X29162754Y-23176247D01*
X29176491Y-23218523D01*
X29178486Y-23288364D01*
X29146241Y-23344522D01*
X26720181Y-25770583D01*
X26658858Y-25804068D01*
X26589166Y-25799084D01*
X26533233Y-25757212D01*
X26508816Y-25691748D01*
X26508500Y-25682902D01*
X26508500Y-25192095D01*
X26528185Y-25125056D01*
X26544814Y-25104419D01*
X28917819Y-22731413D01*
X28937255Y-22720801D01*
X28953989Y-22706301D01*
X28967320Y-22704384D01*
X28979142Y-22697929D01*
X29001228Y-22699508D01*
X29023147Y-22696357D01*
X29035398Y-22701952D01*
G37*
%TD.AperFunction*%
%TA.AperFunction,NonConductor*%
G36*
X19335703Y-22725384D02*
G01*
X19342181Y-22731416D01*
X22223181Y-25612416D01*
X22256666Y-25673739D01*
X22259500Y-25700097D01*
X22259500Y-26190903D01*
X22239815Y-26257942D01*
X22187011Y-26303697D01*
X22117853Y-26313641D01*
X22054297Y-26284616D01*
X22047819Y-26278584D01*
X19113757Y-23344522D01*
X19080272Y-23283199D01*
X19083507Y-23218523D01*
X19097246Y-23176243D01*
X19130500Y-22966287D01*
X19130500Y-22819097D01*
X19150185Y-22752058D01*
X19202989Y-22706303D01*
X19272147Y-22696359D01*
X19335703Y-22725384D01*
G37*
%TD.AperFunction*%
%TA.AperFunction,NonConductor*%
G36*
X16707703Y-26227200D02*
G01*
X16726819Y-26248029D01*
X16749892Y-26279788D01*
X16900213Y-26430109D01*
X17072182Y-26555050D01*
X17080946Y-26559516D01*
X17131742Y-26607491D01*
X17148536Y-26675312D01*
X17125998Y-26741447D01*
X17080946Y-26780484D01*
X17072182Y-26784949D01*
X16900213Y-26909890D01*
X16749894Y-27060209D01*
X16749890Y-27060214D01*
X16726818Y-27091971D01*
X16671489Y-27134637D01*
X16601875Y-27140616D01*
X16540080Y-27108011D01*
X16505723Y-27047172D01*
X16502500Y-27019086D01*
X16502500Y-26320913D01*
X16522185Y-26253874D01*
X16574989Y-26208119D01*
X16644147Y-26198175D01*
X16707703Y-26227200D01*
G37*
%TD.AperFunction*%
%TA.AperFunction,NonConductor*%
G36*
X31719919Y-26231987D02*
G01*
X31754277Y-26292825D01*
X31757500Y-26320913D01*
X31757500Y-27019086D01*
X31737815Y-27086125D01*
X31685011Y-27131880D01*
X31615853Y-27141824D01*
X31552297Y-27112799D01*
X31533182Y-27091971D01*
X31510109Y-27060214D01*
X31510105Y-27060209D01*
X31359786Y-26909890D01*
X31187820Y-26784951D01*
X31187115Y-26784591D01*
X31179054Y-26780485D01*
X31128259Y-26732512D01*
X31111463Y-26664692D01*
X31133999Y-26598556D01*
X31179054Y-26559515D01*
X31187816Y-26555051D01*
X31276987Y-26490265D01*
X31359786Y-26430109D01*
X31359788Y-26430106D01*
X31359792Y-26430104D01*
X31510104Y-26279792D01*
X31533181Y-26248028D01*
X31588510Y-26205363D01*
X31658123Y-26199382D01*
X31719919Y-26231987D01*
G37*
%TD.AperFunction*%
%TA.AperFunction,NonConductor*%
G36*
X29035398Y-25241953D02*
G01*
X29048834Y-25242914D01*
X29066560Y-25256184D01*
X29086703Y-25265383D01*
X29093985Y-25276714D01*
X29104767Y-25284786D01*
X29112504Y-25305531D01*
X29124477Y-25324161D01*
X29127628Y-25346079D01*
X29129184Y-25350250D01*
X29129500Y-25359096D01*
X29129500Y-25506286D01*
X29162753Y-25716239D01*
X29162753Y-25716241D01*
X29162754Y-25716243D01*
X29217431Y-25884522D01*
X29228444Y-25918414D01*
X29319827Y-26097764D01*
X29332723Y-26166434D01*
X29306447Y-26231174D01*
X29297023Y-26241740D01*
X27228181Y-28310583D01*
X27166858Y-28344068D01*
X27097166Y-28339084D01*
X27041233Y-28297212D01*
X27016816Y-28231748D01*
X27016500Y-28222902D01*
X27016500Y-27224096D01*
X27036185Y-27157057D01*
X27052814Y-27136420D01*
X28917819Y-25271414D01*
X28937255Y-25260802D01*
X28953989Y-25246302D01*
X28967320Y-25244385D01*
X28979142Y-25237930D01*
X29001228Y-25239509D01*
X29023147Y-25236358D01*
X29035398Y-25241953D01*
G37*
%TD.AperFunction*%
%TA.AperFunction,NonConductor*%
G36*
X19335703Y-25265384D02*
G01*
X19342181Y-25271416D01*
X21715181Y-27644416D01*
X21748666Y-27705739D01*
X21751500Y-27732097D01*
X21751500Y-28222903D01*
X21731815Y-28289942D01*
X21679011Y-28335697D01*
X21609853Y-28345641D01*
X21546297Y-28316616D01*
X21539819Y-28310584D01*
X19113757Y-25884522D01*
X19080272Y-25823199D01*
X19083507Y-25758523D01*
X19097246Y-25716243D01*
X19130500Y-25506287D01*
X19130500Y-25359096D01*
X19150185Y-25292058D01*
X19202989Y-25246303D01*
X19272147Y-25236359D01*
X19335703Y-25265384D01*
G37*
%TD.AperFunction*%
%TA.AperFunction,NonConductor*%
G36*
X29145362Y-16522185D02*
G01*
X29191117Y-16574989D01*
X29201061Y-16644147D01*
X29187153Y-16685930D01*
X29186204Y-16687667D01*
X29135908Y-16822517D01*
X29129501Y-16882116D01*
X29129501Y-16882123D01*
X29129500Y-16882135D01*
X29129500Y-18229902D01*
X29109815Y-18296941D01*
X29093181Y-18317583D01*
X24919481Y-22491282D01*
X24919479Y-22491284D01*
X24898185Y-22528167D01*
X24889185Y-22543757D01*
X24840423Y-22628215D01*
X24799499Y-22780943D01*
X24799499Y-22780945D01*
X24799499Y-22949046D01*
X24799500Y-22949059D01*
X24799500Y-28628491D01*
X24779815Y-28695530D01*
X24750988Y-28726866D01*
X24723291Y-28748119D01*
X24723284Y-28748124D01*
X24493544Y-28977865D01*
X24432221Y-29011350D01*
X24362529Y-29006366D01*
X24318184Y-28977866D01*
X24088443Y-28748126D01*
X24088442Y-28748125D01*
X24088435Y-28748119D01*
X24017013Y-28693314D01*
X23975810Y-28636886D01*
X23968500Y-28594939D01*
X23968500Y-23288945D01*
X23968500Y-23288943D01*
X23927577Y-23136216D01*
X23911711Y-23108735D01*
X23848524Y-22999290D01*
X23848521Y-22999286D01*
X23848520Y-22999284D01*
X23736716Y-22887480D01*
X23736715Y-22887479D01*
X23732385Y-22883149D01*
X23732374Y-22883139D01*
X19166818Y-18317583D01*
X19133333Y-18256260D01*
X19130499Y-18229902D01*
X19130499Y-16882129D01*
X19130498Y-16882123D01*
X19130497Y-16882116D01*
X19124091Y-16822517D01*
X19073796Y-16687669D01*
X19073795Y-16687667D01*
X19072847Y-16685930D01*
X19072425Y-16683994D01*
X19070697Y-16679359D01*
X19071363Y-16679110D01*
X19057993Y-16617658D01*
X19082407Y-16552193D01*
X19138340Y-16510320D01*
X19181677Y-16502500D01*
X29078323Y-16502500D01*
X29145362Y-16522185D01*
G37*
%TD.AperFunction*%
%TA.AperFunction,NonConductor*%
G36*
X16707703Y-28767200D02*
G01*
X16726819Y-28788029D01*
X16749892Y-28819788D01*
X16900213Y-28970109D01*
X17072182Y-29095050D01*
X17080946Y-29099516D01*
X17131742Y-29147491D01*
X17148536Y-29215312D01*
X17125998Y-29281447D01*
X17080946Y-29320484D01*
X17072182Y-29324949D01*
X16900213Y-29449890D01*
X16749894Y-29600209D01*
X16749890Y-29600214D01*
X16726818Y-29631971D01*
X16671489Y-29674637D01*
X16601875Y-29680616D01*
X16540080Y-29648011D01*
X16505723Y-29587172D01*
X16502500Y-29559086D01*
X16502500Y-28860913D01*
X16522185Y-28793874D01*
X16574989Y-28748119D01*
X16644147Y-28738175D01*
X16707703Y-28767200D01*
G37*
%TD.AperFunction*%
%TA.AperFunction,NonConductor*%
G36*
X31719919Y-28771987D02*
G01*
X31754277Y-28832825D01*
X31757500Y-28860913D01*
X31757500Y-29559086D01*
X31737815Y-29626125D01*
X31685011Y-29671880D01*
X31615853Y-29681824D01*
X31552297Y-29652799D01*
X31533182Y-29631971D01*
X31510109Y-29600214D01*
X31510105Y-29600209D01*
X31359786Y-29449890D01*
X31187820Y-29324951D01*
X31187115Y-29324591D01*
X31179054Y-29320485D01*
X31128259Y-29272512D01*
X31111463Y-29204692D01*
X31133999Y-29138556D01*
X31179054Y-29099515D01*
X31187816Y-29095051D01*
X31209789Y-29079086D01*
X31359786Y-28970109D01*
X31359788Y-28970106D01*
X31359792Y-28970104D01*
X31510104Y-28819792D01*
X31533181Y-28788028D01*
X31588510Y-28745363D01*
X31658123Y-28739382D01*
X31719919Y-28771987D01*
G37*
%TD.AperFunction*%
%TA.AperFunction,NonConductor*%
G36*
X29364439Y-28737307D02*
G01*
X29420373Y-28779178D01*
X29421396Y-28780565D01*
X29449896Y-28819792D01*
X29449898Y-28819794D01*
X29600213Y-28970109D01*
X29772182Y-29095050D01*
X29780946Y-29099516D01*
X29831742Y-29147491D01*
X29848536Y-29215312D01*
X29825998Y-29281447D01*
X29780946Y-29320484D01*
X29772182Y-29324949D01*
X29600213Y-29449890D01*
X29449890Y-29600213D01*
X29324948Y-29772184D01*
X29324947Y-29772185D01*
X29304765Y-29811795D01*
X29256791Y-29862591D01*
X29194281Y-29879500D01*
X28419097Y-29879500D01*
X28352058Y-29859815D01*
X28306303Y-29807011D01*
X28296359Y-29737853D01*
X28325384Y-29674297D01*
X28331416Y-29667819D01*
X28549345Y-29449890D01*
X29233427Y-28765806D01*
X29294748Y-28732323D01*
X29364439Y-28737307D01*
G37*
%TD.AperFunction*%
%TA.AperFunction,NonConductor*%
G36*
X19334243Y-28560185D02*
G01*
X19354885Y-28576819D01*
X20699885Y-29921819D01*
X20733370Y-29983142D01*
X20728386Y-30052834D01*
X20686514Y-30108767D01*
X20621050Y-30133184D01*
X20612204Y-30133500D01*
X19177506Y-30133500D01*
X19110467Y-30113815D01*
X19064712Y-30061011D01*
X19059575Y-30047819D01*
X19031557Y-29961588D01*
X19031555Y-29961585D01*
X19031555Y-29961583D01*
X18952796Y-29807011D01*
X18935051Y-29772184D01*
X18935049Y-29772181D01*
X18935048Y-29772179D01*
X18810109Y-29600213D01*
X18659786Y-29449890D01*
X18487820Y-29324951D01*
X18487115Y-29324591D01*
X18479054Y-29320485D01*
X18428259Y-29272512D01*
X18411463Y-29204692D01*
X18433999Y-29138556D01*
X18479054Y-29099515D01*
X18487816Y-29095051D01*
X18509789Y-29079086D01*
X18659786Y-28970109D01*
X18659788Y-28970106D01*
X18659792Y-28970104D01*
X18810104Y-28819792D01*
X18810106Y-28819788D01*
X18810109Y-28819786D01*
X18870032Y-28737307D01*
X18935051Y-28647816D01*
X18944898Y-28628491D01*
X18955235Y-28608205D01*
X18965683Y-28597142D01*
X18972006Y-28583297D01*
X18989187Y-28572255D01*
X19003209Y-28557409D01*
X19018888Y-28553167D01*
X19030784Y-28545523D01*
X19065719Y-28540500D01*
X19267204Y-28540500D01*
X19334243Y-28560185D01*
G37*
%TD.AperFunction*%
%TA.AperFunction,NonConductor*%
G36*
X21391345Y-31354185D02*
G01*
X21422680Y-31383012D01*
X21436084Y-31400481D01*
X21436089Y-31400487D01*
X21436091Y-31400489D01*
X21665824Y-31630221D01*
X21699309Y-31691544D01*
X21694325Y-31761235D01*
X21665825Y-31805583D01*
X21436087Y-32035323D01*
X21373422Y-32116988D01*
X21316993Y-32158190D01*
X21275047Y-32165500D01*
X18886758Y-32165500D01*
X18819719Y-32145815D01*
X18799077Y-32129181D01*
X18659786Y-31989890D01*
X18487820Y-31864951D01*
X18487115Y-31864591D01*
X18479054Y-31860485D01*
X18428259Y-31812512D01*
X18411463Y-31744692D01*
X18433999Y-31678556D01*
X18479054Y-31639515D01*
X18487816Y-31635051D01*
X18509789Y-31619086D01*
X18659786Y-31510109D01*
X18659788Y-31510106D01*
X18659792Y-31510104D01*
X18799077Y-31370819D01*
X18860400Y-31337334D01*
X18886758Y-31334500D01*
X21324306Y-31334500D01*
X21391345Y-31354185D01*
G37*
%TD.AperFunction*%
%TA.AperFunction,NonConductor*%
G36*
X16707703Y-31307200D02*
G01*
X16726819Y-31328029D01*
X16749892Y-31359788D01*
X16900213Y-31510109D01*
X17072182Y-31635050D01*
X17080946Y-31639516D01*
X17131742Y-31687491D01*
X17148536Y-31755312D01*
X17125998Y-31821447D01*
X17080946Y-31860484D01*
X17072182Y-31864949D01*
X16900213Y-31989890D01*
X16749894Y-32140209D01*
X16749890Y-32140214D01*
X16726818Y-32171971D01*
X16671489Y-32214637D01*
X16601875Y-32220616D01*
X16540080Y-32188011D01*
X16505723Y-32127172D01*
X16502500Y-32099086D01*
X16502500Y-31400913D01*
X16522185Y-31333874D01*
X16574989Y-31288119D01*
X16644147Y-31278175D01*
X16707703Y-31307200D01*
G37*
%TD.AperFunction*%
%TA.AperFunction,NonConductor*%
G36*
X31719919Y-31311987D02*
G01*
X31754277Y-31372825D01*
X31757500Y-31400913D01*
X31757500Y-32099086D01*
X31737815Y-32166125D01*
X31685011Y-32211880D01*
X31615853Y-32221824D01*
X31552297Y-32192799D01*
X31533182Y-32171971D01*
X31510109Y-32140214D01*
X31510105Y-32140209D01*
X31359786Y-31989890D01*
X31187820Y-31864951D01*
X31187115Y-31864591D01*
X31179054Y-31860485D01*
X31128259Y-31812512D01*
X31111463Y-31744692D01*
X31133999Y-31678556D01*
X31179054Y-31639515D01*
X31187816Y-31635051D01*
X31209789Y-31619086D01*
X31359786Y-31510109D01*
X31359788Y-31510106D01*
X31359792Y-31510104D01*
X31510104Y-31359792D01*
X31533181Y-31328028D01*
X31588510Y-31285363D01*
X31658123Y-31279382D01*
X31719919Y-31311987D01*
G37*
%TD.AperFunction*%
%TA.AperFunction,NonConductor*%
G36*
X29261320Y-31100185D02*
G01*
X29304765Y-31148205D01*
X29324947Y-31187814D01*
X29324948Y-31187815D01*
X29449890Y-31359786D01*
X29600213Y-31510109D01*
X29772182Y-31635050D01*
X29780946Y-31639516D01*
X29831742Y-31687491D01*
X29848536Y-31755312D01*
X29825998Y-31821447D01*
X29780946Y-31860484D01*
X29772182Y-31864949D01*
X29600213Y-31989890D01*
X29449890Y-32140213D01*
X29324948Y-32312184D01*
X29324947Y-32312185D01*
X29304765Y-32351795D01*
X29256791Y-32402591D01*
X29194281Y-32419500D01*
X27775825Y-32419500D01*
X27708786Y-32399815D01*
X27688144Y-32383181D01*
X27471178Y-32166215D01*
X27444295Y-32125979D01*
X27443228Y-32123402D01*
X27375647Y-32035329D01*
X27375642Y-32035323D01*
X27145901Y-31805583D01*
X27112416Y-31744260D01*
X27117400Y-31674569D01*
X27145899Y-31630223D01*
X27375641Y-31400482D01*
X27443228Y-31312403D01*
X27444295Y-31309824D01*
X27448928Y-31302890D01*
X27450027Y-31297842D01*
X27471171Y-31269596D01*
X27623951Y-31116817D01*
X27685274Y-31083334D01*
X27711631Y-31080500D01*
X29194281Y-31080500D01*
X29261320Y-31100185D01*
G37*
%TD.AperFunction*%
%TA.AperFunction,NonConductor*%
G36*
X16707703Y-33847200D02*
G01*
X16726819Y-33868029D01*
X16749892Y-33899788D01*
X16900213Y-34050109D01*
X17072182Y-34175050D01*
X17080946Y-34179516D01*
X17131742Y-34227491D01*
X17148536Y-34295312D01*
X17125998Y-34361447D01*
X17080946Y-34400484D01*
X17072182Y-34404949D01*
X16900213Y-34529890D01*
X16749894Y-34680209D01*
X16749890Y-34680214D01*
X16726818Y-34711971D01*
X16671489Y-34754637D01*
X16601875Y-34760616D01*
X16540080Y-34728011D01*
X16505723Y-34667172D01*
X16502500Y-34639086D01*
X16502500Y-33940913D01*
X16522185Y-33873874D01*
X16574989Y-33828119D01*
X16644147Y-33818175D01*
X16707703Y-33847200D01*
G37*
%TD.AperFunction*%
%TA.AperFunction,NonConductor*%
G36*
X31719919Y-33851987D02*
G01*
X31754277Y-33912825D01*
X31757500Y-33940913D01*
X31757500Y-34639086D01*
X31737815Y-34706125D01*
X31685011Y-34751880D01*
X31615853Y-34761824D01*
X31552297Y-34732799D01*
X31533182Y-34711971D01*
X31510109Y-34680214D01*
X31510105Y-34680209D01*
X31359786Y-34529890D01*
X31187820Y-34404951D01*
X31187115Y-34404591D01*
X31179054Y-34400485D01*
X31128259Y-34352512D01*
X31111463Y-34284692D01*
X31133999Y-34218556D01*
X31179054Y-34179515D01*
X31187816Y-34175051D01*
X31209789Y-34159086D01*
X31359786Y-34050109D01*
X31359788Y-34050106D01*
X31359792Y-34050104D01*
X31510104Y-33899792D01*
X31533181Y-33868028D01*
X31588510Y-33825363D01*
X31658123Y-33819382D01*
X31719919Y-33851987D01*
G37*
%TD.AperFunction*%
%TA.AperFunction,NonConductor*%
G36*
X29208883Y-33624787D02*
G01*
X29224088Y-33624136D01*
X29241726Y-33634431D01*
X29261320Y-33640185D01*
X29272216Y-33652228D01*
X29284430Y-33659358D01*
X29304765Y-33688205D01*
X29324947Y-33727814D01*
X29324948Y-33727815D01*
X29449890Y-33899786D01*
X29600213Y-34050109D01*
X29772182Y-34175050D01*
X29780946Y-34179516D01*
X29831742Y-34227491D01*
X29848536Y-34295312D01*
X29825998Y-34361447D01*
X29780946Y-34400484D01*
X29772182Y-34404949D01*
X29600213Y-34529890D01*
X29449898Y-34680205D01*
X29449893Y-34680211D01*
X29421422Y-34719397D01*
X29366091Y-34762061D01*
X29296478Y-34768039D01*
X29234683Y-34735431D01*
X29233425Y-34734190D01*
X28331416Y-33832181D01*
X28297931Y-33770858D01*
X28302915Y-33701166D01*
X28344787Y-33645233D01*
X28410251Y-33620816D01*
X28419097Y-33620500D01*
X29194281Y-33620500D01*
X29208883Y-33624787D01*
G37*
%TD.AperFunction*%
%TA.AperFunction,NonConductor*%
G36*
X20615049Y-33386185D02*
G01*
X20660804Y-33438989D01*
X20670748Y-33508147D01*
X20641723Y-33571703D01*
X20635691Y-33578181D01*
X19290692Y-34923181D01*
X19263764Y-34937884D01*
X19237946Y-34954477D01*
X19231745Y-34955368D01*
X19229369Y-34956666D01*
X19203011Y-34959500D01*
X19065719Y-34959500D01*
X18998680Y-34939815D01*
X18955235Y-34891795D01*
X18935052Y-34852185D01*
X18935051Y-34852184D01*
X18810109Y-34680213D01*
X18659786Y-34529890D01*
X18487820Y-34404951D01*
X18487115Y-34404591D01*
X18479054Y-34400485D01*
X18428259Y-34352512D01*
X18411463Y-34284692D01*
X18433999Y-34218556D01*
X18479054Y-34179515D01*
X18487816Y-34175051D01*
X18509789Y-34159086D01*
X18659786Y-34050109D01*
X18659788Y-34050106D01*
X18659792Y-34050104D01*
X18810104Y-33899792D01*
X18810106Y-33899788D01*
X18810109Y-33899786D01*
X18935048Y-33727820D01*
X18935047Y-33727820D01*
X18935051Y-33727816D01*
X19031557Y-33538412D01*
X19059575Y-33452180D01*
X19099013Y-33394506D01*
X19163372Y-33367308D01*
X19177506Y-33366500D01*
X20548010Y-33366500D01*
X20615049Y-33386185D01*
G37*
%TD.AperFunction*%
%TA.AperFunction,NonConductor*%
G36*
X16707703Y-36387200D02*
G01*
X16726819Y-36408029D01*
X16749892Y-36439788D01*
X16900213Y-36590109D01*
X17072182Y-36715050D01*
X17080946Y-36719516D01*
X17131742Y-36767491D01*
X17148536Y-36835312D01*
X17125998Y-36901447D01*
X17080946Y-36940484D01*
X17072182Y-36944949D01*
X16900213Y-37069890D01*
X16749894Y-37220209D01*
X16749890Y-37220214D01*
X16726818Y-37251971D01*
X16671489Y-37294637D01*
X16601875Y-37300616D01*
X16540080Y-37268011D01*
X16505723Y-37207172D01*
X16502500Y-37179086D01*
X16502500Y-36480913D01*
X16522185Y-36413874D01*
X16574989Y-36368119D01*
X16644147Y-36358175D01*
X16707703Y-36387200D01*
G37*
%TD.AperFunction*%
%TA.AperFunction,NonConductor*%
G36*
X31719919Y-36391987D02*
G01*
X31754277Y-36452825D01*
X31757500Y-36480913D01*
X31757500Y-37179086D01*
X31737815Y-37246125D01*
X31685011Y-37291880D01*
X31615853Y-37301824D01*
X31552297Y-37272799D01*
X31533182Y-37251971D01*
X31510109Y-37220214D01*
X31510105Y-37220209D01*
X31359786Y-37069890D01*
X31187820Y-36944951D01*
X31187115Y-36944591D01*
X31179054Y-36940485D01*
X31128259Y-36892512D01*
X31111463Y-36824692D01*
X31133999Y-36758556D01*
X31179054Y-36719515D01*
X31187816Y-36715051D01*
X31209789Y-36699086D01*
X31359786Y-36590109D01*
X31359788Y-36590106D01*
X31359792Y-36590104D01*
X31510104Y-36439792D01*
X31533181Y-36408028D01*
X31588510Y-36365363D01*
X31658123Y-36359382D01*
X31719919Y-36391987D01*
G37*
%TD.AperFunction*%
%TA.AperFunction,NonConductor*%
G36*
X21670834Y-35160914D02*
G01*
X21726767Y-35202786D01*
X21751184Y-35268250D01*
X21751500Y-35277096D01*
X21751500Y-35767902D01*
X21731815Y-35834941D01*
X21715181Y-35855583D01*
X19342181Y-38228583D01*
X19280858Y-38262068D01*
X19211166Y-38257084D01*
X19155233Y-38215212D01*
X19130816Y-38149748D01*
X19130500Y-38140902D01*
X19130500Y-37993713D01*
X19097246Y-37783757D01*
X19083506Y-37741473D01*
X19081512Y-37671635D01*
X19113755Y-37615478D01*
X21539821Y-35189413D01*
X21601142Y-35155930D01*
X21670834Y-35160914D01*
G37*
%TD.AperFunction*%
%TA.AperFunction,NonConductor*%
G36*
X27221703Y-35183384D02*
G01*
X27228181Y-35189416D01*
X29297024Y-37258259D01*
X29330509Y-37319582D01*
X29325525Y-37389274D01*
X29319828Y-37402235D01*
X29228444Y-37581585D01*
X29162753Y-37783760D01*
X29129500Y-37993713D01*
X29129500Y-38140903D01*
X29109815Y-38207942D01*
X29057011Y-38253697D01*
X28987853Y-38263641D01*
X28924297Y-38234616D01*
X28917819Y-38228584D01*
X27052819Y-36363584D01*
X27019334Y-36302261D01*
X27016500Y-36275903D01*
X27016500Y-35277097D01*
X27036185Y-35210058D01*
X27088989Y-35164303D01*
X27158147Y-35154359D01*
X27221703Y-35183384D01*
G37*
%TD.AperFunction*%
%TA.AperFunction,NonConductor*%
G36*
X16707703Y-38927200D02*
G01*
X16726819Y-38948029D01*
X16749892Y-38979788D01*
X16900213Y-39130109D01*
X17072182Y-39255050D01*
X17080946Y-39259516D01*
X17131742Y-39307491D01*
X17148536Y-39375312D01*
X17125998Y-39441447D01*
X17080946Y-39480484D01*
X17072182Y-39484949D01*
X16900213Y-39609890D01*
X16749894Y-39760209D01*
X16749890Y-39760214D01*
X16726818Y-39791971D01*
X16671489Y-39834637D01*
X16601875Y-39840616D01*
X16540080Y-39808011D01*
X16505723Y-39747172D01*
X16502500Y-39719086D01*
X16502500Y-39020913D01*
X16522185Y-38953874D01*
X16574989Y-38908119D01*
X16644147Y-38898175D01*
X16707703Y-38927200D01*
G37*
%TD.AperFunction*%
%TA.AperFunction,NonConductor*%
G36*
X31719919Y-38931987D02*
G01*
X31754277Y-38992825D01*
X31757500Y-39020913D01*
X31757500Y-39719086D01*
X31737815Y-39786125D01*
X31685011Y-39831880D01*
X31615853Y-39841824D01*
X31552297Y-39812799D01*
X31533182Y-39791971D01*
X31510109Y-39760214D01*
X31510105Y-39760209D01*
X31359786Y-39609890D01*
X31187820Y-39484951D01*
X31187115Y-39484591D01*
X31179054Y-39480485D01*
X31128259Y-39432512D01*
X31111463Y-39364692D01*
X31133999Y-39298556D01*
X31179054Y-39259515D01*
X31187816Y-39255051D01*
X31236156Y-39219930D01*
X31359786Y-39130109D01*
X31359788Y-39130106D01*
X31359792Y-39130104D01*
X31510104Y-38979792D01*
X31533181Y-38948028D01*
X31588510Y-38905363D01*
X31658123Y-38899382D01*
X31719919Y-38931987D01*
G37*
%TD.AperFunction*%
%TA.AperFunction,NonConductor*%
G36*
X22178834Y-37192914D02*
G01*
X22234767Y-37234786D01*
X22259184Y-37300250D01*
X22259500Y-37309096D01*
X22259500Y-37799902D01*
X22239815Y-37866941D01*
X22223181Y-37887583D01*
X19342181Y-40768583D01*
X19280858Y-40802068D01*
X19211166Y-40797084D01*
X19155233Y-40755212D01*
X19130816Y-40689748D01*
X19130500Y-40680902D01*
X19130500Y-40533713D01*
X19125273Y-40500709D01*
X19097246Y-40323757D01*
X19083506Y-40281473D01*
X19081512Y-40211635D01*
X19113755Y-40155478D01*
X22047821Y-37221413D01*
X22109142Y-37187930D01*
X22178834Y-37192914D01*
G37*
%TD.AperFunction*%
%TA.AperFunction,NonConductor*%
G36*
X26713703Y-37723384D02*
G01*
X26720181Y-37729416D01*
X29146241Y-40155476D01*
X29179726Y-40216799D01*
X29176492Y-40281473D01*
X29162753Y-40323757D01*
X29129500Y-40533713D01*
X29129500Y-40680903D01*
X29109815Y-40747942D01*
X29057011Y-40793697D01*
X28987853Y-40803641D01*
X28924297Y-40774616D01*
X28917819Y-40768584D01*
X26544819Y-38395584D01*
X26511334Y-38334261D01*
X26508500Y-38307903D01*
X26508500Y-37817097D01*
X26528185Y-37750058D01*
X26580989Y-37704303D01*
X26650147Y-37694359D01*
X26713703Y-37723384D01*
G37*
%TD.AperFunction*%
%TA.AperFunction,NonConductor*%
G36*
X16707703Y-41467200D02*
G01*
X16726819Y-41488029D01*
X16749892Y-41519788D01*
X16900213Y-41670109D01*
X17072182Y-41795050D01*
X17080946Y-41799516D01*
X17131742Y-41847491D01*
X17148536Y-41915312D01*
X17125998Y-41981447D01*
X17080946Y-42020484D01*
X17072182Y-42024949D01*
X16900213Y-42149890D01*
X16749894Y-42300209D01*
X16749890Y-42300214D01*
X16726818Y-42331971D01*
X16671489Y-42374637D01*
X16601875Y-42380616D01*
X16540080Y-42348011D01*
X16505723Y-42287172D01*
X16502500Y-42259086D01*
X16502500Y-41560913D01*
X16522185Y-41493874D01*
X16574989Y-41448119D01*
X16644147Y-41438175D01*
X16707703Y-41467200D01*
G37*
%TD.AperFunction*%
%TA.AperFunction,NonConductor*%
G36*
X31719919Y-41471987D02*
G01*
X31754277Y-41532825D01*
X31757500Y-41560913D01*
X31757500Y-42259086D01*
X31737815Y-42326125D01*
X31685011Y-42371880D01*
X31615853Y-42381824D01*
X31552297Y-42352799D01*
X31533182Y-42331971D01*
X31510109Y-42300214D01*
X31510105Y-42300209D01*
X31359786Y-42149890D01*
X31187820Y-42024951D01*
X31187115Y-42024591D01*
X31179054Y-42020485D01*
X31128259Y-41972512D01*
X31111463Y-41904692D01*
X31133999Y-41838556D01*
X31179054Y-41799515D01*
X31187816Y-41795051D01*
X31209789Y-41779086D01*
X31359786Y-41670109D01*
X31359788Y-41670106D01*
X31359792Y-41670104D01*
X31510104Y-41519792D01*
X31533181Y-41488028D01*
X31588510Y-41445363D01*
X31658123Y-41439382D01*
X31719919Y-41471987D01*
G37*
%TD.AperFunction*%
%TA.AperFunction,NonConductor*%
G36*
X22686834Y-39224914D02*
G01*
X22742767Y-39266786D01*
X22767184Y-39332250D01*
X22767500Y-39341096D01*
X22767500Y-39831902D01*
X22747815Y-39898941D01*
X22731181Y-39919583D01*
X19342181Y-43308583D01*
X19280858Y-43342068D01*
X19211166Y-43337084D01*
X19155233Y-43295212D01*
X19130816Y-43229748D01*
X19130500Y-43220902D01*
X19130500Y-43073713D01*
X19097246Y-42863757D01*
X19083506Y-42821473D01*
X19081512Y-42751635D01*
X19113755Y-42695478D01*
X22555821Y-39253413D01*
X22617142Y-39219930D01*
X22686834Y-39224914D01*
G37*
%TD.AperFunction*%
%TA.AperFunction,NonConductor*%
G36*
X26205703Y-39755384D02*
G01*
X26212181Y-39761416D01*
X29146241Y-42695476D01*
X29179726Y-42756799D01*
X29176492Y-42821473D01*
X29162753Y-42863757D01*
X29129500Y-43073713D01*
X29129500Y-43220903D01*
X29109815Y-43287942D01*
X29057011Y-43333697D01*
X28987853Y-43343641D01*
X28924297Y-43314616D01*
X28917819Y-43308584D01*
X26036819Y-40427584D01*
X26003334Y-40366261D01*
X26000500Y-40339903D01*
X26000500Y-39849097D01*
X26020185Y-39782058D01*
X26072989Y-39736303D01*
X26142147Y-39726359D01*
X26205703Y-39755384D01*
G37*
%TD.AperFunction*%
%TA.AperFunction,NonConductor*%
G36*
X16707703Y-44007200D02*
G01*
X16726819Y-44028029D01*
X16749892Y-44059788D01*
X16900213Y-44210109D01*
X17072182Y-44335050D01*
X17080946Y-44339516D01*
X17131742Y-44387491D01*
X17148536Y-44455312D01*
X17125998Y-44521447D01*
X17080946Y-44560484D01*
X17072182Y-44564949D01*
X16900213Y-44689890D01*
X16749894Y-44840209D01*
X16749890Y-44840214D01*
X16726818Y-44871971D01*
X16671489Y-44914637D01*
X16601875Y-44920616D01*
X16540080Y-44888011D01*
X16505723Y-44827172D01*
X16502500Y-44799086D01*
X16502500Y-44100913D01*
X16522185Y-44033874D01*
X16574989Y-43988119D01*
X16644147Y-43978175D01*
X16707703Y-44007200D01*
G37*
%TD.AperFunction*%
%TA.AperFunction,NonConductor*%
G36*
X31719919Y-44011987D02*
G01*
X31754277Y-44072825D01*
X31757500Y-44100913D01*
X31757500Y-44799086D01*
X31737815Y-44866125D01*
X31685011Y-44911880D01*
X31615853Y-44921824D01*
X31552297Y-44892799D01*
X31533182Y-44871971D01*
X31510109Y-44840214D01*
X31510105Y-44840209D01*
X31359786Y-44689890D01*
X31187820Y-44564951D01*
X31187115Y-44564591D01*
X31179054Y-44560485D01*
X31128259Y-44512512D01*
X31111463Y-44444692D01*
X31133999Y-44378556D01*
X31179054Y-44339515D01*
X31187816Y-44335051D01*
X31209789Y-44319086D01*
X31359786Y-44210109D01*
X31359788Y-44210106D01*
X31359792Y-44210104D01*
X31510104Y-44059792D01*
X31533181Y-44028028D01*
X31588510Y-43985363D01*
X31658123Y-43979382D01*
X31719919Y-44011987D01*
G37*
%TD.AperFunction*%
%TA.AperFunction,NonConductor*%
G36*
X24449196Y-34429439D02*
G01*
X24493544Y-34457940D01*
X24723278Y-34687674D01*
X24723286Y-34687681D01*
X24750986Y-34708936D01*
X24792189Y-34765364D01*
X24799500Y-34807312D01*
X24799500Y-40553330D01*
X24799499Y-40553348D01*
X24799499Y-40719054D01*
X24799498Y-40719054D01*
X24840423Y-40871785D01*
X24869358Y-40921900D01*
X24869359Y-40921904D01*
X24869360Y-40921904D01*
X24919479Y-41008714D01*
X24919481Y-41008717D01*
X25038349Y-41127585D01*
X25038355Y-41127590D01*
X29146241Y-45235476D01*
X29179726Y-45296799D01*
X29176492Y-45361473D01*
X29162753Y-45403757D01*
X29129500Y-45613713D01*
X29129500Y-45826286D01*
X29162753Y-46036239D01*
X29228444Y-46238414D01*
X29324951Y-46427820D01*
X29449890Y-46599786D01*
X29600209Y-46750105D01*
X29600214Y-46750109D01*
X29631971Y-46773182D01*
X29674637Y-46828511D01*
X29680616Y-46898125D01*
X29648011Y-46959920D01*
X29587172Y-46994277D01*
X29559086Y-46997500D01*
X18700914Y-46997500D01*
X18633875Y-46977815D01*
X18588120Y-46925011D01*
X18578176Y-46855853D01*
X18607201Y-46792297D01*
X18628029Y-46773182D01*
X18659785Y-46750109D01*
X18659783Y-46750109D01*
X18659792Y-46750104D01*
X18810104Y-46599792D01*
X18810106Y-46599788D01*
X18810109Y-46599786D01*
X18935048Y-46427820D01*
X18935047Y-46427820D01*
X18935051Y-46427816D01*
X19031557Y-46238412D01*
X19097246Y-46036243D01*
X19130500Y-45826287D01*
X19130500Y-45613713D01*
X19097246Y-45403757D01*
X19083506Y-45361473D01*
X19081512Y-45291635D01*
X19113755Y-45235478D01*
X23726506Y-40622728D01*
X23726511Y-40622724D01*
X23736714Y-40612520D01*
X23736716Y-40612520D01*
X23848520Y-40500716D01*
X23927577Y-40363784D01*
X23968500Y-40211057D01*
X23968500Y-34840866D01*
X23988185Y-34773827D01*
X24017010Y-34742493D01*
X24088443Y-34687682D01*
X24318185Y-34457937D01*
X24379504Y-34424455D01*
X24449196Y-34429439D01*
G37*
%TD.AperFunction*%
M02*
